999
dxfrw 0.6.3
  0
SECTION
  2
HEADER
  9
$ACADVER
  1
AC1021
  9
$DWGCODEPAGE
  3
ANSI_1252
  9
$INSBASE
 10
0
 20
0
 30
0
  9
$EXTMIN
 10
428.1389942960121
 20
485.4990172533218
 30
0
  9
$EXTMAX
 10
438.138994293512
 20
505.8156235436692
 30
0
  9
$LIMMIN
 10
0
 20
0
  9
$LIMMAX
 10
12
 20
9
  9
$ORTHOMODE
 70
    0
  9
$REGENMODE
 70
    1
  9
$FILLMODE
 70
    1
  9
$QTEXTMODE
 70
    0
  9
$MIRRTEXT
 70
    1
  9
$LTSCALE
 40
1
  9
$ATTMODE
 70
    1
  9
$TEXTSIZE
 40
0.2
  9
$TRACEWID
 40
0.05
  9
$TEXTSTYLE
  7
Standard
  9
$CLAYER
  8
0
  9
$CELTYPE
  6
ByLayer
  9
$CECOLOR
 62
  256
  9
$CELTSCALE
 40
1
  9
$DISPSILH
 70
    0
  9
$DIMSCALE
 40
1
  9
$DIMASZ
 40
0.18
  9
$DIMEXO
 40
0.0625
  9
$DIMDLI
 40
0.38
  9
$DIMRND
 40
0
  9
$DIMDLE
 40
0
  9
$DIMEXE
 40
0.18
  9
$DIMTP
 40
0
  9
$DIMTM
 40
0
  9
$DIMTXT
 40
0.18
  9
$DIMCEN
 40
0.09
  9
$DIMTSZ
 40
0
  9
$DIMTOL
 70
    0
  9
$DIMLIM
 70
    0
  9
$DIMTIH
 70
    1
  9
$DIMTOH
 70
    1
  9
$DIMSE1
 70
    0
  9
$DIMSE2
 70
    0
  9
$DIMTAD
 70
    0
  9
$DIMZIN
 70
    0
  9
$DIMBLK
  1

  9
$DIMASO
 70
    1
  9
$DIMSHO
 70
    1
  9
$DIMPOST
  1

  9
$DIMAPOST
  1

  9
$DIMALT
 70
    0
  9
$DIMALTD
 70
    2
  9
$DIMALTF
 40
25.4
  9
$DIMLFAC
 40
1
  9
$DIMTOFL
 70
    0
  9
$DIMTVP
 40
0
  9
$DIMTIX
 70
    0
  9
$DIMSOXD
 70
    0
  9
$DIMSAH
 70
    0
  9
$DIMBLK1
  1

  9
$DIMBLK2
  1

  9
$DIMSTYLE
  2
Standard
  9
$DIMCLRD
 70
    0
  9
$DIMCLRE
 70
    0
  9
$DIMCLRT
 70
    0
  9
$DIMTFAC
 40
1
  9
$DIMGAP
 40
0.09
  9
$DIMJUST
 70
    0
  9
$DIMSD1
 70
    0
  9
$DIMSD2
 70
    0
  9
$DIMTOLJ
 70
    1
  9
$DIMTZIN
 70
    0
  9
$DIMALTZ
 70
    0
  9
$DIMALTTZ
 70
    0
  9
$DIMUPT
 70
    0
  9
$DIMDEC
 70
    4
  9
$DIMTDEC
 70
    4
  9
$DIMALTU
 70
    2
  9
$DIMALTTD
 70
    2
  9
$DIMTXSTY
  7
Standard
  9
$DIMAUNIT
 70
    0
  9
$DIMADEC
 70
    0
  9
$DIMALTRND
 40
0
  9
$DIMAZIN
 70
    0
  9
$DIMDSEP
 70
   46
  9
$DIMATFIT
 70
    3
  9
$DIMFRAC
 70
    0
  9
$DIMLDRBLK
  1

  9
$DIMLUNIT
 70
    2
  9
$DIMLWD
 70
   -2
  9
$DIMLWE
 70
   -2
  9
$DIMTMOVE
 70
    0
  9
$DIMFXL
 40
1
  9
$DIMFXLON
 70
    0
  9
$DIMJOGANG
 40
0.7853981633974483
  9
$DIMTFILL
 70
    0
  9
$DIMTFILLCLR
 70
    0
  9
$DIMARCSYM
 70
    0
  9
$DIMLTYPE
  6

  9
$DIMLTEX1
  6

  9
$DIMLTEX2
  6

  9
$LUNITS
 70
    2
  9
$LUPREC
 70
    4
  9
$SKETCHINC
 40
0.1
  9
$FILLETRAD
 40
0.5
  9
$AUNITS
 70
    0
  9
$AUPREC
 70
    0
  9
$MENU
  1
.
  9
$ELEVATION
 40
0
  9
$PELEVATION
 40
0
  9
$THICKNESS
 40
0
  9
$LIMCHECK
 70
    0
  9
$CHAMFERA
 40
0.5
  9
$CHAMFERB
 40
0.5
  9
$CHAMFERC
 40
1
  9
$CHAMFERD
 40
0
  9
$SKPOLY
 70
    0
  9
$USRTIMER
 70
    1
  9
$ANGBASE
 50
0
  9
$ANGDIR
 70
    0
  9
$PDMODE
 70
    0
  9
$PDSIZE
 40
0
  9
$PLINEWID
 40
0
  9
$SPLFRAME
 70
    0
  9
$SPLINETYPE
 70
    6
  9
$SPLINESEGS
 70
    8
  9
$HANDSEED
  5
20000
  9
$SURFTAB1
 70
    6
  9
$SURFTAB2
 70
    6
  9
$SURFTYPE
 70
    6
  9
$SURFU
 70
    6
  9
$SURFV
 70
    6
  9
$UCSBASE
  2

  9
$UCSNAME
  2

  9
$UCSORG
 10
0
 20
0
 30
0
  9
$UCSXDIR
 10
1
 20
0
 30
0
  9
$UCSYDIR
 10
0
 20
1
 30
0
  9
$UCSORTHOREF
  2

  9
$UCSORTHOVIEW
 70
    0
  9
$UCSORGTOP
 10
0
 20
0
 30
0
  9
$UCSORGBOTTOM
 10
0
 20
0
 30
0
  9
$UCSORGLEFT
 10
0
 20
0
 30
0
  9
$UCSORGRIGHT
 10
0
 20
0
 30
0
  9
$UCSORGFRONT
 10
0
 20
0
 30
0
  9
$UCSORGBACK
 10
0
 20
0
 30
0
  9
$PUCSBASE
  2

  9
$PUCSNAME
  2

  9
$PUCSORG
 10
0
 20
0
 30
0
  9
$PUCSXDIR
 10
1
 20
0
 30
0
  9
$PUCSYDIR
 10
0
 20
1
 30
0
  9
$PUCSORTHOREF
  2

  9
$PUCSORTHOVIEW
 70
    0
  9
$PUCSORGTOP
 10
0
 20
0
 30
0
  9
$PUCSORGBOTTOM
 10
0
 20
0
 30
0
  9
$PUCSORGLEFT
 10
0
 20
0
 30
0
  9
$PUCSORGRIGHT
 10
0
 20
0
 30
0
  9
$PUCSORGFRONT
 10
0
 20
0
 30
0
  9
$PUCSORGBACK
 10
0
 20
0
 30
0
  9
$USERI1
 70
    0
  9
$USERI2
 70
    0
  9
$USERI3
 70
    0
  9
$USERI4
 70
    0
  9
$USERI5
 70
    0
  9
$USERR1
 40
0
  9
$USERR2
 40
0
  9
$USERR3
 40
0
  9
$USERR4
 40
0
  9
$USERR5
 40
0
  9
$WORLDVIEW
 70
    1
  9
$SHADEDGE
 70
    3
  9
$SHADEDIF
 70
   70
  9
$TILEMODE
 70
    1
  9
$MAXACTVP
 70
   64
  9
$PINSBASE
 10
0
 20
0
 30
0
  9
$PLIMCHECK
 70
    0
  9
$PEXTMIN
 10
1e+020
 20
1e+020
 30
1e+020
  9
$PEXTMAX
 10
-1e+020
 20
-1e+020
 30
-1e+020
  9
$GRIDMODE
 70
    0
  9
$SNAPSTYLE
 70
    0
  9
$PLIMMIN
 10
0
 20
0
  9
$PLIMMAX
 10
12
 20
9
  9
$UNITMODE
 70
    0
  9
$VISRETAIN
 70
    1
  9
$PLINEGEN
 70
    0
  9
$PSLTSCALE
 70
    1
  9
$TREEDEPTH
 70
 3020
  9
$CMLSTYLE
  2
Standard
  9
$CMLJUST
 70
    0
  9
$CMLSCALE
 40
1
  9
$PROXYGRAPHICS
 70
    1
  9
$MEASUREMENT
 70
    0
  9
$CELWEIGHT
370
   -1
  9
$ENDCAPS
280
    0
  9
$JOINSTYLE
280
    0
  9
$LWDISPLAY
290
    1
  9
$INSUNITS
 70
    4
  9
$HYPERLINKBASE
  1

  9
$STYLESHEET
  1

  9
$XEDIT
290
    1
  9
$CEPSNTYPE
380
    0
  9
$PSTYLEMODE
290
    1
  9
$EXTNAMES
290
    1
  9
$PSVPSCALE
 40
0
  9
$OLESTARTUP
290
    0
  9
$SORTENTS
280
  127
  9
$INDEXCTL
280
    0
  9
$HIDETEXT
280
    1
  9
$XCLIPFRAME
290
    2
  9
$HALOGAP
280
    0
  9
$OBSCOLOR
 70
  257
  9
$OBSLTYPE
280
    0
  9
$INTERSECTIONDISPLAY
280
    0
  9
$INTERSECTIONCOLOR
 70
  257
  9
$DIMASSOC
280
    2
  9
$PROJECTNAME
  1

  9
$CAMERADISPLAY
290
    0
  9
$LENSLENGTH
 40
50
  9
$CAMERAHEIGHT
 40
0
  9
$STEPSPERSEC
 40
2
  9
$STEPSIZE
 40
6
  9
$3DDWFPREC
 40
2
  9
$PSOLWIDTH
 40
0.25
  9
$PSOLHEIGHT
 40
4
  9
$LOFTANG1
 40
1.570796326794897
  9
$LOFTANG2
 40
1.570796326794897
  9
$LOFTMAG1
 40
0
  9
$LOFTMAG2
 40
0
  9
$LOFTPARAM
 70
    7
  9
$LOFTNORMALS
280
    1
  9
$LATITUDE
 40
37.795
  9
$LONGITUDE
 40
-122.394
  9
$NORTHDIRECTION
 40
0
  9
$TIMEZONE
 70
-8000
  9
$LIGHTGLYPHDISPLAY
280
    1
  9
$TILEMODELIGHTSYNCH
280
    1
  9
$SOLIDHIST
280
    1
  9
$SHOWHIST
280
    1
  9
$DWFFRAME
280
    2
  9
$DGNFRAME
280
    2
  9
$REALWORLDSCALE
290
    1
  9
$INTERFERECOLOR
 62
  256
  9
$CSHADOW
280
    0
  9
$SHADOWPLANELOCATION
 40
0
  0
ENDSEC
  0
SECTION
  2
CLASSES
  0
ENDSEC
  0
SECTION
  2
TABLES
  0
TABLE
  2
VPORT
  5
8
330
0
100
AcDbSymbolTable
 70
    1
  0
VPORT
  5
31
330
2
100
AcDbSymbolTableRecord
100
AcDbViewportTableRecord
  2
*ACTIVE
 70
    0
 10
0
 20
0
 11
1
 21
1
 12
244.3547453183621
 22
258.7901164788029
 13
0
 23
0
 14
10
 24
10
 15
10
 25
10
 16
0
 26
0
 36
1
 17
0
 27
0
 37
0
 40
57.88583835336772
 41
1.955112219451371
 42
50
 43
0
 44
0
 50
0
 51
0
 71
    0
 72
  100
 73
    1
 74
    3
 75
    0
 76
    0
 77
    0
 78
    0
281
    0
 65
    1
110
0
120
0
130
0
111
1
121
0
131
0
112
0
122
1
132
0
 79
    0
146
0
348
10020
 60
    7
 61
    5
292
1
282
    1
141
0
142
0
 63
  250
421
3358443
  0
ENDTAB
  0
TABLE
  2
LTYPE
  5
5
330
0
100
AcDbSymbolTable
 70
    4
  0
LTYPE
  5
14
330
5
100
AcDbSymbolTableRecord
100
AcDbLinetypeTableRecord
  2
ByBlock
 70
    0
  3

 72
   65
 73
    0
 40
0
  0
LTYPE
  5
15
330
5
100
AcDbSymbolTableRecord
100
AcDbLinetypeTableRecord
  2
ByLayer
 70
    0
  3

 72
   65
 73
    0
 40
0
  0
LTYPE
  5
16
330
5
100
AcDbSymbolTableRecord
100
AcDbLinetypeTableRecord
  2
Continuous
 70
    0
  3
Solid line
 72
   65
 73
    0
 40
0
  0
LTYPE
  5
32
330
5
100
AcDbSymbolTableRecord
100
AcDbLinetypeTableRecord
  2
DOT
 70
    0
  3
Dot . . . . . . . . . . . . . . . . . . . . . .
 72
   65
 73
    2
 40
6.35
 49
0
 74
    0
 49
-6.35
 74
    0
  0
LTYPE
  5
33
330
5
100
AcDbSymbolTableRecord
100
AcDbLinetypeTableRecord
  2
DOTTINY
 70
    0
  3
Dot (.15x) .....................................
 72
   65
 73
    2
 40
0.9525
 49
0
 74
    0
 49
-0.9525
 74
    0
  0
LTYPE
  5
34
330
5
100
AcDbSymbolTableRecord
100
AcDbLinetypeTableRecord
  2
DOT2
 70
    0
  3
Dot (.5x) .....................................
 72
   65
 73
    2
 40
3.175
 49
0
 74
    0
 49
-3.175
 74
    0
  0
LTYPE
  5
35
330
5
100
AcDbSymbolTableRecord
100
AcDbLinetypeTableRecord
  2
DOTX2
 70
    0
  3
Dot (2x) .  .  .  .  .  .  .  .  .  .  .  .  .
 72
   65
 73
    2
 40
12.7
 49
0
 74
    0
 49
-12.7
 74
    0
  0
LTYPE
  5
36
330
5
100
AcDbSymbolTableRecord
100
AcDbLinetypeTableRecord
  2
DASHED
 70
    0
  3
Dashed _ _ _ _ _ _ _ _ _ _ _ _ _ _ _ _ _
 72
   65
 73
    2
 40
19.05
 49
12.7
 74
    0
 49
-6.35
 74
    0
  0
LTYPE
  5
37
330
5
100
AcDbSymbolTableRecord
100
AcDbLinetypeTableRecord
  2
DASHEDTINY
 70
    0
  3
Dashed (.15x) _ _ _ _ _ _ _ _ _ _ _ _ _ _ _ _ _
 72
   65
 73
    2
 40
2.8575
 49
1.905
 74
    0
 49
-0.9525
 74
    0
  0
LTYPE
  5
38
330
5
100
AcDbSymbolTableRecord
100
AcDbLinetypeTableRecord
  2
DASHED2
 70
    0
  3
Dashed (.5x) _ _ _ _ _ _ _ _ _ _ _ _ _ _ _ _ _
 72
   65
 73
    2
 40
9.524999999999999
 49
6.35
 74
    0
 49
-3.175
 74
    0
  0
LTYPE
  5
39
330
5
100
AcDbSymbolTableRecord
100
AcDbLinetypeTableRecord
  2
DASHEDX2
 70
    0
  3
Dashed (2x) ____  ____  ____  ____  ____  ___
 72
   65
 73
    2
 40
38.09999999999999
 49
25.4
 74
    0
 49
-12.7
 74
    0
  0
LTYPE
  5
3A
330
5
100
AcDbSymbolTableRecord
100
AcDbLinetypeTableRecord
  2
DASHDOT
 70
    0
  3
Dash dot __ . __ . __ . __ . __ . __ . __ . __
 72
   65
 73
    4
 40
25.4
 49
12.7
 74
    0
 49
-6.35
 74
    0
 49
0
 74
    0
 49
-6.35
 74
    0
  0
LTYPE
  5
3B
330
5
100
AcDbSymbolTableRecord
100
AcDbLinetypeTableRecord
  2
DASHDOTTINY
 70
    0
  3
Dash dot (.15x) _._._._._._._._._._._._._._._.
 72
   65
 73
    4
 40
3.81
 49
1.905
 74
    0
 49
-0.9525
 74
    0
 49
0
 74
    0
 49
-0.9525
 74
    0
  0
LTYPE
  5
3C
330
5
100
AcDbSymbolTableRecord
100
AcDbLinetypeTableRecord
  2
DASHDOT2
 70
    0
  3
Dash dot (.5x) _._._._._._._._._._._._._._._.
 72
   65
 73
    4
 40
12.7
 49
6.35
 74
    0
 49
-3.175
 74
    0
 49
0
 74
    0
 49
-3.175
 74
    0
  0
LTYPE
  5
3D
330
5
100
AcDbSymbolTableRecord
100
AcDbLinetypeTableRecord
  2
DASHDOTX2
 70
    0
  3
Dash dot (2x) ____  .  ____  .  ____  .  ___
 72
   65
 73
    4
 40
50.8
 49
25.4
 74
    0
 49
-12.7
 74
    0
 49
0
 74
    0
 49
-12.7
 74
    0
  0
LTYPE
  5
3E
330
5
100
AcDbSymbolTableRecord
100
AcDbLinetypeTableRecord
  2
DIVIDE
 70
    0
  3
Divide ____ . . ____ . . ____ . . ____ . . ____
 72
   65
 73
    6
 40
31.75
 49
12.7
 74
    0
 49
-6.35
 74
    0
 49
0
 74
    0
 49
-6.35
 74
    0
 49
0
 74
    0
 49
-6.35
 74
    0
  0
LTYPE
  5
3F
330
5
100
AcDbSymbolTableRecord
100
AcDbLinetypeTableRecord
  2
DIVIDETINY
 70
    0
  3
Divide (.15x) __..__..__..__..__..__..__..__.._
 72
   65
 73
    6
 40
4.7625
 49
1.905
 74
    0
 49
-0.9525
 74
    0
 49
0
 74
    0
 49
-0.9525
 74
    0
 49
0
 74
    0
 49
-0.9525
 74
    0
  0
LTYPE
  5
40
330
5
100
AcDbSymbolTableRecord
100
AcDbLinetypeTableRecord
  2
DIVIDE2
 70
    0
  3
Divide (.5x) __..__..__..__..__..__..__..__.._
 72
   65
 73
    6
 40
15.875
 49
6.35
 74
    0
 49
-3.175
 74
    0
 49
0
 74
    0
 49
-3.175
 74
    0
 49
0
 74
    0
 49
-3.175
 74
    0
  0
LTYPE
  5
41
330
5
100
AcDbSymbolTableRecord
100
AcDbLinetypeTableRecord
  2
DIVIDEX2
 70
    0
  3
Divide (2x) ________  .  .  ________  .  .  _
 72
   65
 73
    6
 40
63.5
 49
25.4
 74
    0
 49
-12.7
 74
    0
 49
0
 74
    0
 49
-12.7
 74
    0
 49
0
 74
    0
 49
-12.7
 74
    0
  0
LTYPE
  5
42
330
5
100
AcDbSymbolTableRecord
100
AcDbLinetypeTableRecord
  2
BORDER
 70
    0
  3
Border __ __ . __ __ . __ __ . __ __ . __ __ .
 72
   65
 73
    6
 40
44.45
 49
12.7
 74
    0
 49
-6.35
 74
    0
 49
12.7
 74
    0
 49
-6.35
 74
    0
 49
0
 74
    0
 49
-6.35
 74
    0
  0
LTYPE
  5
43
330
5
100
AcDbSymbolTableRecord
100
AcDbLinetypeTableRecord
  2
BORDERTINY
 70
    0
  3
Border (.15x) __.__.__.__.__.__.__.__.__.__.__.
 72
   65
 73
    6
 40
6.6675
 49
1.905
 74
    0
 49
-0.9525
 74
    0
 49
1.905
 74
    0
 49
-0.9525
 74
    0
 49
0
 74
    0
 49
-0.9525
 74
    0
  0
LTYPE
  5
44
330
5
100
AcDbSymbolTableRecord
100
AcDbLinetypeTableRecord
  2
BORDER2
 70
    0
  3
Border (.5x) __.__.__.__.__.__.__.__.__.__.__.
 72
   65
 73
    6
 40
22.225
 49
6.35
 74
    0
 49
-3.175
 74
    0
 49
6.35
 74
    0
 49
-3.175
 74
    0
 49
0
 74
    0
 49
-3.175
 74
    0
  0
LTYPE
  5
45
330
5
100
AcDbSymbolTableRecord
100
AcDbLinetypeTableRecord
  2
BORDERX2
 70
    0
  3
Border (2x) ____  ____  .  ____  ____  .  ___
 72
   65
 73
    6
 40
88.89999999999999
 49
25.4
 74
    0
 49
-12.7
 74
    0
 49
25.4
 74
    0
 49
-12.7
 74
    0
 49
0
 74
    0
 49
-12.7
 74
    0
  0
LTYPE
  5
46
330
5
100
AcDbSymbolTableRecord
100
AcDbLinetypeTableRecord
  2
CENTER
 70
    0
  3
Center ____ _ ____ _ ____ _ ____ _ ____ _ ____
 72
   65
 73
    4
 40
50.8
 49
31.75
 74
    0
 49
-6.35
 74
    0
 49
6.35
 74
    0
 49
-6.35
 74
    0
  0
LTYPE
  5
47
330
5
100
AcDbSymbolTableRecord
100
AcDbLinetypeTableRecord
  2
CENTERTINY
 70
    0
  3
Center (.15x) ___ _ ___ _ ___ _ ___ _ ___ _ ___
 72
   65
 73
    4
 40
7.62
 49
4.7625
 74
    0
 49
-0.9525
 74
    0
 49
0.9525
 74
    0
 49
-0.9525
 74
    0
  0
LTYPE
  5
48
330
5
100
AcDbSymbolTableRecord
100
AcDbLinetypeTableRecord
  2
CENTER2
 70
    0
  3
Center (.5x) ___ _ ___ _ ___ _ ___ _ ___ _ ___
 72
   65
 73
    4
 40
28.575
 49
19.05
 74
    0
 49
-3.175
 74
    0
 49
3.175
 74
    0
 49
-3.175
 74
    0
  0
LTYPE
  5
49
330
5
100
AcDbSymbolTableRecord
100
AcDbLinetypeTableRecord
  2
CENTERX2
 70
    0
  3
Center (2x) ________  __  ________  __  _____
 72
   65
 73
    4
 40
101.6
 49
63.5
 74
    0
 49
-12.7
 74
    0
 49
12.7
 74
    0
 49
-12.7
 74
    0
  0
ENDTAB
  0
TABLE
  2
LAYER
  5
2
330
0
100
AcDbSymbolTable
 70
    1
  0
LAYER
  5
10
330
2
100
AcDbSymbolTableRecord
100
AcDbLayerTableRecord
  2
0
 70
    0
 62
    7
  6
CONTINUOUS
370
   -3
390
F
  0
ENDTAB
  0
TABLE
  2
STYLE
  5
3
330
0
100
AcDbSymbolTable
 70
    3
  0
STYLE
  5
4A
330
2
100
AcDbSymbolTableRecord
100
AcDbTextStyleTableRecord
  2
Standard
 70
    0
 40
0
 41
1
 50
0
 71
    0
 42
1
  3
txt
  4

  0
ENDTAB
  0
TABLE
  2
VIEW
  5
6
330
0
100
AcDbSymbolTable
 70
    0
  0
ENDTAB
  0
TABLE
  2
UCS
  5
7
330
0
100
AcDbSymbolTable
 70
    0
  0
ENDTAB
  0
TABLE
  2
APPID
  5
9
330
0
100
AcDbSymbolTable
 70
    1
  0
APPID
  5
12
330
9
100
AcDbSymbolTableRecord
100
AcDbRegAppTableRecord
  2
ACAD
 70
    0
  0
APPID
  5
4B
330
9
100
AcDbSymbolTableRecord
100
AcDbRegAppTableRecord
  2
LibreCad
 70
    0
  0
ENDTAB
  0
TABLE
  2
DIMSTYLE
  5
A
330
0
100
AcDbSymbolTable
 70
    1
100
AcDbDimStyleTable
 71
    1
  0
DIMSTYLE
105
4C
330
A
100
AcDbSymbolTableRecord
100
AcDbDimStyleTableRecord
  2
Standard
 70
    0
 40
1
 41
0.18
 42
0.0625
 43
0.38
 44
0.18
 45
0
 46
0
 47
0
 48
0
 49
1
140
0.18
141
0.09
142
0
143
25.4
144
1
145
0
146
1
147
0.09
148
0
 71
    0
 72
    0
 73
    1
 74
    1
 75
    0
 76
    0
 77
    0
 78
    0
 79
    0
170
    0
171
    2
172
    0
173
    0
174
    0
175
    0
176
    0
177
    0
178
    0
179
    0
271
    4
272
    4
273
    2
274
    2
275
    0
276
    0
277
    2
278
   46
279
    0
280
    0
281
    0
282
    0
283
    1
284
    0
285
    0
286
    0
288
    0
289
    3
340
Standard
341

371
   -2
372
   -2
  0
ENDTAB
  0
TABLE
  2
BLOCK_RECORD
  5
1
330
0
100
AcDbSymbolTable
 70
    2
  0
BLOCK_RECORD
  5
1F
330
1
100
AcDbSymbolTableRecord
100
AcDbBlockTableRecord
  2
*Model_Space
 70
    0
280
    1
281
    0
  0
BLOCK_RECORD
  5
1E
330
1
100
AcDbSymbolTableRecord
100
AcDbBlockTableRecord
  2
*Paper_Space
 70
    0
280
    1
281
    0
  0
ENDTAB
  0
ENDSEC
  0
SECTION
  2
BLOCKS
  0
BLOCK
  5
20
330
1F
100
AcDbEntity
  8
0
100
AcDbBlockBegin
  2
*Model_Space
 70
    0
 10
0
 20
0
 30
0
  3
*Model_Space
  1

  0
ENDBLK
  5
21
330
1F
100
AcDbEntity
  8
0
100
AcDbBlockEnd
  0
BLOCK
  5
1C
330
1B
100
AcDbEntity
  8
0
100
AcDbBlockBegin
  2
*Paper_Space
 70
    0
 10
0
 20
0
 30
0
  3
*Paper_Space
  1

  0
ENDBLK
  5
1D
330
1F
100
AcDbEntity
  8
0
100
AcDbBlockEnd
  0
ENDSEC
  0
SECTION
  2
ENTITIES
  0
LINE
  5
4D
100
AcDbEntity
  8
0
  6
CONTINUOUS
 62
    7
370
    9
100
AcDbLine
 10
431.5535165721598
 20
498.4105951756562
 11
431.5913089238275
 21
498.3347496776601
  0
LINE
  5
4E
100
AcDbEntity
  8
0
  6
CONTINUOUS
 62
    7
370
    0
100
AcDbLine
 10
431.5913089238275
 20
498.3347496776601
 11
431.6355849256756
 21
498.2610995294915
  0
LINE
  5
4F
100
AcDbEntity
  8
0
  6
CONTINUOUS
 62
    7
370
    0
100
AcDbLine
 10
431.6355849256756
 20
498.2610995294915
 11
431.6857925620918
 21
498.1901966827418
  0
LINE
  5
50
100
AcDbEntity
  8
0
  6
CONTINUOUS
 62
    7
370
    0
100
AcDbLine
 10
431.6857925620918
 20
498.1901966827418
 11
431.7413798174634
 21
498.1225930890022
  0
LINE
  5
51
100
AcDbEntity
  8
0
  6
CONTINUOUS
 62
    7
370
    0
100
AcDbLine
 10
431.7413798174634
 20
498.1225930890022
 11
431.8017946761781
 21
498.058840699864
  0
LINE
  5
52
100
AcDbEntity
  8
0
  6
CONTINUOUS
 62
    7
370
    0
100
AcDbLine
 10
431.8017946761781
 20
498.058840699864
 11
431.8664851226235
 21
497.9994914669189
  0
LINE
  5
53
100
AcDbEntity
  8
0
  6
CONTINUOUS
 62
    7
370
    0
100
AcDbLine
 10
431.8664851226235
 20
497.9994914669189
 11
431.934899141187
 21
497.9450973417581
  0
LINE
  5
54
100
AcDbEntity
  8
0
  6
CONTINUOUS
 62
    7
370
    0
100
AcDbLine
 10
431.934899141187
 20
497.9450973417581
 11
432.0064847162562
 21
497.8962102759729
  0
LINE
  5
55
100
AcDbEntity
  8
0
  6
CONTINUOUS
 62
    7
370
    0
100
AcDbLine
 10
432.0064847162562
 20
497.8962102759729
 11
432.0806898322185
 21
497.8533822211546
  0
LINE
  5
56
100
AcDbEntity
  8
0
  6
CONTINUOUS
 62
    7
370
    0
100
AcDbLine
 10
432.0806898322185
 20
497.8533822211546
 11
432.1569632597236
 21
497.8171625232676
  0
LINE
  5
57
100
AcDbEntity
  8
0
  6
CONTINUOUS
 62
    7
370
    0
100
AcDbLine
 10
432.1569632597236
 20
497.8171625232676
 11
432.2348699032273
 21
497.7877156675041
  0
LINE
  5
58
100
AcDbEntity
  8
0
  6
CONTINUOUS
 62
    7
370
    0
100
AcDbLine
 10
432.2348699032273
 20
497.7877156675041
 11
432.3142124968744
 21
497.7644179851133
  0
LINE
  5
59
100
AcDbEntity
  8
0
  6
CONTINUOUS
 62
    7
370
    0
100
AcDbLine
 10
432.3142124968744
 20
497.7644179851133
 11
432.3948228956233
 21
497.7465493026368
  0
LINE
  5
5A
100
AcDbEntity
  8
0
  6
CONTINUOUS
 62
    7
370
    0
100
AcDbLine
 10
432.3948228956233
 20
497.7465493026368
 11
432.476532954433
 21
497.7333894466169
  0
LINE
  5
5B
100
AcDbEntity
  8
0
  6
CONTINUOUS
 62
    7
370
    0
100
AcDbLine
 10
432.476532954433
 20
497.7333894466169
 11
432.5591745282619
 21
497.7242182435954
  0
LINE
  5
5C
100
AcDbEntity
  8
0
  6
CONTINUOUS
 62
    7
370
    0
100
AcDbLine
 10
432.5591745282619
 20
497.7242182435954
 11
432.6425794720686
 21
497.7183155201143
  0
LINE
  5
5D
100
AcDbEntity
  8
0
  6
CONTINUOUS
 62
    7
370
    0
100
AcDbLine
 10
432.6425794720686
 20
497.7183155201143
 11
432.7265796408119
 21
497.7149611027156
  0
LINE
  5
5E
100
AcDbEntity
  8
0
  6
CONTINUOUS
 62
    7
370
    0
100
AcDbLine
 10
432.7265796408119
 20
497.7149611027156
 11
432.8110068894503
 21
497.713434817941
  0
LINE
  5
5F
100
AcDbEntity
  8
0
  6
CONTINUOUS
 62
    7
370
    0
100
AcDbLine
 10
432.8110068894503
 20
497.713434817941
 11
432.8956930729425
 21
497.7130164923327
  0
LINE
  5
60
100
AcDbEntity
  8
0
  6
CONTINUOUS
 62
    7
370
    0
100
AcDbLine
 10
432.8956930729425
 20
497.7130164923327
 11
432.9804700445687
 21
497.7130095539297
  0
LINE
  5
61
100
AcDbEntity
  8
0
  6
CONTINUOUS
 62
    7
370
    0
100
AcDbLine
 10
432.9804700445687
 20
497.7130095539297
 11
433.0651696110235
 21
497.7133724815796
  0
LINE
  5
62
100
AcDbEntity
  8
0
  6
CONTINUOUS
 62
    7
370
    0
100
AcDbLine
 10
433.0651696110235
 20
497.7133724815796
 11
433.1496235274971
 21
497.7147879704375
  0
LINE
  5
63
100
AcDbEntity
  8
0
  6
CONTINUOUS
 62
    7
370
    0
100
AcDbLine
 10
433.1496235274971
 20
497.7147879704375
 11
433.2336635465144
 21
497.7179761939614
  0
LINE
  5
64
100
AcDbEntity
  8
0
  6
CONTINUOUS
 62
    7
370
    0
100
AcDbLine
 10
433.2336635465144
 20
497.7179761939614
 11
433.3171214206003
 21
497.7236573256092
  0
LINE
  5
65
100
AcDbEntity
  8
0
  6
CONTINUOUS
 62
    7
370
    0
100
AcDbLine
 10
433.3171214206003
 20
497.7236573256092
 11
433.3998289022796
 21
497.7325515388392
  0
LINE
  5
66
100
AcDbEntity
  8
0
  6
CONTINUOUS
 62
    7
370
    0
100
AcDbLine
 10
433.3998289022796
 20
497.7325515388392
 11
433.4816177440773
 21
497.7453790071091
  0
LINE
  5
67
100
AcDbEntity
  8
0
  6
CONTINUOUS
 62
    7
370
    0
100
AcDbLine
 10
433.4816177440773
 20
497.7453790071091
 11
433.5623196985182
 21
497.7628599038774
  0
LINE
  5
68
100
AcDbEntity
  8
0
  6
CONTINUOUS
 62
    7
370
    0
100
AcDbLine
 10
433.5623196985182
 20
497.7628599038774
 11
433.641766518127
 21
497.7857144026018
  0
LINE
  5
69
100
AcDbEntity
  8
0
  6
CONTINUOUS
 62
    7
370
    0
100
AcDbLine
 10
433.641766518127
 20
497.7857144026018
 11
433.7197899554288
 21
497.8146626767405
  0
LINE
  5
6A
100
AcDbEntity
  8
0
  6
CONTINUOUS
 62
    7
370
    0
100
AcDbLine
 10
433.7197899554288
 20
497.8146626767405
 11
433.7962005437885
 21
497.8503545478201
  0
LINE
  5
6B
100
AcDbEntity
  8
0
  6
CONTINUOUS
 62
    7
370
    0
100
AcDbLine
 10
433.7962005437885
 20
497.8503545478201
 11
433.8705837595822
 21
497.8926936629713
  0
LINE
  5
6C
100
AcDbEntity
  8
0
  6
CONTINUOUS
 62
    7
370
    0
100
AcDbLine
 10
433.8705837595822
 20
497.8926936629713
 11
433.9423895268847
 21
497.9411342469044
  0
LINE
  5
6D
100
AcDbEntity
  8
0
  6
CONTINUOUS
 62
    7
370
    0
100
AcDbLine
 10
433.9423895268847
 20
497.9411342469044
 11
434.0110659069087
 21
497.9951243480277
  0
LINE
  5
6E
100
AcDbEntity
  8
0
  6
CONTINUOUS
 62
    7
370
    0
100
AcDbLine
 10
434.0110659069087
 20
497.9951243480277
 11
434.0760609608673
 21
498.0541120147501
  0
LINE
  5
6F
100
AcDbEntity
  8
0
  6
CONTINUOUS
 62
    7
370
    0
100
AcDbLine
 10
434.0760609608673
 20
498.0541120147501
 11
434.1368227499732
 21
498.1175452954802
  0
LINE
  5
70
100
AcDbEntity
  8
0
  6
CONTINUOUS
 62
    7
370
    0
100
AcDbLine
 10
434.1368227499732
 20
498.1175452954802
 11
434.1927993354392
 21
498.1848722386264
  0
LINE
  5
71
100
AcDbEntity
  8
0
  6
CONTINUOUS
 62
    7
370
    0
100
AcDbLine
 10
434.1927993354392
 20
498.1848722386264
 11
434.2434387784784
 21
498.2555408925975
  0
LINE
  5
72
100
AcDbEntity
  8
0
  6
CONTINUOUS
 62
    7
370
    0
100
AcDbLine
 10
434.2434387784784
 20
498.2555408925975
 11
434.2881891403034
 21
498.3289993058023
  0
LINE
  5
73
100
AcDbEntity
  8
0
  6
CONTINUOUS
 62
    7
370
    0
100
AcDbLine
 10
434.2881891403034
 20
498.3289993058023
 11
434.326498482127
 21
498.4046955266492
  0
LINE
  5
74
100
AcDbEntity
  8
0
  6
CONTINUOUS
 62
    7
370
    0
100
AcDbLine
 10
434.326498482127
 20
498.4046955266492
 11
434.3579816219394
 21
498.4821279024934
  0
LINE
  5
75
100
AcDbEntity
  8
0
  6
CONTINUOUS
 62
    7
370
    0
100
AcDbLine
 10
434.3579816219394
 20
498.4821279024934
 11
434.3830942063169
 21
498.5610484003203
  0
LINE
  5
76
100
AcDbEntity
  8
0
  6
CONTINUOUS
 62
    7
370
    0
100
AcDbLine
 10
434.3830942063169
 20
498.5610484003203
 11
434.4025562994104
 21
498.6412887435465
  0
LINE
  5
77
100
AcDbEntity
  8
0
  6
CONTINUOUS
 62
    7
370
    0
100
AcDbLine
 10
434.4025562994104
 20
498.6412887435465
 11
434.4170880618738
 21
498.7226806846967
  0
LINE
  5
78
100
AcDbEntity
  8
0
  6
CONTINUOUS
 62
    7
370
    0
100
AcDbLine
 10
434.4170880618738
 20
498.7226806846967
 11
434.427409654361
 21
498.805055976296
  0
LINE
  5
79
100
AcDbEntity
  8
0
  6
CONTINUOUS
 62
    7
370
    0
100
AcDbLine
 10
434.427409654361
 20
498.805055976296
 11
434.434241237526
 21
498.8882463708694
  0
LINE
  5
7A
100
AcDbEntity
  8
0
  6
CONTINUOUS
 62
    7
370
    0
100
AcDbLine
 10
434.434241237526
 20
498.8882463708694
 11
434.4383029720222
 21
498.9720836209415
  0
LINE
  5
7B
100
AcDbEntity
  8
0
  6
CONTINUOUS
 62
    7
370
    0
100
AcDbLine
 10
434.4383029720222
 20
498.9720836209415
 11
434.4403150185037
 21
499.0563994790372
  0
LINE
  5
7C
100
AcDbEntity
  8
0
  6
CONTINUOUS
 62
    7
370
    0
100
AcDbLine
 10
434.4403150185037
 20
499.0563994790372
 11
434.4409975376244
 21
499.1410256976814
  0
LINE
  5
7D
100
AcDbEntity
  8
0
  6
CONTINUOUS
 62
    7
370
    0
100
AcDbLine
 10
434.4409975376244
 20
499.1410256976814
 11
434.441069815924
 21
499.2257940294457
  0
LINE
  5
7E
100
AcDbEntity
  8
0
  6
CONTINUOUS
 62
    7
370
    0
100
AcDbLine
 10
434.441069815924
 20
499.2257940294457
 11
434.4408858695637
 21
499.3105362463847
  0
LINE
  5
7F
100
AcDbEntity
  8
0
  6
CONTINUOUS
 62
    7
370
    0
100
AcDbLine
 10
434.4408858695637
 20
499.3105362463847
 11
434.4398709686027
 21
499.3950841700914
  0
LINE
  5
80
100
AcDbEntity
  8
0
  6
CONTINUOUS
 62
    7
370
    0
100
AcDbLine
 10
434.4398709686027
 20
499.3950841700914
 11
434.4373049523876
 21
499.4792696299161
  0
LINE
  5
81
100
AcDbEntity
  8
0
  6
CONTINUOUS
 62
    7
370
    0
100
AcDbLine
 10
434.4373049523876
 20
499.4792696299161
 11
434.432467660264
 21
499.5629244552088
  0
LINE
  5
82
100
AcDbEntity
  8
0
  6
CONTINUOUS
 62
    7
370
    0
100
AcDbLine
 10
434.432467660264
 20
499.5629244552088
 11
434.4246389315785
 21
499.64588047532
  0
LINE
  5
83
100
AcDbEntity
  8
0
  6
CONTINUOUS
 62
    7
370
    0
100
AcDbLine
 10
434.4246389315785
 20
499.64588047532
 11
434.4130986056771
 21
499.7279695195998
  0
LINE
  5
84
100
AcDbEntity
  8
0
  6
CONTINUOUS
 62
    7
370
    0
100
AcDbLine
 10
434.4130986056771
 20
499.7279695195998
 11
434.397126521906
 21
499.8090234173981
  0
LINE
  5
85
100
AcDbEntity
  8
0
  6
CONTINUOUS
 62
    7
370
    0
100
AcDbLine
 10
434.397126521906
 20
499.8090234173981
 11
434.3760025196112
 21
499.8888739980654
  0
LINE
  5
86
100
AcDbEntity
  8
0
  6
CONTINUOUS
 62
    7
370
    0
100
AcDbLine
 10
434.3760025196112
 20
499.8888739980654
 11
434.3490064381393
 21
499.9673530909519
  0
LINE
  5
87
100
AcDbEntity
  8
0
  6
CONTINUOUS
 62
    7
370
    0
100
AcDbLine
 10
434.3490064381393
 20
499.9673530909519
 11
434.3154301796816
 21
500.0442888859131
  0
LINE
  5
88
100
AcDbEntity
  8
0
  6
CONTINUOUS
 62
    7
370
    0
100
AcDbLine
 10
434.3154301796816
 20
500.0442888859131
 11
434.2750801991701
 21
500.1193543265198
  0
LINE
  5
89
100
AcDbEntity
  8
0
  6
CONTINUOUS
 62
    7
370
    0
100
AcDbLine
 10
434.2750801991701
 20
500.1193543265198
 11
434.2284590259765
 21
500.1920123429423
  0
LINE
  5
8A
100
AcDbEntity
  8
0
  6
CONTINUOUS
 62
    7
370
    0
100
AcDbLine
 10
434.2284590259765
 20
500.1920123429423
 11
434.1761185988879
 21
500.2617109579808
  0
LINE
  5
8B
100
AcDbEntity
  8
0
  6
CONTINUOUS
 62
    7
370
    0
100
AcDbLine
 10
434.1761185988879
 20
500.2617109579808
 11
434.1186108566915
 21
500.3278981944358
  0
LINE
  5
8C
100
AcDbEntity
  8
0
  6
CONTINUOUS
 62
    7
370
    0
100
AcDbLine
 10
434.1186108566915
 20
500.3278981944358
 11
434.0564877381742
 21
500.3900220751071
  0
LINE
  5
8D
100
AcDbEntity
  8
0
  6
CONTINUOUS
 62
    7
370
    0
100
AcDbLine
 10
434.0564877381742
 20
500.3900220751071
 11
433.9903011821235
 21
500.4475306227951
  0
LINE
  5
8E
100
AcDbEntity
  8
0
  6
CONTINUOUS
 62
    7
370
    0
100
AcDbLine
 10
433.9903011821235
 20
500.4475306227951
 11
433.9206031273264
 21
500.4998718603001
  0
LINE
  5
8F
100
AcDbEntity
  8
0
  6
CONTINUOUS
 62
    7
370
    0
100
AcDbLine
 10
433.9206031273264
 20
500.4998718603001
 11
433.84794551257
 21
500.546493810422
  0
LINE
  5
90
100
AcDbEntity
  8
0
  6
CONTINUOUS
 62
    7
370
    0
100
AcDbLine
 10
433.84794551257
 20
500.546493810422
 11
433.7728802766415
 21
500.5868444959613
  0
LINE
  5
91
100
AcDbEntity
  8
0
  6
CONTINUOUS
 62
    7
370
    0
100
AcDbLine
 10
433.7728802766415
 20
500.5868444959613
 11
433.6959444554337
 21
500.6204213511226
  0
LINE
  5
92
100
AcDbEntity
  8
0
  6
CONTINUOUS
 62
    7
370
    0
100
AcDbLine
 10
433.6959444554337
 20
500.6204213511226
 11
433.6174651344957
 21
500.6474179125761
  0
LINE
  5
93
100
AcDbEntity
  8
0
  6
CONTINUOUS
 62
    7
370
    0
100
AcDbLine
 10
433.6174651344957
 20
500.6474179125761
 11
433.5376141997044
 21
500.6685422904486
  0
LINE
  5
94
100
AcDbEntity
  8
0
  6
CONTINUOUS
 62
    7
370
    0
100
AcDbLine
 10
433.5376141997044
 20
500.6685422904486
 11
433.4565598985351
 21
500.6845146581982
  0
LINE
  5
95
100
AcDbEntity
  8
0
  6
CONTINUOUS
 62
    7
370
    0
100
AcDbLine
 10
433.4565598985351
 20
500.6845146581982
 11
433.3744704784629
 21
500.6960551892827
  0
LINE
  5
96
100
AcDbEntity
  8
0
  6
CONTINUOUS
 62
    7
370
    0
100
AcDbLine
 10
433.3744704784629
 20
500.6960551892827
 11
433.2915141869629
 21
500.7038840571606
  0
LINE
  5
97
100
AcDbEntity
  8
0
  6
CONTINUOUS
 62
    7
370
    0
100
AcDbLine
 10
433.2915141869629
 20
500.7038840571606
 11
433.2078592715102
 21
500.7087214352896
  0
LINE
  5
98
100
AcDbEntity
  8
0
  6
CONTINUOUS
 62
    7
370
    0
100
AcDbLine
 10
433.2078592715102
 20
500.7087214352896
 11
433.1236739795801
 21
500.7112874971277
  0
LINE
  5
99
100
AcDbEntity
  8
0
  6
CONTINUOUS
 62
    7
370
    0
100
AcDbLine
 10
433.1236739795801
 20
500.7112874971277
 11
433.0391265586474
 21
500.7123024161332
  0
LINE
  5
9A
100
AcDbEntity
  8
0
  6
CONTINUOUS
 62
    7
370
    0
100
AcDbLine
 10
433.0391265586474
 20
500.7123024161332
 11
432.9543852561875
 21
500.7124863657639
  0
LINE
  5
9B
100
AcDbEntity
  8
0
  6
CONTINUOUS
 62
    7
370
    0
100
AcDbLine
 10
432.9543852561875
 20
500.7124863657639
 11
432.8696183093325
 21
500.7124140861793
  0
LINE
  5
9C
100
AcDbEntity
  8
0
  6
CONTINUOUS
 62
    7
370
    0
100
AcDbLine
 10
432.8696183093325
 20
500.7124140861793
 11
432.7849938891637
 21
500.7117315549238
  0
LINE
  5
9D
100
AcDbEntity
  8
0
  6
CONTINUOUS
 62
    7
370
    0
100
AcDbLine
 10
432.7849938891637
 20
500.7117315549238
 11
432.7006801407846
 21
500.7097194726687
  0
LINE
  5
9E
100
AcDbEntity
  8
0
  6
CONTINUOUS
 62
    7
370
    0
100
AcDbLine
 10
432.7006801407846
 20
500.7097194726687
 11
432.6168452092363
 21
500.7056576659561
  0
LINE
  5
9F
100
AcDbEntity
  8
0
  6
CONTINUOUS
 62
    7
370
    0
100
AcDbLine
 10
432.6168452092363
 20
500.7056576659561
 11
432.5336572395603
 21
500.6988259613278
  0
LINE
  5
A0
100
AcDbEntity
  8
0
  6
CONTINUOUS
 62
    7
370
    0
100
AcDbLine
 10
432.5336572395603
 20
500.6988259613278
 11
432.4512843767981
 21
500.6885041853261
  0
LINE
  5
A1
100
AcDbEntity
  8
0
  6
CONTINUOUS
 62
    7
370
    0
100
AcDbLine
 10
432.4512843767981
 20
500.6885041853261
 11
432.3698947659908
 21
500.6739721644926
  0
LINE
  5
A2
100
AcDbEntity
  8
0
  6
CONTINUOUS
 62
    7
370
    0
100
AcDbLine
 10
432.3698947659908
 20
500.6739721644926
 11
432.2896565521801
 21
500.6545097253695
  0
LINE
  5
A3
100
AcDbEntity
  8
0
  6
CONTINUOUS
 62
    7
370
    0
100
AcDbLine
 10
432.2896565521801
 20
500.6545097253695
 11
432.210737880407
 21
500.6293966944986
  0
LINE
  5
A4
100
AcDbEntity
  8
0
  6
CONTINUOUS
 62
    7
370
    0
100
AcDbLine
 10
432.210737880407
 20
500.6293966944986
 11
432.1333069248338
 21
500.5979129949285
  0
LINE
  5
A5
100
AcDbEntity
  8
0
  6
CONTINUOUS
 62
    7
370
    0
100
AcDbLine
 10
432.1333069248338
 20
500.5979129949285
 11
432.0576116506534
 21
500.5596029779284
  0
LINE
  5
A6
100
AcDbEntity
  8
0
  6
CONTINUOUS
 62
    7
370
    0
100
AcDbLine
 10
432.0576116506534
 20
500.5596029779284
 11
431.9841537527112
 21
500.514851857207
  0
LINE
  5
A7
100
AcDbEntity
  8
0
  6
CONTINUOUS
 62
    7
370
    0
100
AcDbLine
 10
431.9841537527112
 20
500.514851857207
 11
431.91348524662
 21
500.4642116099644
  0
LINE
  5
A8
100
AcDbEntity
  8
0
  6
CONTINUOUS
 62
    7
370
    0
100
AcDbLine
 10
431.91348524662
 20
500.4642116099644
 11
431.8461581479921
 21
500.4082342134001
  0
LINE
  5
A9
100
AcDbEntity
  8
0
  6
CONTINUOUS
 62
    7
370
    0
100
AcDbLine
 10
431.8461581479921
 20
500.4082342134001
 11
431.7827244724401
 21
500.3474716447142
  0
LINE
  5
AA
100
AcDbEntity
  8
0
  6
CONTINUOUS
 62
    7
370
    0
100
AcDbLine
 10
431.7827244724401
 20
500.3474716447142
 11
431.7237362355763
 21
500.2824758811062
  0
LINE
  5
AB
100
AcDbEntity
  8
0
  6
CONTINUOUS
 62
    7
370
    0
100
AcDbLine
 10
431.7237362355763
 20
500.2824758811062
 11
431.6697454530133
 21
500.2137988997762
  0
LINE
  5
AC
100
AcDbEntity
  8
0
  6
CONTINUOUS
 62
    7
370
    0
100
AcDbLine
 10
431.6697454530133
 20
500.2137988997762
 11
431.6213041403634
 21
500.141992677924
  0
LINE
  5
AD
100
AcDbEntity
  8
0
  6
CONTINUOUS
 62
    7
370
    0
100
AcDbLine
 10
431.6213041403634
 20
500.141992677924
 11
431.5789643132393
 21
500.0676091927491
  0
LINE
  5
AE
100
AcDbEntity
  8
0
  6
CONTINUOUS
 62
    7
370
    0
100
AcDbLine
 10
431.5789643132393
 20
500.0676091927491
 11
431.5432718105791
 21
499.9912028712833
  0
LINE
  5
AF
100
AcDbEntity
  8
0
  6
CONTINUOUS
 62
    7
370
    0
100
AcDbLine
 10
431.5432718105791
 20
499.9912028712833
 11
431.5143230217587
 21
499.9135064040933
  0
LINE
  5
B0
100
AcDbEntity
  8
0
  6
CONTINUOUS
 62
    7
370
    0
100
AcDbLine
 10
431.5143230217587
 20
499.9135064040933
 11
431.491468116696
 21
499.8355484520396
  0
LINE
  5
B1
100
AcDbEntity
  8
0
  6
CONTINUOUS
 62
    7
370
    0
100
AcDbLine
 10
431.491468116696
 20
499.8355484520396
 11
431.4739869091287
 21
499.7583855810965
  0
LINE
  5
B2
100
AcDbEntity
  8
0
  6
CONTINUOUS
 62
    7
370
    0
100
AcDbLine
 10
431.4739869091287
 20
499.7583855810965
 11
431.4611592127945
 21
499.6830743572388
  0
LINE
  5
B3
100
AcDbEntity
  8
0
  6
CONTINUOUS
 62
    7
370
    0
100
AcDbLine
 10
431.4611592127945
 20
499.6830743572388
 11
431.4522648414311
 21
499.6106713464407
  0
LINE
  5
B4
100
AcDbEntity
  8
0
  6
CONTINUOUS
 62
    7
370
    0
100
AcDbLine
 10
431.4522648414311
 20
499.6106713464407
 11
431.4465836087764
 21
499.5422331146769
  0
LINE
  5
B5
100
AcDbEntity
  8
0
  6
CONTINUOUS
 62
    7
370
    0
100
AcDbLine
 10
431.4465836087764
 20
499.5422331146769
 11
431.443395328568
 21
499.478816227922
  0
LINE
  5
B6
100
AcDbEntity
  8
0
  6
CONTINUOUS
 62
    7
370
    0
100
AcDbLine
 10
431.443395328568
 20
499.478816227922
 11
431.4419798145437
 21
499.4214772521505
  0
LINE
  5
B7
100
AcDbEntity
  8
0
  6
CONTINUOUS
 62
    7
370
    0
100
AcDbLine
 10
431.4419798145437
 20
499.4214772521505
 11
431.441616880441
 21
499.3712727533368
  0
LINE
  5
B8
100
AcDbEntity
  8
0
  6
CONTINUOUS
 62
    7
370
    0
100
AcDbLine
 10
431.441616880441
 20
499.3712727533368
 11
431.4416050794828
 21
499.3291855732456
  0
LINE
  5
B9
100
AcDbEntity
  8
0
  6
CONTINUOUS
 62
    7
370
    0
100
AcDbLine
 10
431.4416050794828
 20
499.3291855732456
 11
431.4416050794828
 21
499.2947739353758
  0
LINE
  5
BA
100
AcDbEntity
  8
0
  6
CONTINUOUS
 62
    7
370
    0
100
AcDbLine
 10
431.4416050794828
 20
499.2947739353758
 11
431.4416050794827
 21
499.2663075015944
  0
LINE
  5
BB
100
AcDbEntity
  8
0
  6
CONTINUOUS
 62
    7
370
    0
100
AcDbLine
 10
431.4416050794827
 20
499.2663075015944
 11
431.4416050794827
 21
499.2420095068603
  0
LINE
  5
BC
100
AcDbEntity
  8
0
  6
CONTINUOUS
 62
    7
370
    0
100
AcDbLine
 10
431.4416050794827
 20
499.2420095068603
 11
431.4416050794827
 21
499.2201031861326
  0
LINE
  5
BD
100
AcDbEntity
  8
0
  6
CONTINUOUS
 62
    7
370
    0
100
AcDbLine
 10
431.4416050794827
 20
499.2201031861326
 11
431.4416050794827
 21
499.19881177437
  0
LINE
  5
BE
100
AcDbEntity
  8
0
  6
CONTINUOUS
 62
    7
370
    0
100
AcDbLine
 10
431.4416050794827
 20
499.19881177437
 11
431.4416050794827
 21
499.1763585065318
  0
LINE
  5
BF
100
AcDbEntity
  8
0
  6
CONTINUOUS
 62
    7
370
    0
100
AcDbLine
 10
431.4416050794827
 20
499.1763585065318
 11
431.4416050794828
 21
499.1509666175768
  0
LINE
  5
C0
100
AcDbEntity
  8
0
  6
CONTINUOUS
 62
    7
370
    0
100
AcDbLine
 10
431.4416050794828
 20
499.1509666175768
 11
431.4416050794828
 21
499.1208593424639
  0
LINE
  5
C1
100
AcDbEntity
  8
0
  6
CONTINUOUS
 62
    7
370
    0
100
AcDbLine
 10
431.4416050794828
 20
499.1208593424639
 11
431.4416050794827
 21
499.0842599161521
  0
LINE
  5
C2
100
AcDbEntity
  8
0
  6
CONTINUOUS
 62
    7
370
    0
100
AcDbLine
 10
431.4416050794827
 20
499.0842599161521
 11
431.441659713549
 21
499.0396065168741
  0
LINE
  5
C3
100
AcDbEntity
  8
0
  6
CONTINUOUS
 62
    7
370
    0
100
AcDbLine
 10
431.441659713549
 20
499.0396065168741
 11
431.4422698121676
 21
498.9870927645777
  0
LINE
  5
C4
100
AcDbEntity
  8
0
  6
CONTINUOUS
 62
    7
370
    0
100
AcDbLine
 10
431.4422698121676
 20
498.9870927645777
 11
431.4441540864811
 21
498.9277694729861
  0
LINE
  5
C5
100
AcDbEntity
  8
0
  6
CONTINUOUS
 62
    7
370
    0
100
AcDbLine
 10
431.4441540864811
 20
498.9277694729861
 11
431.4480327227515
 21
498.8626932592906
  0
LINE
  5
C6
100
AcDbEntity
  8
0
  6
CONTINUOUS
 62
    7
370
    0
100
AcDbLine
 10
431.4480327227515
 20
498.8626932592906
 11
431.4546259072414
 21
498.7929207406827
  0
LINE
  5
C7
100
AcDbEntity
  8
0
  6
CONTINUOUS
 62
    7
370
    0
100
AcDbLine
 10
431.4546259072414
 20
498.7929207406827
 11
431.4646538262128
 21
498.7195085343538
  0
LINE
  5
C8
100
AcDbEntity
  8
0
  6
CONTINUOUS
 62
    7
370
    0
100
AcDbLine
 10
431.4646538262128
 20
498.7195085343538
 11
431.478836665928
 21
498.6435132574952
  0
LINE
  5
C9
100
AcDbEntity
  8
0
  6
CONTINUOUS
 62
    7
370
    0
100
AcDbLine
 10
431.478836665928
 20
498.6435132574952
 11
431.4978946126495
 21
498.5659915272985
  0
LINE
  5
CA
100
AcDbEntity
  8
0
  6
CONTINUOUS
 62
    7
370
    0
100
AcDbLine
 10
431.4978946126495
 20
498.5659915272985
 11
431.5225478526392
 21
498.487999960955
  0
LINE
  5
CB
100
AcDbEntity
  8
0
  6
CONTINUOUS
 62
    7
370
    0
100
AcDbLine
 10
431.5225478526392
 20
498.487999960955
 11
431.5535165721598
 21
498.4105951756562
  0
LINE
  5
CC
100
AcDbEntity
  8
0
  6
CONTINUOUS
 62
    7
370
    9
100
AcDbLine
 10
434.2085165555788
 20
491.4347661974849
 11
434.2312540598173
 21
491.3891306688175
  0
LINE
  5
CD
100
AcDbEntity
  8
0
  6
CONTINUOUS
 62
    7
370
    0
100
AcDbLine
 10
434.2312540598173
 20
491.3891306688175
 11
434.2578924569177
 21
491.3448158473719
  0
LINE
  5
CE
100
AcDbEntity
  8
0
  6
CONTINUOUS
 62
    7
370
    0
100
AcDbLine
 10
434.2578924569177
 20
491.3448158473719
 11
434.2880996821905
 21
491.3021538746632
  0
LINE
  5
CF
100
AcDbEntity
  8
0
  6
CONTINUOUS
 62
    7
370
    0
100
AcDbLine
 10
434.2880996821905
 20
491.3021538746632
 11
434.321543670946
 21
491.2614768922061
  0
LINE
  5
D0
100
AcDbEntity
  8
0
  6
CONTINUOUS
 62
    7
370
    0
100
AcDbLine
 10
434.321543670946
 20
491.2614768922061
 11
434.3578923584948
 21
491.2231170415153
  0
LINE
  5
D1
100
AcDbEntity
  8
0
  6
CONTINUOUS
 62
    7
370
    0
100
AcDbLine
 10
434.3578923584948
 20
491.2231170415153
 11
434.3968136801476
 21
491.1874064641058
  0
LINE
  5
D2
100
AcDbEntity
  8
0
  6
CONTINUOUS
 62
    7
370
    0
100
AcDbLine
 10
434.3968136801476
 20
491.1874064641058
 11
434.4379755712148
 21
491.1546773014925
  0
LINE
  5
D3
100
AcDbEntity
  8
0
  6
CONTINUOUS
 62
    7
370
    0
100
AcDbLine
 10
434.4379755712148
 20
491.1546773014925
 11
434.4810459670068
 21
491.1252616951901
  0
LINE
  5
D4
100
AcDbEntity
  8
0
  6
CONTINUOUS
 62
    7
370
    0
100
AcDbLine
 10
434.4810459670068
 20
491.1252616951901
 11
434.525692802834
 21
491.0994917867134
  0
LINE
  5
D5
100
AcDbEntity
  8
0
  6
CONTINUOUS
 62
    7
370
    0
100
AcDbLine
 10
434.525692802834
 20
491.0994917867134
 11
434.5715844868658
 21
491.0776981496955
  0
LINE
  5
D6
100
AcDbEntity
  8
0
  6
CONTINUOUS
 62
    7
370
    0
100
AcDbLine
 10
434.5715844868658
 20
491.0776981496955
 11
434.618459270251
 21
491.0599797758026
  0
LINE
  5
D7
100
AcDbEntity
  8
0
  6
CONTINUOUS
 62
    7
370
    0
100
AcDbLine
 10
434.618459270251
 20
491.0599797758026
 11
434.6661984351354
 21
491.0459614014554
  0
LINE
  5
D8
100
AcDbEntity
  8
0
  6
CONTINUOUS
 62
    7
370
    0
100
AcDbLine
 10
434.6661984351354
 20
491.0459614014554
 11
434.7147007769494
 21
491.0352096933738
  0
LINE
  5
D9
100
AcDbEntity
  8
0
  6
CONTINUOUS
 62
    7
370
    0
100
AcDbLine
 10
434.7147007769494
 20
491.0352096933738
 11
434.7638650911235
 21
491.0272913182777
  0
LINE
  5
DA
100
AcDbEntity
  8
0
  6
CONTINUOUS
 62
    7
370
    0
100
AcDbLine
 10
434.7638650911235
 20
491.0272913182777
 11
434.8135901730881
 21
491.0217729428869
  0
LINE
  5
DB
100
AcDbEntity
  8
0
  6
CONTINUOUS
 62
    7
370
    0
100
AcDbLine
 10
434.8135901730881
 20
491.0217729428869
 11
434.8637748182738
 21
491.0182212339213
  0
LINE
  5
DC
100
AcDbEntity
  8
0
  6
CONTINUOUS
 62
    7
370
    0
100
AcDbLine
 10
434.8637748182738
 20
491.0182212339213
 11
434.9143178221111
 21
491.0162028581007
  0
LINE
  5
DD
100
AcDbEntity
  8
0
  6
CONTINUOUS
 62
    7
370
    0
100
AcDbLine
 10
434.9143178221111
 20
491.0162028581007
 11
434.9651179800304
 21
491.0152844821451
  0
LINE
  5
DE
100
AcDbEntity
  8
0
  6
CONTINUOUS
 62
    7
370
    0
100
AcDbLine
 10
434.9651179800304
 20
491.0152844821451
 11
435.0160740874622
 21
491.0150327727743
  0
LINE
  5
DF
100
AcDbEntity
  8
0
  6
CONTINUOUS
 62
    7
370
    0
100
AcDbLine
 10
435.0160740874622
 20
491.0150327727743
 11
435.0670849389977
 21
491.0150285978899
  0
LINE
  5
E0
100
AcDbEntity
  8
0
  6
CONTINUOUS
 62
    7
370
    0
100
AcDbLine
 10
435.0670849389977
 20
491.0150285978899
 11
435.1180493059354
 21
491.0152469739314
  0
LINE
  5
E1
100
AcDbEntity
  8
0
  6
CONTINUOUS
 62
    7
370
    0
100
AcDbLine
 10
435.1180493059354
 20
491.0152469739314
 11
435.1688659338218
 21
491.0160986832286
  0
LINE
  5
E2
100
AcDbEntity
  8
0
  6
CONTINUOUS
 62
    7
370
    0
100
AcDbLine
 10
435.1688659338218
 20
491.0160986832286
 11
435.2194335668702
 21
491.0180170590614
  0
LINE
  5
E3
100
AcDbEntity
  8
0
  6
CONTINUOUS
 62
    7
370
    0
100
AcDbLine
 10
435.2194335668702
 20
491.0180170590614
 11
435.2696509492943
 21
491.02143543471
  0
LINE
  5
E4
100
AcDbEntity
  8
0
  6
CONTINUOUS
 62
    7
370
    0
100
AcDbLine
 10
435.2696509492943
 20
491.02143543471
 11
435.3194168253077
 21
491.0267871434547
  0
LINE
  5
E5
100
AcDbEntity
  8
0
  6
CONTINUOUS
 62
    7
370
    0
100
AcDbLine
 10
435.3194168253077
 20
491.0267871434547
 11
435.368629939124
 21
491.0345055185754
  0
LINE
  5
E6
100
AcDbEntity
  8
0
  6
CONTINUOUS
 62
    7
370
    0
100
AcDbLine
 10
435.368629939124
 20
491.0345055185754
 11
435.4171890349569
 21
491.0450238933522
  0
LINE
  5
E7
100
AcDbEntity
  8
0
  6
CONTINUOUS
 62
    7
370
    0
100
AcDbLine
 10
435.4171890349569
 20
491.0450238933522
 11
435.4649928570198
 21
491.0587756010655
  0
LINE
  5
E8
100
AcDbEntity
  8
0
  6
CONTINUOUS
 62
    7
370
    0
100
AcDbLine
 10
435.4649928570198
 20
491.0587756010655
 11
435.5119401495264
 21
491.0761939749952
  0
LINE
  5
E9
100
AcDbEntity
  8
0
  6
CONTINUOUS
 62
    7
370
    0
100
AcDbLine
 10
435.5119401495264
 20
491.0761939749952
 11
435.5579168909219
 21
491.0976700156097
  0
LINE
  5
EA
100
AcDbEntity
  8
0
  6
CONTINUOUS
 62
    7
370
    0
100
AcDbLine
 10
435.5579168909219
 20
491.0976700156097
 11
435.6026736619544
 21
491.1231457284512
  0
LINE
  5
EB
100
AcDbEntity
  8
0
  6
CONTINUOUS
 62
    7
370
    0
100
AcDbLine
 10
435.6026736619544
 20
491.1231457284512
 11
435.645879493052
 21
491.1522926884658
  0
LINE
  5
EC
100
AcDbEntity
  8
0
  6
CONTINUOUS
 62
    7
370
    0
100
AcDbLine
 10
435.645879493052
 20
491.1522926884658
 11
435.6872022939164
 21
491.1847787541384
  0
LINE
  5
ED
100
AcDbEntity
  8
0
  6
CONTINUOUS
 62
    7
370
    0
100
AcDbLine
 10
435.6872022939164
 20
491.1847787541384
 11
435.7263099742499
 21
491.2202717839547
  0
LINE
  5
EE
100
AcDbEntity
  8
0
  6
CONTINUOUS
 62
    7
370
    0
100
AcDbLine
 10
435.7263099742499
 20
491.2202717839547
 11
435.7628704437546
 21
491.2584396363995
  0
LINE
  5
EF
100
AcDbEntity
  8
0
  6
CONTINUOUS
 62
    7
370
    0
100
AcDbLine
 10
435.7628704437546
 20
491.2584396363995
 11
435.7965516121324
 21
491.2989501699579
  0
LINE
  5
F0
100
AcDbEntity
  8
0
  6
CONTINUOUS
 62
    7
370
    0
100
AcDbLine
 10
435.7965516121324
 20
491.2989501699579
 11
435.8270213890854
 21
491.3414712431153
  0
LINE
  5
F1
100
AcDbEntity
  8
0
  6
CONTINUOUS
 62
    7
370
    0
100
AcDbLine
 10
435.8270213890854
 20
491.3414712431153
 11
435.8539476843158
 21
491.3856707143568
  0
LINE
  5
F2
100
AcDbEntity
  8
0
  6
CONTINUOUS
 62
    7
370
    0
100
AcDbLine
 10
435.8539476843158
 20
491.3856707143568
 11
435.8769984075254
 21
491.4312164421674
  0
LINE
  5
F3
100
AcDbEntity
  8
0
  6
CONTINUOUS
 62
    7
370
    0
100
AcDbLine
 10
435.8769984075254
 20
491.4312164421674
 11
435.8959418044669
 21
491.4778065614164
  0
LINE
  5
F4
100
AcDbEntity
  8
0
  6
CONTINUOUS
 62
    7
370
    0
100
AcDbLine
 10
435.8959418044669
 20
491.4778065614164
 11
435.9110520398787
 21
491.5252918679295
  0
LINE
  5
F5
100
AcDbEntity
  8
0
  6
CONTINUOUS
 62
    7
370
    0
100
AcDbLine
 10
435.9110520398787
 20
491.5252918679295
 11
435.9227623761718
 21
491.5735711652245
  0
LINE
  5
F6
100
AcDbEntity
  8
0
  6
CONTINUOUS
 62
    7
370
    0
100
AcDbLine
 10
435.9227623761718
 20
491.5735711652245
 11
435.9315061338221
 21
491.6225432743403
  0
LINE
  5
F7
100
AcDbEntity
  8
0
  6
CONTINUOUS
 62
    7
370
    0
100
AcDbLine
 10
435.9315061338221
 20
491.6225432743403
 11
435.9377166333057
 21
491.672107016316
  0
LINE
  5
F8
100
AcDbEntity
  8
0
  6
CONTINUOUS
 62
    7
370
    0
100
AcDbLine
 10
435.9377166333057
 20
491.672107016316
 11
435.9418271950985
 21
491.7221612121905
  0
LINE
  5
F9
100
AcDbEntity
  8
0
  6
CONTINUOUS
 62
    7
370
    0
100
AcDbLine
 10
435.9418271950985
 20
491.7221612121905
 11
435.9442711396759
 21
491.7726046830025
  0
LINE
  5
FA
100
AcDbEntity
  8
0
  6
CONTINUOUS
 62
    7
370
    0
100
AcDbLine
 10
435.9442711396759
 20
491.7726046830025
 11
435.9454817875146
 21
491.8233362497913
  0
LINE
  5
FB
100
AcDbEntity
  8
0
  6
CONTINUOUS
 62
    7
370
    0
100
AcDbLine
 10
435.9454817875146
 20
491.8233362497913
 11
435.9458924590898
 21
491.8742547335955
  0
LINE
  5
FC
100
AcDbEntity
  8
0
  6
CONTINUOUS
 62
    7
370
    0
100
AcDbLine
 10
435.9458924590898
 20
491.8742547335955
 11
435.9459359489236
 21
491.9252589554154
  0
LINE
  5
FD
100
AcDbEntity
  8
0
  6
CONTINUOUS
 62
    7
370
    0
100
AcDbLine
 10
435.9459359489236
 20
491.9252589554154
 11
435.945825268447
 21
491.9762477200151
  0
LINE
  5
FE
100
AcDbEntity
  8
0
  6
CONTINUOUS
 62
    7
370
    0
100
AcDbLine
 10
435.945825268447
 20
491.9762477200151
 11
435.9452146028059
 21
492.0271197908764
  0
LINE
  5
FF
100
AcDbEntity
  8
0
  6
CONTINUOUS
 62
    7
370
    0
100
AcDbLine
 10
435.9452146028059
 20
492.0271197908764
 11
435.9436706315245
 21
492.0777739250175
  0
LINE
  5
100
100
AcDbEntity
  8
0
  6
CONTINUOUS
 62
    7
370
    0
100
AcDbLine
 10
435.9436706315245
 20
492.0777739250175
 11
435.9407600341265
 21
492.128108879456
  0
LINE
  5
101
100
AcDbEntity
  8
0
  6
CONTINUOUS
 62
    7
370
    0
100
AcDbLine
 10
435.9407600341265
 20
492.128108879456
 11
435.9360494901366
 21
492.1780234112098
  0
LINE
  5
102
100
AcDbEntity
  8
0
  6
CONTINUOUS
 62
    7
370
    0
100
AcDbLine
 10
435.9360494901366
 20
492.1780234112098
 11
435.9291056790784
 21
492.2274162772967
  0
LINE
  5
103
100
AcDbEntity
  8
0
  6
CONTINUOUS
 62
    7
370
    0
100
AcDbLine
 10
435.9291056790784
 20
492.2274162772967
 11
435.9194952804762
 21
492.2761862347344
  0
LINE
  5
104
100
AcDbEntity
  8
0
  6
CONTINUOUS
 62
    7
370
    0
100
AcDbLine
 10
435.9194952804762
 20
492.2761862347344
 11
435.906784973854
 21
492.3242320405408
  0
LINE
  5
105
100
AcDbEntity
  8
0
  6
CONTINUOUS
 62
    7
370
    0
100
AcDbLine
 10
435.906784973854
 20
492.3242320405408
 11
435.8905414387361
 21
492.3714524517339
  0
LINE
  5
106
100
AcDbEntity
  8
0
  6
CONTINUOUS
 62
    7
370
    0
100
AcDbLine
 10
435.8905414387361
 20
492.3714524517339
 11
435.8703386127518
 21
492.4177440364135
  0
LINE
  5
107
100
AcDbEntity
  8
0
  6
CONTINUOUS
 62
    7
370
    0
100
AcDbLine
 10
435.8703386127518
 20
492.4177440364135
 11
435.8460600352793
 21
492.4629099922037
  0
LINE
  5
108
100
AcDbEntity
  8
0
  6
CONTINUOUS
 62
    7
370
    0
100
AcDbLine
 10
435.8460600352793
 20
492.4629099922037
 11
435.8180080674161
 21
492.5066272074177
  0
LINE
  5
109
100
AcDbEntity
  8
0
  6
CONTINUOUS
 62
    7
370
    0
100
AcDbLine
 10
435.8180080674161
 20
492.5066272074177
 11
435.7865147994605
 21
492.5485636045623
  0
LINE
  5
10A
100
AcDbEntity
  8
0
  6
CONTINUOUS
 62
    7
370
    0
100
AcDbLine
 10
435.7865147994605
 20
492.5485636045623
 11
435.7519123217101
 21
492.5883871061432
  0
LINE
  5
10B
100
AcDbEntity
  8
0
  6
CONTINUOUS
 62
    7
370
    0
100
AcDbLine
 10
435.7519123217101
 20
492.5883871061432
 11
435.714532724463
 21
492.6257656346671
  0
LINE
  5
10C
100
AcDbEntity
  8
0
  6
CONTINUOUS
 62
    7
370
    0
100
AcDbLine
 10
435.714532724463
 20
492.6257656346671
 11
435.6747080980172
 21
492.6603671126401
  0
LINE
  5
10D
100
AcDbEntity
  8
0
  6
CONTINUOUS
 62
    7
370
    0
100
AcDbLine
 10
435.6747080980172
 20
492.6603671126401
 11
435.6327705326706
 21
492.6918594625685
  0
LINE
  5
10E
100
AcDbEntity
  8
0
  6
CONTINUOUS
 62
    7
370
    0
100
AcDbLine
 10
435.6327705326706
 20
492.6918594625685
 11
435.5890521187212
 21
492.7199106069585
  0
LINE
  5
10F
100
AcDbEntity
  8
0
  6
CONTINUOUS
 62
    7
370
    0
100
AcDbLine
 10
435.5890521187212
 20
492.7199106069585
 11
435.5438849464668
 21
492.7441884683165
  0
LINE
  5
110
100
AcDbEntity
  8
0
  6
CONTINUOUS
 62
    7
370
    0
100
AcDbLine
 10
435.5438849464668
 20
492.7441884683165
 11
435.4975921403984
 21
492.7643906973541
  0
LINE
  5
111
100
AcDbEntity
  8
0
  6
CONTINUOUS
 62
    7
370
    0
100
AcDbLine
 10
435.4975921403984
 20
492.7643906973541
 11
435.450370515696
 21
492.7806337524906
  0
LINE
  5
112
100
AcDbEntity
  8
0
  6
CONTINUOUS
 62
    7
370
    0
100
AcDbLine
 10
435.450370515696
 20
492.7806337524906
 11
435.4023235170638
 21
492.7933436835349
  0
LINE
  5
113
100
AcDbEntity
  8
0
  6
CONTINUOUS
 62
    7
370
    0
100
AcDbLine
 10
435.4023235170638
 20
492.7933436835349
 11
435.3535524002884
 21
492.8029537981586
  0
LINE
  5
114
100
AcDbEntity
  8
0
  6
CONTINUOUS
 62
    7
370
    0
100
AcDbLine
 10
435.3535524002884
 20
492.8029537981586
 11
435.304158421156
 21
492.8098974040334
  0
LINE
  5
115
100
AcDbEntity
  8
0
  6
CONTINUOUS
 62
    7
370
    0
100
AcDbLine
 10
435.304158421156
 20
492.8098974040334
 11
435.2542428354532
 21
492.8146078088313
  0
LINE
  5
116
100
AcDbEntity
  8
0
  6
CONTINUOUS
 62
    7
370
    0
100
AcDbLine
 10
435.2542428354532
 20
492.8146078088313
 11
435.2039068989663
 21
492.8175183202238
  0
LINE
  5
117
100
AcDbEntity
  8
0
  6
CONTINUOUS
 62
    7
370
    0
100
AcDbLine
 10
435.2039068989663
 20
492.8175183202238
 11
435.1532518674816
 21
492.8190622458823
  0
LINE
  5
118
100
AcDbEntity
  8
0
  6
CONTINUOUS
 62
    7
370
    0
100
AcDbLine
 10
435.1532518674816
 20
492.8190622458823
 11
435.1023789967857
 21
492.8196728934788
  0
LINE
  5
119
100
AcDbEntity
  8
0
  6
CONTINUOUS
 62
    7
370
    0
100
AcDbLine
 10
435.1023789967857
 20
492.8196728934788
 11
435.0513895426648
 21
492.8197835706849
  0
LINE
  5
11A
100
AcDbEntity
  8
0
  6
CONTINUOUS
 62
    7
370
    0
100
AcDbLine
 10
435.0513895426648
 20
492.8197835706849
 11
435.000384755734
 21
492.8197400821361
  0
LINE
  5
11B
100
AcDbEntity
  8
0
  6
CONTINUOUS
 62
    7
370
    0
100
AcDbLine
 10
435.000384755734
 20
492.8197400821361
 11
434.9494658535828
 21
492.8193294226958
  0
LINE
  5
11C
100
AcDbEntity
  8
0
  6
CONTINUOUS
 62
    7
370
    0
100
AcDbLine
 10
434.9494658535828
 20
492.8193294226958
 11
434.8987340408115
 21
492.8181188106308
  0
LINE
  5
11D
100
AcDbEntity
  8
0
  6
CONTINUOUS
 62
    7
370
    0
100
AcDbLine
 10
434.8987340408115
 20
492.8181188106308
 11
434.8482905219898
 21
492.8156749382695
  0
LINE
  5
11E
100
AcDbEntity
  8
0
  6
CONTINUOUS
 62
    7
370
    0
100
AcDbLine
 10
434.8482905219898
 20
492.8156749382695
 11
434.7982365016871
 21
492.8115644979401
  0
LINE
  5
11F
100
AcDbEntity
  8
0
  6
CONTINUOUS
 62
    7
370
    0
100
AcDbLine
 10
434.7982365016871
 20
492.8115644979401
 11
434.7486731844731
 21
492.8053541819711
  0
LINE
  5
120
100
AcDbEntity
  8
0
  6
CONTINUOUS
 62
    7
370
    0
100
AcDbLine
 10
434.7486731844731
 20
492.8053541819711
 11
434.6997017749173
 21
492.7966106826908
  0
LINE
  5
121
100
AcDbEntity
  8
0
  6
CONTINUOUS
 62
    7
370
    0
100
AcDbLine
 10
434.6997017749173
 20
492.7966106826908
 11
434.6514234775891
 21
492.7849006924273
  0
LINE
  5
122
100
AcDbEntity
  8
0
  6
CONTINUOUS
 62
    7
370
    0
100
AcDbLine
 10
434.6514234775891
 20
492.7849006924273
 11
434.6039394970579
 21
492.7697909035091
  0
LINE
  5
123
100
AcDbEntity
  8
0
  6
CONTINUOUS
 62
    7
370
    0
100
AcDbLine
 10
434.6039394970579
 20
492.7697909035091
 11
434.5573510554069
 21
492.7508480663275
  0
LINE
  5
124
100
AcDbEntity
  8
0
  6
CONTINUOUS
 62
    7
370
    0
100
AcDbLine
 10
434.5573510554069
 20
492.7508480663275
 11
434.5118073611187
 21
492.727798023623
  0
LINE
  5
125
100
AcDbEntity
  8
0
  6
CONTINUOUS
 62
    7
370
    0
100
AcDbLine
 10
434.5118073611187
 20
492.727798023623
 11
434.4676102159271
 21
492.7008725201961
  0
LINE
  5
126
100
AcDbEntity
  8
0
  6
CONTINUOUS
 62
    7
370
    0
100
AcDbLine
 10
434.4676102159271
 20
492.7008725201961
 11
434.4250916845214
 21
492.6704036335407
  0
LINE
  5
127
100
AcDbEntity
  8
0
  6
CONTINUOUS
 62
    7
370
    0
100
AcDbLine
 10
434.4250916845214
 20
492.6704036335407
 11
434.3845838315912
 21
492.6367234411501
  0
LINE
  5
128
100
AcDbEntity
  8
0
  6
CONTINUOUS
 62
    7
370
    0
100
AcDbLine
 10
434.3845838315912
 20
492.6367234411501
 11
434.346418721826
 21
492.6001640205183
  0
LINE
  5
129
100
AcDbEntity
  8
0
  6
CONTINUOUS
 62
    7
370
    0
100
AcDbLine
 10
434.346418721826
 20
492.6001640205183
 11
434.3109284199151
 21
492.561057449139
  0
LINE
  5
12A
100
AcDbEntity
  8
0
  6
CONTINUOUS
 62
    7
370
    0
100
AcDbLine
 10
434.3109284199151
 20
492.561057449139
 11
434.2784449905482
 21
492.5197358045058
  0
LINE
  5
12B
100
AcDbEntity
  8
0
  6
CONTINUOUS
 62
    7
370
    0
100
AcDbLine
 10
434.2784449905482
 20
492.5197358045058
 11
434.2493004984149
 21
492.4765311641125
  0
LINE
  5
12C
100
AcDbEntity
  8
0
  6
CONTINUOUS
 62
    7
370
    0
100
AcDbLine
 10
434.2493004984149
 20
492.4765311641125
 11
434.2238270082045
 21
492.4317756054529
  0
LINE
  5
12D
100
AcDbEntity
  8
0
  6
CONTINUOUS
 62
    7
370
    0
100
AcDbLine
 10
434.2238270082045
 20
492.4317756054529
 11
434.2023528687052
 21
492.3858026804702
  0
LINE
  5
12E
100
AcDbEntity
  8
0
  6
CONTINUOUS
 62
    7
370
    0
100
AcDbLine
 10
434.2023528687052
 20
492.3858026804702
 11
434.1849360388207
 21
492.3390532303519
  0
LINE
  5
12F
100
AcDbEntity
  8
0
  6
CONTINUOUS
 62
    7
370
    0
100
AcDbLine
 10
434.1849360388207
 20
492.3390532303519
 11
434.1711855501225
 21
492.2921462282234
  0
LINE
  5
130
100
AcDbEntity
  8
0
  6
CONTINUOUS
 62
    7
370
    0
100
AcDbLine
 10
434.1711855501225
 20
492.2921462282234
 11
434.1606681077429
 21
492.2457174421126
  0
LINE
  5
131
100
AcDbEntity
  8
0
  6
CONTINUOUS
 62
    7
370
    0
100
AcDbLine
 10
434.1606681077429
 20
492.2457174421126
 11
434.1529504168147
 21
492.2004026400465
  0
LINE
  5
132
100
AcDbEntity
  8
0
  6
CONTINUOUS
 62
    7
370
    0
100
AcDbLine
 10
434.1529504168147
 20
492.2004026400465
 11
434.1475991824703
 21
492.1568375900534
  0
LINE
  5
133
100
AcDbEntity
  8
0
  6
CONTINUOUS
 62
    7
370
    0
100
AcDbLine
 10
434.1475991824703
 20
492.1568375900534
 11
434.1441811098423
 21
492.1156580601605
  0
LINE
  5
134
100
AcDbEntity
  8
0
  6
CONTINUOUS
 62
    7
370
    0
100
AcDbLine
 10
434.1441811098423
 20
492.1156580601605
 11
434.1422629040632
 21
492.0774998183953
  0
LINE
  5
135
100
AcDbEntity
  8
0
  6
CONTINUOUS
 62
    7
370
    0
100
AcDbLine
 10
434.1422629040632
 20
492.0774998183953
 11
434.1414112702655
 21
492.0429986327858
  0
LINE
  5
136
100
AcDbEntity
  8
0
  6
CONTINUOUS
 62
    7
370
    0
100
AcDbLine
 10
434.1414112702655
 20
492.0429986327858
 11
434.1411929135817
 21
492.0127902713593
  0
LINE
  5
137
100
AcDbEntity
  8
0
  6
CONTINUOUS
 62
    7
370
    0
100
AcDbLine
 10
434.1411929135817
 20
492.0127902713593
 11
434.1411858136204
 21
491.9874661418791
  0
LINE
  5
138
100
AcDbEntity
  8
0
  6
CONTINUOUS
 62
    7
370
    0
100
AcDbLine
 10
434.1411858136204
 20
491.9874661418791
 11
434.1411858136203
 21
491.9667604514287
  0
LINE
  5
139
100
AcDbEntity
  8
0
  6
CONTINUOUS
 62
    7
370
    0
100
AcDbLine
 10
434.1411858136203
 20
491.9667604514287
 11
434.1411858136203
 21
491.9496320724403
  0
LINE
  5
13A
100
AcDbEntity
  8
0
  6
CONTINUOUS
 62
    7
370
    0
100
AcDbLine
 10
434.1411858136203
 20
491.9496320724403
 11
434.1411858136204
 21
491.9350119420185
  0
LINE
  5
13B
100
AcDbEntity
  8
0
  6
CONTINUOUS
 62
    7
370
    0
100
AcDbLine
 10
434.1411858136204
 20
491.9350119420185
 11
434.1411858136203
 21
491.9218309972684
  0
LINE
  5
13C
100
AcDbEntity
  8
0
  6
CONTINUOUS
 62
    7
370
    0
100
AcDbLine
 10
434.1411858136203
 20
491.9218309972684
 11
434.1411858136203
 21
491.9090201752949
  0
LINE
  5
13D
100
AcDbEntity
  8
0
  6
CONTINUOUS
 62
    7
370
    0
100
AcDbLine
 10
434.1411858136203
 20
491.9090201752949
 11
434.1411858136203
 21
491.8955104132031
  0
LINE
  5
13E
100
AcDbEntity
  8
0
  6
CONTINUOUS
 62
    7
370
    0
100
AcDbLine
 10
434.1411858136203
 20
491.8955104132031
 11
434.1411858136203
 21
491.8802326480977
  0
LINE
  5
13F
100
AcDbEntity
  8
0
  6
CONTINUOUS
 62
    7
370
    0
100
AcDbLine
 10
434.1411858136203
 20
491.8802326480977
 11
434.1411858136204
 21
491.8621178170837
  0
LINE
  5
140
100
AcDbEntity
  8
0
  6
CONTINUOUS
 62
    7
370
    0
100
AcDbLine
 10
434.1411858136204
 20
491.8621178170837
 11
434.1411858136203
 21
491.840096857266
  0
LINE
  5
141
100
AcDbEntity
  8
0
  6
CONTINUOUS
 62
    7
370
    0
100
AcDbLine
 10
434.1411858136203
 20
491.840096857266
 11
434.141218683812
 21
491.8132300320814
  0
LINE
  5
142
100
AcDbEntity
  8
0
  6
CONTINUOUS
 62
    7
370
    0
100
AcDbLine
 10
434.141218683812
 20
491.8132300320814
 11
434.1415857452432
 21
491.7816338131184
  0
LINE
  5
143
100
AcDbEntity
  8
0
  6
CONTINUOUS
 62
    7
370
    0
100
AcDbLine
 10
434.1415857452432
 20
491.7816338131184
 11
434.1427194052858
 21
491.7459404253769
  0
LINE
  5
144
100
AcDbEntity
  8
0
  6
CONTINUOUS
 62
    7
370
    0
100
AcDbLine
 10
434.1427194052858
 20
491.7459404253769
 11
434.1450529588078
 21
491.7067855856674
  0
LINE
  5
145
100
AcDbEntity
  8
0
  6
CONTINUOUS
 62
    7
370
    0
100
AcDbLine
 10
434.1450529588078
 20
491.7067855856674
 11
434.1490197006763
 21
491.6648050108008
  0
LINE
  5
146
100
AcDbEntity
  8
0
  6
CONTINUOUS
 62
    7
370
    0
100
AcDbLine
 10
434.1490197006763
 20
491.6648050108008
 11
434.1550529257589
 21
491.6206344175878
  0
LINE
  5
147
100
AcDbEntity
  8
0
  6
CONTINUOUS
 62
    7
370
    0
100
AcDbLine
 10
434.1550529257589
 20
491.6206344175878
 11
434.1635859289229
 21
491.5749095228388
  0
LINE
  5
148
100
AcDbEntity
  8
0
  6
CONTINUOUS
 62
    7
370
    0
100
AcDbLine
 10
434.1635859289229
 20
491.5749095228388
 11
434.1750520050359
 21
491.528266043365
  0
LINE
  5
149
100
AcDbEntity
  8
0
  6
CONTINUOUS
 62
    7
370
    0
100
AcDbLine
 10
434.1750520050359
 20
491.528266043365
 11
434.1898844489654
 21
491.4813396959768
  0
LINE
  5
14A
100
AcDbEntity
  8
0
  6
CONTINUOUS
 62
    7
370
    0
100
AcDbLine
 10
434.1898844489654
 20
491.4813396959768
 11
434.2085165555788
 21
491.4347661974849
  0
LINE
  5
14B
100
AcDbEntity
  8
0
  6
CONTINUOUS
 62
    7
370
    9
100
AcDbLine
 10
434.2085165555788
 20
485.9187548529169
 11
434.2312540598173
 21
485.8731193242495
  0
LINE
  5
14C
100
AcDbEntity
  8
0
  6
CONTINUOUS
 62
    7
370
    0
100
AcDbLine
 10
434.2312540598173
 20
485.8731193242495
 11
434.2578924569177
 21
485.828804502804
  0
LINE
  5
14D
100
AcDbEntity
  8
0
  6
CONTINUOUS
 62
    7
370
    0
100
AcDbLine
 10
434.2578924569177
 20
485.828804502804
 11
434.2880996821905
 21
485.7861425300952
  0
LINE
  5
14E
100
AcDbEntity
  8
0
  6
CONTINUOUS
 62
    7
370
    0
100
AcDbLine
 10
434.2880996821905
 20
485.7861425300952
 11
434.321543670946
 21
485.7454655476379
  0
LINE
  5
14F
100
AcDbEntity
  8
0
  6
CONTINUOUS
 62
    7
370
    0
100
AcDbLine
 10
434.321543670946
 20
485.7454655476379
 11
434.3578923584948
 21
485.7071056969472
  0
LINE
  5
150
100
AcDbEntity
  8
0
  6
CONTINUOUS
 62
    7
370
    0
100
AcDbLine
 10
434.3578923584948
 20
485.7071056969472
 11
434.3968136801476
 21
485.6713951195377
  0
LINE
  5
151
100
AcDbEntity
  8
0
  6
CONTINUOUS
 62
    7
370
    0
100
AcDbLine
 10
434.3968136801476
 20
485.6713951195377
 11
434.4379755712148
 21
485.6386659569244
  0
LINE
  5
152
100
AcDbEntity
  8
0
  6
CONTINUOUS
 62
    7
370
    0
100
AcDbLine
 10
434.4379755712148
 20
485.6386659569244
 11
434.4810459670068
 21
485.6092503506219
  0
LINE
  5
153
100
AcDbEntity
  8
0
  6
CONTINUOUS
 62
    7
370
    0
100
AcDbLine
 10
434.4810459670068
 20
485.6092503506219
 11
434.525692802834
 21
485.5834804421452
  0
LINE
  5
154
100
AcDbEntity
  8
0
  6
CONTINUOUS
 62
    7
370
    0
100
AcDbLine
 10
434.525692802834
 20
485.5834804421452
 11
434.5715844868658
 21
485.5616868051272
  0
LINE
  5
155
100
AcDbEntity
  8
0
  6
CONTINUOUS
 62
    7
370
    0
100
AcDbLine
 10
434.5715844868658
 20
485.5616868051272
 11
434.618459270251
 21
485.5439684312344
  0
LINE
  5
156
100
AcDbEntity
  8
0
  6
CONTINUOUS
 62
    7
370
    0
100
AcDbLine
 10
434.618459270251
 20
485.5439684312344
 11
434.6661984351354
 21
485.5299500568873
  0
LINE
  5
157
100
AcDbEntity
  8
0
  6
CONTINUOUS
 62
    7
370
    0
100
AcDbLine
 10
434.6661984351354
 20
485.5299500568873
 11
434.7147007769494
 21
485.5191983488057
  0
LINE
  5
158
100
AcDbEntity
  8
0
  6
CONTINUOUS
 62
    7
370
    0
100
AcDbLine
 10
434.7147007769494
 20
485.5191983488057
 11
434.7638650911235
 21
485.5112799737095
  0
LINE
  5
159
100
AcDbEntity
  8
0
  6
CONTINUOUS
 62
    7
370
    0
100
AcDbLine
 10
434.7638650911235
 20
485.5112799737095
 11
434.8135901730881
 21
485.5057615983188
  0
LINE
  5
15A
100
AcDbEntity
  8
0
  6
CONTINUOUS
 62
    7
370
    0
100
AcDbLine
 10
434.8135901730881
 20
485.5057615983188
 11
434.8637748182738
 21
485.5022098893531
  0
LINE
  5
15B
100
AcDbEntity
  8
0
  6
CONTINUOUS
 62
    7
370
    0
100
AcDbLine
 10
434.8637748182738
 20
485.5022098893531
 11
434.9143178221111
 21
485.5001915135326
  0
LINE
  5
15C
100
AcDbEntity
  8
0
  6
CONTINUOUS
 62
    7
370
    0
100
AcDbLine
 10
434.9143178221111
 20
485.5001915135326
 11
434.9651179800304
 21
485.4992731375769
  0
LINE
  5
15D
100
AcDbEntity
  8
0
  6
CONTINUOUS
 62
    7
370
    0
100
AcDbLine
 10
434.9651179800304
 20
485.4992731375769
 11
435.0160740874622
 21
485.4990214282062
  0
LINE
  5
15E
100
AcDbEntity
  8
0
  6
CONTINUOUS
 62
    7
370
    0
100
AcDbLine
 10
435.0160740874622
 20
485.4990214282062
 11
435.0670849389977
 21
485.4990172533218
  0
LINE
  5
15F
100
AcDbEntity
  8
0
  6
CONTINUOUS
 62
    7
370
    0
100
AcDbLine
 10
435.0670849389977
 20
485.4990172533218
 11
435.1180493059354
 21
485.4992356293633
  0
LINE
  5
160
100
AcDbEntity
  8
0
  6
CONTINUOUS
 62
    7
370
    0
100
AcDbLine
 10
435.1180493059354
 20
485.4992356293633
 11
435.1688659338218
 21
485.5000873386604
  0
LINE
  5
161
100
AcDbEntity
  8
0
  6
CONTINUOUS
 62
    7
370
    0
100
AcDbLine
 10
435.1688659338218
 20
485.5000873386604
 11
435.2194335668702
 21
485.5020057144932
  0
LINE
  5
162
100
AcDbEntity
  8
0
  6
CONTINUOUS
 62
    7
370
    0
100
AcDbLine
 10
435.2194335668702
 20
485.5020057144932
 11
435.2696509492943
 21
485.5054240901419
  0
LINE
  5
163
100
AcDbEntity
  8
0
  6
CONTINUOUS
 62
    7
370
    0
100
AcDbLine
 10
435.2696509492943
 20
485.5054240901419
 11
435.3194168253077
 21
485.5107757988865
  0
LINE
  5
164
100
AcDbEntity
  8
0
  6
CONTINUOUS
 62
    7
370
    0
100
AcDbLine
 10
435.3194168253077
 20
485.5107757988865
 11
435.368629939124
 21
485.5184941740072
  0
LINE
  5
165
100
AcDbEntity
  8
0
  6
CONTINUOUS
 62
    7
370
    0
100
AcDbLine
 10
435.368629939124
 20
485.5184941740072
 11
435.4171890349569
 21
485.5290125487841
  0
LINE
  5
166
100
AcDbEntity
  8
0
  6
CONTINUOUS
 62
    7
370
    0
100
AcDbLine
 10
435.4171890349569
 20
485.5290125487841
 11
435.4649928570198
 21
485.5427642564973
  0
LINE
  5
167
100
AcDbEntity
  8
0
  6
CONTINUOUS
 62
    7
370
    0
100
AcDbLine
 10
435.4649928570198
 20
485.5427642564973
 11
435.5119401495264
 21
485.560182630427
  0
LINE
  5
168
100
AcDbEntity
  8
0
  6
CONTINUOUS
 62
    7
370
    0
100
AcDbLine
 10
435.5119401495264
 20
485.560182630427
 11
435.5579168909219
 21
485.5816586710416
  0
LINE
  5
169
100
AcDbEntity
  8
0
  6
CONTINUOUS
 62
    7
370
    0
100
AcDbLine
 10
435.5579168909219
 20
485.5816586710416
 11
435.6026736619544
 21
485.607134383883
  0
LINE
  5
16A
100
AcDbEntity
  8
0
  6
CONTINUOUS
 62
    7
370
    0
100
AcDbLine
 10
435.6026736619544
 20
485.607134383883
 11
435.645879493052
 21
485.6362813438977
  0
LINE
  5
16B
100
AcDbEntity
  8
0
  6
CONTINUOUS
 62
    7
370
    0
100
AcDbLine
 10
435.645879493052
 20
485.6362813438977
 11
435.6872022939164
 21
485.6687674095704
  0
LINE
  5
16C
100
AcDbEntity
  8
0
  6
CONTINUOUS
 62
    7
370
    0
100
AcDbLine
 10
435.6872022939164
 20
485.6687674095704
 11
435.7263099742499
 21
485.7042604393866
  0
LINE
  5
16D
100
AcDbEntity
  8
0
  6
CONTINUOUS
 62
    7
370
    0
100
AcDbLine
 10
435.7263099742499
 20
485.7042604393866
 11
435.7628704437546
 21
485.7424282918314
  0
LINE
  5
16E
100
AcDbEntity
  8
0
  6
CONTINUOUS
 62
    7
370
    0
100
AcDbLine
 10
435.7628704437546
 20
485.7424282918314
 11
435.7965516121324
 21
485.7829388253899
  0
LINE
  5
16F
100
AcDbEntity
  8
0
  6
CONTINUOUS
 62
    7
370
    0
100
AcDbLine
 10
435.7965516121324
 20
485.7829388253899
 11
435.8270213890854
 21
485.8254598985474
  0
LINE
  5
170
100
AcDbEntity
  8
0
  6
CONTINUOUS
 62
    7
370
    0
100
AcDbLine
 10
435.8270213890854
 20
485.8254598985474
 11
435.8539476843158
 21
485.8696593697889
  0
LINE
  5
171
100
AcDbEntity
  8
0
  6
CONTINUOUS
 62
    7
370
    0
100
AcDbLine
 10
435.8539476843158
 20
485.8696593697889
 11
435.8769984075254
 21
485.9152050975995
  0
LINE
  5
172
100
AcDbEntity
  8
0
  6
CONTINUOUS
 62
    7
370
    0
100
AcDbLine
 10
435.8769984075254
 20
485.9152050975995
 11
435.8959418044669
 21
485.9617952168485
  0
LINE
  5
173
100
AcDbEntity
  8
0
  6
CONTINUOUS
 62
    7
370
    0
100
AcDbLine
 10
435.8959418044669
 20
485.9617952168485
 11
435.9110520398787
 21
486.0092805233617
  0
LINE
  5
174
100
AcDbEntity
  8
0
  6
CONTINUOUS
 62
    7
370
    0
100
AcDbLine
 10
435.9110520398787
 20
486.0092805233617
 11
435.9227623761718
 21
486.0575598206568
  0
LINE
  5
175
100
AcDbEntity
  8
0
  6
CONTINUOUS
 62
    7
370
    0
100
AcDbLine
 10
435.9227623761718
 20
486.0575598206568
 11
435.9315061338221
 21
486.1065319297727
  0
LINE
  5
176
100
AcDbEntity
  8
0
  6
CONTINUOUS
 62
    7
370
    0
100
AcDbLine
 10
435.9315061338221
 20
486.1065319297727
 11
435.9377166333057
 21
486.1560956717485
  0
LINE
  5
177
100
AcDbEntity
  8
0
  6
CONTINUOUS
 62
    7
370
    0
100
AcDbLine
 10
435.9377166333057
 20
486.1560956717485
 11
435.9418271950985
 21
486.2061498676231
  0
LINE
  5
178
100
AcDbEntity
  8
0
  6
CONTINUOUS
 62
    7
370
    0
100
AcDbLine
 10
435.9418271950985
 20
486.2061498676231
 11
435.9442711396759
 21
486.2565933384353
  0
LINE
  5
179
100
AcDbEntity
  8
0
  6
CONTINUOUS
 62
    7
370
    0
100
AcDbLine
 10
435.9442711396759
 20
486.2565933384353
 11
435.9454817875146
 21
486.3073249052241
  0
LINE
  5
17A
100
AcDbEntity
  8
0
  6
CONTINUOUS
 62
    7
370
    0
100
AcDbLine
 10
435.9454817875146
 20
486.3073249052241
 11
435.9458924590898
 21
486.3582433890284
  0
LINE
  5
17B
100
AcDbEntity
  8
0
  6
CONTINUOUS
 62
    7
370
    0
100
AcDbLine
 10
435.9458924590898
 20
486.3582433890284
 11
435.9459359489236
 21
486.4092476108639
  0
LINE
  5
17C
100
AcDbEntity
  8
0
  6
CONTINUOUS
 62
    7
370
    0
100
AcDbLine
 10
435.9459359489236
 20
486.4092476108639
 11
435.945825268447
 21
486.4602363820046
  0
LINE
  5
17D
100
AcDbEntity
  8
0
  6
CONTINUOUS
 62
    7
370
    0
100
AcDbLine
 10
435.945825268447
 20
486.4602363820046
 11
435.9452146028059
 21
486.5111084889551
  0
LINE
  5
17E
100
AcDbEntity
  8
0
  6
CONTINUOUS
 62
    7
370
    0
100
AcDbLine
 10
435.9452146028059
 20
486.5111084889551
 11
435.9436706315245
 21
486.5617627143421
  0
LINE
  5
17F
100
AcDbEntity
  8
0
  6
CONTINUOUS
 62
    7
370
    0
100
AcDbLine
 10
435.9436706315245
 20
486.5617627143421
 11
435.9407600341265
 21
486.6120978407915
  0
LINE
  5
180
100
AcDbEntity
  8
0
  6
CONTINUOUS
 62
    7
370
    0
100
AcDbLine
 10
435.9407600341265
 20
486.6120978407915
 11
435.9360494901366
 21
486.6620126509297
  0
LINE
  5
181
100
AcDbEntity
  8
0
  6
CONTINUOUS
 62
    7
370
    0
100
AcDbLine
 10
435.9360494901366
 20
486.6620126509297
 11
435.9291056790784
 21
486.7114059273831
  0
LINE
  5
182
100
AcDbEntity
  8
0
  6
CONTINUOUS
 62
    7
370
    0
100
AcDbLine
 10
435.9291056790784
 20
486.7114059273831
 11
435.9194952804762
 21
486.7601764527777
  0
LINE
  5
183
100
AcDbEntity
  8
0
  6
CONTINUOUS
 62
    7
370
    0
100
AcDbLine
 10
435.9194952804762
 20
486.7601764527777
 11
435.906784973854
 21
486.8082230097398
  0
LINE
  5
184
100
AcDbEntity
  8
0
  6
CONTINUOUS
 62
    7
370
    0
100
AcDbLine
 10
435.906784973854
 20
486.8082230097398
 11
435.8905414387361
 21
486.8554443808959
  0
LINE
  5
185
100
AcDbEntity
  8
0
  6
CONTINUOUS
 62
    7
370
    0
100
AcDbLine
 10
435.8905414387361
 20
486.8554443808959
 11
435.8703386127518
 21
486.9017371592258
  0
LINE
  5
186
100
AcDbEntity
  8
0
  6
CONTINUOUS
 62
    7
370
    0
100
AcDbLine
 10
435.8703386127518
 20
486.9017371592258
 11
435.8460600352793
 21
486.9469045361583
  0
LINE
  5
187
100
AcDbEntity
  8
0
  6
CONTINUOUS
 62
    7
370
    0
100
AcDbLine
 10
435.8460600352793
 20
486.9469045361583
 11
435.8180080674161
 21
486.9906233517739
  0
LINE
  5
188
100
AcDbEntity
  8
0
  6
CONTINUOUS
 62
    7
370
    0
100
AcDbLine
 10
435.8180080674161
 20
486.9906233517739
 11
435.7865147994605
 21
487.0325614773621
  0
LINE
  5
189
100
AcDbEntity
  8
0
  6
CONTINUOUS
 62
    7
370
    0
100
AcDbLine
 10
435.7865147994605
 20
487.0325614773621
 11
435.7519123217101
 21
487.0723867842121
  0
LINE
  5
18A
100
AcDbEntity
  8
0
  6
CONTINUOUS
 62
    7
370
    0
100
AcDbLine
 10
435.7519123217101
 20
487.0723867842121
 11
435.714532724463
 21
487.1097671436133
  0
LINE
  5
18B
100
AcDbEntity
  8
0
  6
CONTINUOUS
 62
    7
370
    0
100
AcDbLine
 10
435.714532724463
 20
487.1097671436133
 11
435.6747080980172
 21
487.1443704268553
  0
LINE
  5
18C
100
AcDbEntity
  8
0
  6
CONTINUOUS
 62
    7
370
    0
100
AcDbLine
 10
435.6747080980172
 20
487.1443704268553
 11
435.6327705326706
 21
487.1758645052274
  0
LINE
  5
18D
100
AcDbEntity
  8
0
  6
CONTINUOUS
 62
    7
370
    0
100
AcDbLine
 10
435.6327705326706
 20
487.1758645052274
 11
435.5890521187212
 21
487.2039172500189
  0
LINE
  5
18E
100
AcDbEntity
  8
0
  6
CONTINUOUS
 62
    7
370
    0
100
AcDbLine
 10
435.5890521187212
 20
487.2039172500189
 11
435.5438849464668
 21
487.2281965325192
  0
LINE
  5
18F
100
AcDbEntity
  8
0
  6
CONTINUOUS
 62
    7
370
    0
100
AcDbLine
 10
435.5438849464668
 20
487.2281965325192
 11
435.4975921403984
 21
487.2483999552073
  0
LINE
  5
190
100
AcDbEntity
  8
0
  6
CONTINUOUS
 62
    7
370
    0
100
AcDbLine
 10
435.4975921403984
 20
487.2483999552073
 11
435.450370515696
 21
487.2646439703068
  0
LINE
  5
191
100
AcDbEntity
  8
0
  6
CONTINUOUS
 62
    7
370
    0
100
AcDbLine
 10
435.450370515696
 20
487.2646439703068
 11
435.4023235170638
 21
487.2773546525069
  0
LINE
  5
192
100
AcDbEntity
  8
0
  6
CONTINUOUS
 62
    7
370
    0
100
AcDbLine
 10
435.4023235170638
 20
487.2773546525069
 11
435.3535524002884
 21
487.2869653350874
  0
LINE
  5
193
100
AcDbEntity
  8
0
  6
CONTINUOUS
 62
    7
370
    0
100
AcDbLine
 10
435.3535524002884
 20
487.2869653350874
 11
435.304158421156
 21
487.2939093513288
  0
LINE
  5
194
100
AcDbEntity
  8
0
  6
CONTINUOUS
 62
    7
370
    0
100
AcDbLine
 10
435.304158421156
 20
487.2939093513288
 11
435.2542428354532
 21
487.298620034511
  0
LINE
  5
195
100
AcDbEntity
  8
0
  6
CONTINUOUS
 62
    7
370
    0
100
AcDbLine
 10
435.2542428354532
 20
487.298620034511
 11
435.2039068989663
 21
487.3015307179144
  0
LINE
  5
196
100
AcDbEntity
  8
0
  6
CONTINUOUS
 62
    7
370
    0
100
AcDbLine
 10
435.2039068989663
 20
487.3015307179144
 11
435.1532518674816
 21
487.3030747348189
  0
LINE
  5
197
100
AcDbEntity
  8
0
  6
CONTINUOUS
 62
    7
370
    0
100
AcDbLine
 10
435.1532518674816
 20
487.3030747348189
 11
435.1023789967857
 21
487.3036854185046
  0
LINE
  5
198
100
AcDbEntity
  8
0
  6
CONTINUOUS
 62
    7
370
    0
100
AcDbLine
 10
435.1023789967857
 20
487.3036854185046
 11
435.0513895426648
 21
487.3037961022516
  0
LINE
  5
199
100
AcDbEntity
  8
0
  6
CONTINUOUS
 62
    7
370
    0
100
AcDbLine
 10
435.0513895426648
 20
487.3037961022516
 11
435.000384755734
 21
487.3037526111328
  0
LINE
  5
19A
100
AcDbEntity
  8
0
  6
CONTINUOUS
 62
    7
370
    0
100
AcDbLine
 10
435.000384755734
 20
487.3037526111328
 11
434.9494658535828
 21
487.3033419274225
  0
LINE
  5
19B
100
AcDbEntity
  8
0
  6
CONTINUOUS
 62
    7
370
    0
100
AcDbLine
 10
434.9494658535828
 20
487.3033419274225
 11
434.8987340408115
 21
487.3021312438105
  0
LINE
  5
19C
100
AcDbEntity
  8
0
  6
CONTINUOUS
 62
    7
370
    0
100
AcDbLine
 10
434.8987340408115
 20
487.3021312438105
 11
434.8482905219898
 21
487.2996872270166
  0
LINE
  5
19D
100
AcDbEntity
  8
0
  6
CONTINUOUS
 62
    7
370
    0
100
AcDbLine
 10
434.8482905219898
 20
487.2996872270166
 11
434.7982365016871
 21
487.2955765437606
  0
LINE
  5
19E
100
AcDbEntity
  8
0
  6
CONTINUOUS
 62
    7
370
    0
100
AcDbLine
 10
434.7982365016871
 20
487.2955765437606
 11
434.7486731844731
 21
487.2893658607624
  0
LINE
  5
19F
100
AcDbEntity
  8
0
  6
CONTINUOUS
 62
    7
370
    0
100
AcDbLine
 10
434.7486731844731
 20
487.2893658607624
 11
434.6997017749173
 21
487.2806218447421
  0
LINE
  5
1A0
100
AcDbEntity
  8
0
  6
CONTINUOUS
 62
    7
370
    0
100
AcDbLine
 10
434.6997017749173
 20
487.2806218447421
 11
434.6514234775891
 21
487.2689111624193
  0
LINE
  5
1A1
100
AcDbEntity
  8
0
  6
CONTINUOUS
 62
    7
370
    0
100
AcDbLine
 10
434.6514234775891
 20
487.2689111624193
 11
434.6039394970579
 21
487.2538004805138
  0
LINE
  5
1A2
100
AcDbEntity
  8
0
  6
CONTINUOUS
 62
    7
370
    0
100
AcDbLine
 10
434.6039394970579
 20
487.2538004805138
 11
434.5573510554069
 21
487.2348565238146
  0
LINE
  5
1A3
100
AcDbEntity
  8
0
  6
CONTINUOUS
 62
    7
370
    0
100
AcDbLine
 10
434.5573510554069
 20
487.2348565238146
 11
434.5118073611187
 21
487.2118051254285
  0
LINE
  5
1A4
100
AcDbEntity
  8
0
  6
CONTINUOUS
 62
    7
370
    0
100
AcDbLine
 10
434.5118073611187
 20
487.2118051254285
 11
434.4676102159271
 21
487.1848780713017
  0
LINE
  5
1A5
100
AcDbEntity
  8
0
  6
CONTINUOUS
 62
    7
370
    0
100
AcDbLine
 10
434.4676102159271
 20
487.1848780713017
 11
434.4250916845214
 21
487.1544074901452
  0
LINE
  5
1A6
100
AcDbEntity
  8
0
  6
CONTINUOUS
 62
    7
370
    0
100
AcDbLine
 10
434.4250916845214
 20
487.1544074901452
 11
434.3845838315912
 21
487.1207255106691
  0
LINE
  5
1A7
100
AcDbEntity
  8
0
  6
CONTINUOUS
 62
    7
370
    0
100
AcDbLine
 10
434.3845838315912
 20
487.1207255106691
 11
434.346418721826
 21
487.0841642615844
  0
LINE
  5
1A8
100
AcDbEntity
  8
0
  6
CONTINUOUS
 62
    7
370
    0
100
AcDbLine
 10
434.346418721826
 20
487.0841642615844
 11
434.3109284199151
 21
487.0450558716013
  0
LINE
  5
1A9
100
AcDbEntity
  8
0
  6
CONTINUOUS
 62
    7
370
    0
100
AcDbLine
 10
434.3109284199151
 20
487.0450558716013
 11
434.2784449905482
 21
487.0037324694309
  0
LINE
  5
1AA
100
AcDbEntity
  8
0
  6
CONTINUOUS
 62
    7
370
    0
100
AcDbLine
 10
434.2784449905482
 20
487.0037324694309
 11
434.2493004984149
 21
486.9605261837835
  0
LINE
  5
1AB
100
AcDbEntity
  8
0
  6
CONTINUOUS
 62
    7
370
    0
100
AcDbLine
 10
434.2493004984149
 20
486.9605261837835
 11
434.2238270082045
 21
486.91576914337
  0
LINE
  5
1AC
100
AcDbEntity
  8
0
  6
CONTINUOUS
 62
    7
370
    0
100
AcDbLine
 10
434.2238270082045
 20
486.91576914337
 11
434.2023528687052
 21
486.8697949509772
  0
LINE
  5
1AD
100
AcDbEntity
  8
0
  6
CONTINUOUS
 62
    7
370
    0
100
AcDbLine
 10
434.2023528687052
 20
486.8697949509772
 11
434.1849360388207
 21
486.8230444714954
  0
LINE
  5
1AE
100
AcDbEntity
  8
0
  6
CONTINUOUS
 62
    7
370
    0
100
AcDbLine
 10
434.1849360388207
 20
486.8230444714954
 11
434.1711855501225
 21
486.7761366566904
  0
LINE
  5
1AF
100
AcDbEntity
  8
0
  6
CONTINUOUS
 62
    7
370
    0
100
AcDbLine
 10
434.1711855501225
 20
486.7761366566904
 11
434.1606681077429
 21
486.7297072489812
  0
LINE
  5
1B0
100
AcDbEntity
  8
0
  6
CONTINUOUS
 62
    7
370
    0
100
AcDbLine
 10
434.1606681077429
 20
486.7297072489812
 11
434.1529504168147
 21
486.6843919907869
  0
LINE
  5
1B1
100
AcDbEntity
  8
0
  6
CONTINUOUS
 62
    7
370
    0
100
AcDbLine
 10
434.1529504168147
 20
486.6843919907869
 11
434.1475991824703
 21
486.640826624527
  0
LINE
  5
1B2
100
AcDbEntity
  8
0
  6
CONTINUOUS
 62
    7
370
    0
100
AcDbLine
 10
434.1475991824703
 20
486.640826624527
 11
434.1441811098423
 21
486.5996468926203
  0
LINE
  5
1B3
100
AcDbEntity
  8
0
  6
CONTINUOUS
 62
    7
370
    0
100
AcDbLine
 10
434.1441811098423
 20
486.5996468926203
 11
434.1422629040632
 21
486.5614885374862
  0
LINE
  5
1B4
100
AcDbEntity
  8
0
  6
CONTINUOUS
 62
    7
370
    0
100
AcDbLine
 10
434.1422629040632
 20
486.5614885374862
 11
434.1414112702655
 21
486.5269873015437
  0
LINE
  5
1B5
100
AcDbEntity
  8
0
  6
CONTINUOUS
 62
    7
370
    0
100
AcDbLine
 10
434.1414112702655
 20
486.5269873015437
 11
434.1411929135817
 21
486.4967789272121
  0
LINE
  5
1B6
100
AcDbEntity
  8
0
  6
CONTINUOUS
 62
    7
370
    0
100
AcDbLine
 10
434.1411929135817
 20
486.4967789272121
 11
434.1411858136204
 21
486.4714547973122
  0
LINE
  5
1B7
100
AcDbEntity
  8
0
  6
CONTINUOUS
 62
    7
370
    0
100
AcDbLine
 10
434.1411858136204
 20
486.4714547973122
 11
434.1411858136203
 21
486.4507491068619
  0
LINE
  5
1B8
100
AcDbEntity
  8
0
  6
CONTINUOUS
 62
    7
370
    0
100
AcDbLine
 10
434.1411858136203
 20
486.4507491068619
 11
434.1411858136203
 21
486.4336207278734
  0
LINE
  5
1B9
100
AcDbEntity
  8
0
  6
CONTINUOUS
 62
    7
370
    0
100
AcDbLine
 10
434.1411858136203
 20
486.4336207278734
 11
434.1411858136204
 21
486.4190005974518
  0
LINE
  5
1BA
100
AcDbEntity
  8
0
  6
CONTINUOUS
 62
    7
370
    0
100
AcDbLine
 10
434.1411858136204
 20
486.4190005974518
 11
434.1411858136203
 21
486.4058196527017
  0
LINE
  5
1BB
100
AcDbEntity
  8
0
  6
CONTINUOUS
 62
    7
370
    0
100
AcDbLine
 10
434.1411858136203
 20
486.4058196527017
 11
434.1411858136203
 21
486.3930088307281
  0
LINE
  5
1BC
100
AcDbEntity
  8
0
  6
CONTINUOUS
 62
    7
370
    0
100
AcDbLine
 10
434.1411858136203
 20
486.3930088307281
 11
434.1411858136203
 21
486.3794990686363
  0
LINE
  5
1BD
100
AcDbEntity
  8
0
  6
CONTINUOUS
 62
    7
370
    0
100
AcDbLine
 10
434.1411858136203
 20
486.3794990686363
 11
434.1411858136203
 21
486.3642213035308
  0
LINE
  5
1BE
100
AcDbEntity
  8
0
  6
CONTINUOUS
 62
    7
370
    0
100
AcDbLine
 10
434.1411858136203
 20
486.3642213035308
 11
434.1411858136204
 21
486.3461064725167
  0
LINE
  5
1BF
100
AcDbEntity
  8
0
  6
CONTINUOUS
 62
    7
370
    0
100
AcDbLine
 10
434.1411858136204
 20
486.3461064725167
 11
434.1411858136203
 21
486.3240855126989
  0
LINE
  5
1C0
100
AcDbEntity
  8
0
  6
CONTINUOUS
 62
    7
370
    0
100
AcDbLine
 10
434.1411858136203
 20
486.3240855126989
 11
434.141218683812
 21
486.2972186875144
  0
LINE
  5
1C1
100
AcDbEntity
  8
0
  6
CONTINUOUS
 62
    7
370
    0
100
AcDbLine
 10
434.141218683812
 20
486.2972186875144
 11
434.1415857452432
 21
486.2656224685512
  0
LINE
  5
1C2
100
AcDbEntity
  8
0
  6
CONTINUOUS
 62
    7
370
    0
100
AcDbLine
 10
434.1415857452432
 20
486.2656224685512
 11
434.1427194052858
 21
486.2299290808096
  0
LINE
  5
1C3
100
AcDbEntity
  8
0
  6
CONTINUOUS
 62
    7
370
    0
100
AcDbLine
 10
434.1427194052858
 20
486.2299290808096
 11
434.1450529588078
 21
486.1907742411001
  0
LINE
  5
1C4
100
AcDbEntity
  8
0
  6
CONTINUOUS
 62
    7
370
    0
100
AcDbLine
 10
434.1450529588078
 20
486.1907742411001
 11
434.1490197006763
 21
486.1487936662334
  0
LINE
  5
1C5
100
AcDbEntity
  8
0
  6
CONTINUOUS
 62
    7
370
    0
100
AcDbLine
 10
434.1490197006763
 20
486.1487936662334
 11
434.1550529257589
 21
486.1046230730202
  0
LINE
  5
1C6
100
AcDbEntity
  8
0
  6
CONTINUOUS
 62
    7
370
    0
100
AcDbLine
 10
434.1550529257589
 20
486.1046230730202
 11
434.1635859289229
 21
486.0588981782712
  0
LINE
  5
1C7
100
AcDbEntity
  8
0
  6
CONTINUOUS
 62
    7
370
    0
100
AcDbLine
 10
434.1635859289229
 20
486.0588981782712
 11
434.1750520050359
 21
486.0122546987973
  0
LINE
  5
1C8
100
AcDbEntity
  8
0
  6
CONTINUOUS
 62
    7
370
    0
100
AcDbLine
 10
434.1750520050359
 20
486.0122546987973
 11
434.1898844489654
 21
485.9653283514089
  0
LINE
  5
1C9
100
AcDbEntity
  8
0
  6
CONTINUOUS
 62
    7
370
    0
100
AcDbLine
 10
434.1898844489654
 20
485.9653283514089
 11
434.2085165555788
 21
485.918754852917
  0
LINE
  5
1CA
100
AcDbEntity
  8
0
  6
CONTINUOUS
 62
    7
370
    9
100
AcDbLine
 10
430.0041494496867
 20
491.4347661974849
 11
430.026889631043
 21
491.3891306688175
  0
LINE
  5
1CB
100
AcDbEntity
  8
0
  6
CONTINUOUS
 62
    7
370
    0
100
AcDbLine
 10
430.026889631043
 20
491.3891306688175
 11
430.053531103177
 21
491.3448158473719
  0
LINE
  5
1CC
100
AcDbEntity
  8
0
  6
CONTINUOUS
 62
    7
370
    0
100
AcDbLine
 10
430.053531103177
 20
491.3448158473719
 11
430.0837416989655
 21
491.3021538746632
  0
LINE
  5
1CD
100
AcDbEntity
  8
0
  6
CONTINUOUS
 62
    7
370
    0
100
AcDbLine
 10
430.0837416989655
 20
491.3021538746632
 11
430.1171892512849
 21
491.2614768922061
  0
LINE
  5
1CE
100
AcDbEntity
  8
0
  6
CONTINUOUS
 62
    7
370
    0
100
AcDbLine
 10
430.1171892512849
 20
491.2614768922061
 11
430.1535415930122
 21
491.2231170415153
  0
LINE
  5
1CF
100
AcDbEntity
  8
0
  6
CONTINUOUS
 62
    7
370
    0
100
AcDbLine
 10
430.1535415930122
 20
491.2231170415153
 11
430.1924665570241
 21
491.1874064641058
  0
LINE
  5
1D0
100
AcDbEntity
  8
0
  6
CONTINUOUS
 62
    7
370
    0
100
AcDbLine
 10
430.1924665570241
 20
491.1874064641058
 11
430.2336319761974
 21
491.1546773014925
  0
LINE
  5
1D1
100
AcDbEntity
  8
0
  6
CONTINUOUS
 62
    7
370
    0
100
AcDbLine
 10
430.2336319761974
 20
491.1546773014925
 11
430.2767056834086
 21
491.1252616951901
  0
LINE
  5
1D2
100
AcDbEntity
  8
0
  6
CONTINUOUS
 62
    7
370
    0
100
AcDbLine
 10
430.2767056834086
 20
491.1252616951901
 11
430.3213555115346
 21
491.0994917867134
  0
LINE
  5
1D3
100
AcDbEntity
  8
0
  6
CONTINUOUS
 62
    7
370
    0
100
AcDbLine
 10
430.3213555115346
 20
491.0994917867134
 11
430.367249766573
 21
491.0776981496955
  0
LINE
  5
1D4
100
AcDbEntity
  8
0
  6
CONTINUOUS
 62
    7
370
    0
100
AcDbLine
 10
430.367249766573
 20
491.0776981496955
 11
430.4141266362383
 21
491.0599797758026
  0
LINE
  5
1D5
100
AcDbEntity
  8
0
  6
CONTINUOUS
 62
    7
370
    0
100
AcDbLine
 10
430.4141266362383
 20
491.0599797758026
 11
430.4618674185712
 21
491.0459614014554
  0
LINE
  5
1D6
100
AcDbEntity
  8
0
  6
CONTINUOUS
 62
    7
370
    0
100
AcDbLine
 10
430.4618674185712
 20
491.0459614014554
 11
430.5103709346105
 21
491.0352096933738
  0
LINE
  5
1D7
100
AcDbEntity
  8
0
  6
CONTINUOUS
 62
    7
370
    0
100
AcDbLine
 10
430.5103709346105
 20
491.0352096933738
 11
430.5595360053955
 21
491.0272913182777
  0
LINE
  5
1D8
100
AcDbEntity
  8
0
  6
CONTINUOUS
 62
    7
370
    0
100
AcDbLine
 10
430.5595360053955
 20
491.0272913182777
 11
430.6092614519648
 21
491.0217729428869
  0
LINE
  5
1D9
100
AcDbEntity
  8
0
  6
CONTINUOUS
 62
    7
370
    0
100
AcDbLine
 10
430.6092614519648
 20
491.0217729428869
 11
430.6594460953575
 21
491.0182212339213
  0
LINE
  5
1DA
100
AcDbEntity
  8
0
  6
CONTINUOUS
 62
    7
370
    0
100
AcDbLine
 10
430.6594460953575
 20
491.0182212339213
 11
430.7099887566123
 21
491.0162028581007
  0
LINE
  5
1DB
100
AcDbEntity
  8
0
  6
CONTINUOUS
 62
    7
370
    0
100
AcDbLine
 10
430.7099887566123
 20
491.0162028581007
 11
430.7607882567684
 21
491.0152844821451
  0
LINE
  5
1DC
100
AcDbEntity
  8
0
  6
CONTINUOUS
 62
    7
370
    0
100
AcDbLine
 10
430.7607882567684
 20
491.0152844821451
 11
430.8117434168647
 21
491.0150327727743
  0
LINE
  5
1DD
100
AcDbEntity
  8
0
  6
CONTINUOUS
 62
    7
370
    0
100
AcDbLine
 10
430.8117434168647
 20
491.0150327727743
 11
430.8627530579399
 21
491.0150285978899
  0
LINE
  5
1DE
100
AcDbEntity
  8
0
  6
CONTINUOUS
 62
    7
370
    0
100
AcDbLine
 10
430.8627530579399
 20
491.0150285978899
 11
430.913716001033
 21
491.0152469739314
  0
LINE
  5
1DF
100
AcDbEntity
  8
0
  6
CONTINUOUS
 62
    7
370
    0
100
AcDbLine
 10
430.913716001033
 20
491.0152469739314
 11
430.9645310671831
 21
491.0160986832286
  0
LINE
  5
1E0
100
AcDbEntity
  8
0
  6
CONTINUOUS
 62
    7
370
    0
100
AcDbLine
 10
430.9645310671831
 20
491.0160986832286
 11
431.0150970774289
 21
491.0180170590614
  0
LINE
  5
1E1
100
AcDbEntity
  8
0
  6
CONTINUOUS
 62
    7
370
    0
100
AcDbLine
 10
431.0150970774289
 20
491.0180170590614
 11
431.0653128528096
 21
491.02143543471
  0
LINE
  5
1E2
100
AcDbEntity
  8
0
  6
CONTINUOUS
 62
    7
370
    0
100
AcDbLine
 10
431.0653128528096
 20
491.02143543471
 11
431.1150772143639
 21
491.0267871434547
  0
LINE
  5
1E3
100
AcDbEntity
  8
0
  6
CONTINUOUS
 62
    7
370
    0
100
AcDbLine
 10
431.1150772143639
 20
491.0267871434547
 11
431.1642889831308
 21
491.0345055185754
  0
LINE
  5
1E4
100
AcDbEntity
  8
0
  6
CONTINUOUS
 62
    7
370
    0
100
AcDbLine
 10
431.1642889831308
 20
491.0345055185754
 11
431.2128469801493
 21
491.0450238933522
  0
LINE
  5
1E5
100
AcDbEntity
  8
0
  6
CONTINUOUS
 62
    7
370
    0
100
AcDbLine
 10
431.2128469801493
 20
491.0450238933522
 11
431.2606500264582
 21
491.0587756010655
  0
LINE
  5
1E6
100
AcDbEntity
  8
0
  6
CONTINUOUS
 62
    7
370
    0
100
AcDbLine
 10
431.2606500264582
 20
491.0587756010655
 11
431.3075969430964
 21
491.0761939749952
  0
LINE
  5
1E7
100
AcDbEntity
  8
0
  6
CONTINUOUS
 62
    7
370
    0
100
AcDbLine
 10
431.3075969430964
 20
491.0761939749952
 11
431.3535737768373
 21
491.0976700156097
  0
LINE
  5
1E8
100
AcDbEntity
  8
0
  6
CONTINUOUS
 62
    7
370
    0
100
AcDbLine
 10
431.3535737768373
 20
491.0976700156097
 11
431.3983310866321
 21
491.1231457284512
  0
LINE
  5
1E9
100
AcDbEntity
  8
0
  6
CONTINUOUS
 62
    7
370
    0
100
AcDbLine
 10
431.3983310866321
 20
491.1231457284512
 11
431.4415378268293
 21
491.1522926884658
  0
LINE
  5
1EA
100
AcDbEntity
  8
0
  6
CONTINUOUS
 62
    7
370
    0
100
AcDbLine
 10
431.4415378268293
 20
491.1522926884658
 11
431.4828618303056
 21
491.1847787541384
  0
LINE
  5
1EB
100
AcDbEntity
  8
0
  6
CONTINUOUS
 62
    7
370
    0
100
AcDbLine
 10
431.4828618303056
 20
491.1847787541384
 11
431.5219709299379
 21
491.2202717839547
  0
LINE
  5
1EC
100
AcDbEntity
  8
0
  6
CONTINUOUS
 62
    7
370
    0
100
AcDbLine
 10
431.5219709299379
 20
491.2202717839547
 11
431.5585329586028
 21
491.2584396363995
  0
LINE
  5
1ED
100
AcDbEntity
  8
0
  6
CONTINUOUS
 62
    7
370
    0
100
AcDbLine
 10
431.5585329586028
 20
491.2584396363995
 11
431.5922157491769
 21
491.2989501699579
  0
LINE
  5
1EE
100
AcDbEntity
  8
0
  6
CONTINUOUS
 62
    7
370
    0
100
AcDbLine
 10
431.5922157491769
 20
491.2989501699579
 11
431.6226871345372
 21
491.3414712431153
  0
LINE
  5
1EF
100
AcDbEntity
  8
0
  6
CONTINUOUS
 62
    7
370
    0
100
AcDbLine
 10
431.6226871345372
 20
491.3414712431153
 11
431.6496149475603
 21
491.3856707143568
  0
LINE
  5
1F0
100
AcDbEntity
  8
0
  6
CONTINUOUS
 62
    7
370
    0
100
AcDbLine
 10
431.6496149475603
 20
491.3856707143568
 11
431.6726670211228
 21
491.4312164421674
  0
LINE
  5
1F1
100
AcDbEntity
  8
0
  6
CONTINUOUS
 62
    7
370
    0
100
AcDbLine
 10
431.6726670211228
 20
491.4312164421674
 11
431.6916115375799
 21
491.4778065614164
  0
LINE
  5
1F2
100
AcDbEntity
  8
0
  6
CONTINUOUS
 62
    7
370
    0
100
AcDbLine
 10
431.6916115375799
 20
491.4778065614164
 11
431.7067226659788
 21
491.5252918679295
  0
LINE
  5
1F3
100
AcDbEntity
  8
0
  6
CONTINUOUS
 62
    7
370
    0
100
AcDbLine
 10
431.7067226659788
 20
491.5252918679295
 11
431.7184336943312
 21
491.5735711652245
  0
LINE
  5
1F4
100
AcDbEntity
  8
0
  6
CONTINUOUS
 62
    7
370
    0
100
AcDbLine
 10
431.7184336943312
 20
491.5735711652245
 11
431.7271779687216
 21
491.6225432743403
  0
LINE
  5
1F5
100
AcDbEntity
  8
0
  6
CONTINUOUS
 62
    7
370
    0
100
AcDbLine
 10
431.7271779687216
 20
491.6225432743403
 11
431.7333888352342
 21
491.672107016316
  0
LINE
  5
1F6
100
AcDbEntity
  8
0
  6
CONTINUOUS
 62
    7
370
    0
100
AcDbLine
 10
431.7333888352342
 20
491.672107016316
 11
431.7374996399536
 21
491.7221612121905
  0
LINE
  5
1F7
100
AcDbEntity
  8
0
  6
CONTINUOUS
 62
    7
370
    0
100
AcDbLine
 10
431.7374996399536
 20
491.7221612121905
 11
431.7399437289638
 21
491.7726046830025
  0
LINE
  5
1F8
100
AcDbEntity
  8
0
  6
CONTINUOUS
 62
    7
370
    0
100
AcDbLine
 10
431.7399437289638
 20
491.7726046830025
 11
431.7411544483493
 21
491.8233362497913
  0
LINE
  5
1F9
100
AcDbEntity
  8
0
  6
CONTINUOUS
 62
    7
370
    0
100
AcDbLine
 10
431.7411544483493
 20
491.8233362497913
 11
431.7415651441946
 21
491.8742547335955
  0
LINE
  5
1FA
100
AcDbEntity
  8
0
  6
CONTINUOUS
 62
    7
370
    0
100
AcDbLine
 10
431.7415651441946
 20
491.8742547335955
 11
431.7416086365986
 21
491.9252589554154
  0
LINE
  5
1FB
100
AcDbEntity
  8
0
  6
CONTINUOUS
 62
    7
370
    0
100
AcDbLine
 10
431.7416086365986
 20
491.9252589554154
 11
431.7414979495811
 21
491.9762477200151
  0
LINE
  5
1FC
100
AcDbEntity
  8
0
  6
CONTINUOUS
 62
    7
370
    0
100
AcDbLine
 10
431.7414979495811
 20
491.9762477200151
 11
431.7408872478507
 21
492.0271197908764
  0
LINE
  5
1FD
100
AcDbEntity
  8
0
  6
CONTINUOUS
 62
    7
370
    0
100
AcDbLine
 10
431.7408872478507
 20
492.0271197908764
 11
431.7393431853233
 21
492.0777739250175
  0
LINE
  5
1FE
100
AcDbEntity
  8
0
  6
CONTINUOUS
 62
    7
370
    0
100
AcDbLine
 10
431.7393431853233
 20
492.0777739250175
 11
431.7364324159145
 21
492.128108879456
  0
LINE
  5
1FF
100
AcDbEntity
  8
0
  6
CONTINUOUS
 62
    7
370
    0
100
AcDbLine
 10
431.7364324159145
 20
492.128108879456
 11
431.73172159354
 21
492.1780234112098
  0
LINE
  5
200
100
AcDbEntity
  8
0
  6
CONTINUOUS
 62
    7
370
    0
100
AcDbLine
 10
431.73172159354
 20
492.1780234112098
 11
431.7247773721155
 21
492.2274162772967
  0
LINE
  5
201
100
AcDbEntity
  8
0
  6
CONTINUOUS
 62
    7
370
    0
100
AcDbLine
 10
431.7247773721155
 20
492.2274162772967
 11
431.7151664055563
 21
492.2761862347344
  0
LINE
  5
202
100
AcDbEntity
  8
0
  6
CONTINUOUS
 62
    7
370
    0
100
AcDbLine
 10
431.7151664055563
 20
492.2761862347344
 11
431.7024553477784
 21
492.3242320405408
  0
LINE
  5
203
100
AcDbEntity
  8
0
  6
CONTINUOUS
 62
    7
370
    0
100
AcDbLine
 10
431.7024553477784
 20
492.3242320405408
 11
431.6862108526974
 21
492.3714524517339
  0
LINE
  5
204
100
AcDbEntity
  8
0
  6
CONTINUOUS
 62
    7
370
    0
100
AcDbLine
 10
431.6862108526974
 20
492.3714524517339
 11
431.6660068333056
 21
492.4177440364135
  0
LINE
  5
205
100
AcDbEntity
  8
0
  6
CONTINUOUS
 62
    7
370
    0
100
AcDbLine
 10
431.6660068333056
 20
492.4177440364135
 11
431.6417268457777
 21
492.4629099922037
  0
LINE
  5
206
100
AcDbEntity
  8
0
  6
CONTINUOUS
 62
    7
370
    0
100
AcDbLine
 10
431.6417268457777
 20
492.4629099922037
 11
431.6136733240578
 21
492.5066272074177
  0
LINE
  5
207
100
AcDbEntity
  8
0
  6
CONTINUOUS
 62
    7
370
    0
100
AcDbLine
 10
431.6136733240578
 20
492.5066272074177
 11
431.5821784352696
 21
492.5485636045623
  0
LINE
  5
208
100
AcDbEntity
  8
0
  6
CONTINUOUS
 62
    7
370
    0
100
AcDbLine
 10
431.5821784352696
 20
492.5485636045623
 11
431.547574346536
 21
492.5883871061432
  0
LINE
  5
209
100
AcDbEntity
  8
0
  6
CONTINUOUS
 62
    7
370
    0
100
AcDbLine
 10
431.547574346536
 20
492.5883871061432
 11
431.5101932249805
 21
492.6257656346671
  0
LINE
  5
20A
100
AcDbEntity
  8
0
  6
CONTINUOUS
 62
    7
370
    0
100
AcDbLine
 10
431.5101932249805
 20
492.6257656346671
 11
431.4703672377262
 21
492.6603671126401
  0
LINE
  5
20B
100
AcDbEntity
  8
0
  6
CONTINUOUS
 62
    7
370
    0
100
AcDbLine
 10
431.4703672377262
 20
492.6603671126401
 11
431.4284285518966
 21
492.6918594625685
  0
LINE
  5
20C
100
AcDbEntity
  8
0
  6
CONTINUOUS
 62
    7
370
    0
100
AcDbLine
 10
431.4284285518966
 20
492.6918594625685
 11
431.3847093346149
 21
492.7199106069585
  0
LINE
  5
20D
100
AcDbEntity
  8
0
  6
CONTINUOUS
 62
    7
370
    0
100
AcDbLine
 10
431.3847093346149
 20
492.7199106069585
 11
431.3395417530042
 21
492.7441884683165
  0
LINE
  5
20E
100
AcDbEntity
  8
0
  6
CONTINUOUS
 62
    7
370
    0
100
AcDbLine
 10
431.3395417530042
 20
492.7441884683165
 11
431.2932490024129
 21
492.7643906973541
  0
LINE
  5
20F
100
AcDbEntity
  8
0
  6
CONTINUOUS
 62
    7
370
    0
100
AcDbLine
 10
431.2932490024129
 20
492.7643906973541
 11
431.2460278848032
 21
492.7806337524906
  0
LINE
  5
210
100
AcDbEntity
  8
0
  6
CONTINUOUS
 62
    7
370
    0
100
AcDbLine
 10
431.2460278848032
 20
492.7806337524906
 11
431.1979817695109
 21
492.7933436835349
  0
LINE
  5
211
100
AcDbEntity
  8
0
  6
CONTINUOUS
 62
    7
370
    0
100
AcDbLine
 10
431.1979817695109
 20
492.7933436835349
 11
431.1492118354971
 21
492.8029537981586
  0
LINE
  5
212
100
AcDbEntity
  8
0
  6
CONTINUOUS
 62
    7
370
    0
100
AcDbLine
 10
431.1492118354971
 20
492.8029537981586
 11
431.0998192617228
 21
492.8098974040334
  0
LINE
  5
213
100
AcDbEntity
  8
0
  6
CONTINUOUS
 62
    7
370
    0
100
AcDbLine
 10
431.0998192617228
 20
492.8098974040334
 11
431.0499052271492
 21
492.8146078088313
  0
LINE
  5
214
100
AcDbEntity
  8
0
  6
CONTINUOUS
 62
    7
370
    0
100
AcDbLine
 10
431.0499052271492
 20
492.8146078088313
 11
430.9995709107372
 21
492.8175183202238
  0
LINE
  5
215
100
AcDbEntity
  8
0
  6
CONTINUOUS
 62
    7
370
    0
100
AcDbLine
 10
430.9995709107372
 20
492.8175183202238
 11
430.948917491448
 21
492.8190622458823
  0
LINE
  5
216
100
AcDbEntity
  8
0
  6
CONTINUOUS
 62
    7
370
    0
100
AcDbLine
 10
430.948917491448
 20
492.8190622458823
 11
430.8980461482427
 21
492.8196728934788
  0
LINE
  5
217
100
AcDbEntity
  8
0
  6
CONTINUOUS
 62
    7
370
    0
100
AcDbLine
 10
430.8980461482427
 20
492.8196728934788
 11
430.8470580600823
 21
492.8197835706849
  0
LINE
  5
218
100
AcDbEntity
  8
0
  6
CONTINUOUS
 62
    7
370
    0
100
AcDbLine
 10
430.8470580600823
 20
492.8197835706849
 11
430.7960544059279
 21
492.8197400821361
  0
LINE
  5
219
100
AcDbEntity
  8
0
  6
CONTINUOUS
 62
    7
370
    0
100
AcDbLine
 10
430.7960544059279
 20
492.8197400821361
 11
430.7451363647405
 21
492.8193294226958
  0
LINE
  5
21A
100
AcDbEntity
  8
0
  6
CONTINUOUS
 62
    7
370
    0
100
AcDbLine
 10
430.7451363647405
 20
492.8193294226958
 11
430.6944051154812
 21
492.8181188106308
  0
LINE
  5
21B
100
AcDbEntity
  8
0
  6
CONTINUOUS
 62
    7
370
    0
100
AcDbLine
 10
430.6944051154812
 20
492.8181188106308
 11
430.6439618371111
 21
492.8156749382695
  0
LINE
  5
21C
100
AcDbEntity
  8
0
  6
CONTINUOUS
 62
    7
370
    0
100
AcDbLine
 10
430.6439618371111
 20
492.8156749382695
 11
430.5939077085913
 21
492.8115644979401
  0
LINE
  5
21D
100
AcDbEntity
  8
0
  6
CONTINUOUS
 62
    7
370
    0
100
AcDbLine
 10
430.5939077085913
 20
492.8115644979401
 11
430.5443439088829
 21
492.8053541819711
  0
LINE
  5
21E
100
AcDbEntity
  8
0
  6
CONTINUOUS
 62
    7
370
    0
100
AcDbLine
 10
430.5443439088829
 20
492.8053541819711
 11
430.4953716169469
 21
492.7966106826908
  0
LINE
  5
21F
100
AcDbEntity
  8
0
  6
CONTINUOUS
 62
    7
370
    0
100
AcDbLine
 10
430.4953716169469
 20
492.7966106826908
 11
430.4470920117444
 21
492.7849006924273
  0
LINE
  5
220
100
AcDbEntity
  8
0
  6
CONTINUOUS
 62
    7
370
    0
100
AcDbLine
 10
430.4470920117444
 20
492.7849006924273
 11
430.3996062722364
 21
492.7697909035091
  0
LINE
  5
221
100
AcDbEntity
  8
0
  6
CONTINUOUS
 62
    7
370
    0
100
AcDbLine
 10
430.3996062722364
 20
492.7697909035091
 11
430.3530155949072
 21
492.7508480663275
  0
LINE
  5
222
100
AcDbEntity
  8
0
  6
CONTINUOUS
 62
    7
370
    0
100
AcDbLine
 10
430.3530155949072
 20
492.7508480663275
 11
430.3074691892556
 21
492.727798023623
  0
LINE
  5
223
100
AcDbEntity
  8
0
  6
CONTINUOUS
 62
    7
370
    0
100
AcDbLine
 10
430.3074691892556
 20
492.727798023623
 11
430.2632689426643
 21
492.7008725201961
  0
LINE
  5
224
100
AcDbEntity
  8
0
  6
CONTINUOUS
 62
    7
370
    0
100
AcDbLine
 10
430.2632689426643
 20
492.7008725201961
 11
430.2207470222563
 21
492.6704036335407
  0
LINE
  5
225
100
AcDbEntity
  8
0
  6
CONTINUOUS
 62
    7
370
    0
100
AcDbLine
 10
430.2207470222563
 20
492.6704036335407
 11
430.1802355951551
 21
492.6367234411501
  0
LINE
  5
226
100
AcDbEntity
  8
0
  6
CONTINUOUS
 62
    7
370
    0
100
AcDbLine
 10
430.1802355951551
 20
492.6367234411501
 11
430.1420668284839
 21
492.6001640205183
  0
LINE
  5
227
100
AcDbEntity
  8
0
  6
CONTINUOUS
 62
    7
370
    0
100
AcDbLine
 10
430.1420668284839
 20
492.6001640205183
 11
430.1065728893659
 21
492.561057449139
  0
LINE
  5
228
100
AcDbEntity
  8
0
  6
CONTINUOUS
 62
    7
370
    0
100
AcDbLine
 10
430.1065728893659
 20
492.561057449139
 11
430.0740859449245
 21
492.5197358045058
  0
LINE
  5
229
100
AcDbEntity
  8
0
  6
CONTINUOUS
 62
    7
370
    0
100
AcDbLine
 10
430.0740859449245
 20
492.5197358045058
 11
430.0449381622829
 21
492.4765311641125
  0
LINE
  5
22A
100
AcDbEntity
  8
0
  6
CONTINUOUS
 62
    7
370
    0
100
AcDbLine
 10
430.0449381622829
 20
492.4765311641125
 11
430.0194617085643
 21
492.4317756054529
  0
LINE
  5
22B
100
AcDbEntity
  8
0
  6
CONTINUOUS
 62
    7
370
    0
100
AcDbLine
 10
430.0194617085643
 20
492.4317756054529
 11
429.9979850342449
 21
492.3858026804702
  0
LINE
  5
22C
100
AcDbEntity
  8
0
  6
CONTINUOUS
 62
    7
370
    0
100
AcDbLine
 10
429.9979850342449
 20
492.3858026804702
 11
429.9805661456335
 21
492.3390532303519
  0
LINE
  5
22D
100
AcDbEntity
  8
0
  6
CONTINUOUS
 62
    7
370
    0
100
AcDbLine
 10
429.9805661456335
 20
492.3390532303519
 11
429.9668140315819
 21
492.2921462282234
  0
LINE
  5
22E
100
AcDbEntity
  8
0
  6
CONTINUOUS
 62
    7
370
    0
100
AcDbLine
 10
429.9668140315819
 20
492.2921462282234
 11
429.956295346006
 21
492.2457174421126
  0
LINE
  5
22F
100
AcDbEntity
  8
0
  6
CONTINUOUS
 62
    7
370
    0
100
AcDbLine
 10
429.956295346006
 20
492.2457174421126
 11
429.9485767428212
 21
492.2004026400465
  0
LINE
  5
230
100
AcDbEntity
  8
0
  6
CONTINUOUS
 62
    7
370
    0
100
AcDbLine
 10
429.9485767428212
 20
492.2004026400465
 11
429.9432248759431
 21
492.1568375900534
  0
LINE
  5
231
100
AcDbEntity
  8
0
  6
CONTINUOUS
 62
    7
370
    0
100
AcDbLine
 10
429.9432248759431
 20
492.1568375900534
 11
429.9398063992876
 21
492.1156580601605
  0
LINE
  5
232
100
AcDbEntity
  8
0
  6
CONTINUOUS
 62
    7
370
    0
100
AcDbLine
 10
429.9398063992876
 20
492.1156580601605
 11
429.9378879667702
 21
492.0774998183953
  0
LINE
  5
233
100
AcDbEntity
  8
0
  6
CONTINUOUS
 62
    7
370
    0
100
AcDbLine
 10
429.9378879667702
 20
492.0774998183953
 11
429.9370362323066
 21
492.0429986327858
  0
LINE
  5
234
100
AcDbEntity
  8
0
  6
CONTINUOUS
 62
    7
370
    0
100
AcDbLine
 10
429.9370362323066
 20
492.0429986327858
 11
429.9368178498124
 21
492.0127902713593
  0
LINE
  5
235
100
AcDbEntity
  8
0
  6
CONTINUOUS
 62
    7
370
    0
100
AcDbLine
 10
429.9368178498124
 20
492.0127902713593
 11
429.9368107490118
 21
491.9874661418791
  0
LINE
  5
236
100
AcDbEntity
  8
0
  6
CONTINUOUS
 62
    7
370
    0
100
AcDbLine
 10
429.9368107490118
 20
491.9874661418791
 11
429.9368107490117
 21
491.9667604514287
  0
LINE
  5
237
100
AcDbEntity
  8
0
  6
CONTINUOUS
 62
    7
370
    0
100
AcDbLine
 10
429.9368107490117
 20
491.9667604514287
 11
429.9368107490117
 21
491.9496320724403
  0
LINE
  5
238
100
AcDbEntity
  8
0
  6
CONTINUOUS
 62
    7
370
    0
100
AcDbLine
 10
429.9368107490117
 20
491.9496320724403
 11
429.9368107490117
 21
491.9350119420185
  0
LINE
  5
239
100
AcDbEntity
  8
0
  6
CONTINUOUS
 62
    7
370
    0
100
AcDbLine
 10
429.9368107490117
 20
491.9350119420185
 11
429.9368107490117
 21
491.9218309972684
  0
LINE
  5
23A
100
AcDbEntity
  8
0
  6
CONTINUOUS
 62
    7
370
    0
100
AcDbLine
 10
429.9368107490117
 20
491.9218309972684
 11
429.9368107490117
 21
491.9090201752949
  0
LINE
  5
23B
100
AcDbEntity
  8
0
  6
CONTINUOUS
 62
    7
370
    0
100
AcDbLine
 10
429.9368107490117
 20
491.9090201752949
 11
429.9368107490117
 21
491.8955104132031
  0
LINE
  5
23C
100
AcDbEntity
  8
0
  6
CONTINUOUS
 62
    7
370
    0
100
AcDbLine
 10
429.9368107490117
 20
491.8955104132031
 11
429.9368107490117
 21
491.8802326480977
  0
LINE
  5
23D
100
AcDbEntity
  8
0
  6
CONTINUOUS
 62
    7
370
    0
100
AcDbLine
 10
429.9368107490117
 20
491.8802326480977
 11
429.9368107490117
 21
491.8621178170837
  0
LINE
  5
23E
100
AcDbEntity
  8
0
  6
CONTINUOUS
 62
    7
370
    0
100
AcDbLine
 10
429.9368107490117
 20
491.8621178170837
 11
429.9368107490117
 21
491.840096857266
  0
LINE
  5
23F
100
AcDbEntity
  8
0
  6
CONTINUOUS
 62
    7
370
    0
100
AcDbLine
 10
429.9368107490117
 20
491.840096857266
 11
429.9368436230888
 21
491.8132300320814
  0
LINE
  5
240
100
AcDbEntity
  8
0
  6
CONTINUOUS
 62
    7
370
    0
100
AcDbLine
 10
429.9368436230888
 20
491.8132300320814
 11
429.9372107279078
 21
491.7816338131184
  0
LINE
  5
241
100
AcDbEntity
  8
0
  6
CONTINUOUS
 62
    7
370
    0
100
AcDbLine
 10
429.9372107279078
 20
491.7816338131184
 11
429.938344521953
 21
491.7459404253769
  0
LINE
  5
242
100
AcDbEntity
  8
0
  6
CONTINUOUS
 62
    7
370
    0
100
AcDbLine
 10
429.938344521953
 20
491.7459404253769
 11
429.9406783513086
 21
491.7067855856674
  0
LINE
  5
243
100
AcDbEntity
  8
0
  6
CONTINUOUS
 62
    7
370
    0
100
AcDbLine
 10
429.9406783513086
 20
491.7067855856674
 11
429.9446455620591
 21
491.6648050108008
  0
LINE
  5
244
100
AcDbEntity
  8
0
  6
CONTINUOUS
 62
    7
370
    0
100
AcDbLine
 10
429.9446455620591
 20
491.6648050108008
 11
429.9506795002888
 21
491.6206344175878
  0
LINE
  5
245
100
AcDbEntity
  8
0
  6
CONTINUOUS
 62
    7
370
    0
100
AcDbLine
 10
429.9506795002888
 20
491.6206344175878
 11
429.9592135120821
 21
491.5749095228388
  0
LINE
  5
246
100
AcDbEntity
  8
0
  6
CONTINUOUS
 62
    7
370
    0
100
AcDbLine
 10
429.9592135120821
 20
491.5749095228388
 11
429.9706809435232
 21
491.528266043365
  0
LINE
  5
247
100
AcDbEntity
  8
0
  6
CONTINUOUS
 62
    7
370
    0
100
AcDbLine
 10
429.9706809435232
 20
491.528266043365
 11
429.9855151406966
 21
491.4813396959768
  0
LINE
  5
248
100
AcDbEntity
  8
0
  6
CONTINUOUS
 62
    7
370
    0
100
AcDbLine
 10
429.9855151406966
 20
491.4813396959768
 11
430.0041494496867
 21
491.4347661974849
  0
LINE
  5
249
100
AcDbEntity
  8
0
  6
CONTINUOUS
 62
    7
370
    9
100
AcDbLine
 10
430.0041494496867
 20
485.9187548529169
 11
430.026889631043
 21
485.8731193242495
  0
LINE
  5
24A
100
AcDbEntity
  8
0
  6
CONTINUOUS
 62
    7
370
    0
100
AcDbLine
 10
430.026889631043
 20
485.8731193242495
 11
430.053531103177
 21
485.828804502804
  0
LINE
  5
24B
100
AcDbEntity
  8
0
  6
CONTINUOUS
 62
    7
370
    0
100
AcDbLine
 10
430.053531103177
 20
485.828804502804
 11
430.0837416989655
 21
485.7861425300952
  0
LINE
  5
24C
100
AcDbEntity
  8
0
  6
CONTINUOUS
 62
    7
370
    0
100
AcDbLine
 10
430.0837416989655
 20
485.7861425300952
 11
430.1171892512849
 21
485.7454655476379
  0
LINE
  5
24D
100
AcDbEntity
  8
0
  6
CONTINUOUS
 62
    7
370
    0
100
AcDbLine
 10
430.1171892512849
 20
485.7454655476379
 11
430.1535415930122
 21
485.7071056969472
  0
LINE
  5
24E
100
AcDbEntity
  8
0
  6
CONTINUOUS
 62
    7
370
    0
100
AcDbLine
 10
430.1535415930122
 20
485.7071056969472
 11
430.1924665570241
 21
485.6713951195377
  0
LINE
  5
24F
100
AcDbEntity
  8
0
  6
CONTINUOUS
 62
    7
370
    0
100
AcDbLine
 10
430.1924665570241
 20
485.6713951195377
 11
430.2336319761974
 21
485.6386659569244
  0
LINE
  5
250
100
AcDbEntity
  8
0
  6
CONTINUOUS
 62
    7
370
    0
100
AcDbLine
 10
430.2336319761974
 20
485.6386659569244
 11
430.2767056834086
 21
485.6092503506219
  0
LINE
  5
251
100
AcDbEntity
  8
0
  6
CONTINUOUS
 62
    7
370
    0
100
AcDbLine
 10
430.2767056834086
 20
485.6092503506219
 11
430.3213555115346
 21
485.5834804421452
  0
LINE
  5
252
100
AcDbEntity
  8
0
  6
CONTINUOUS
 62
    7
370
    0
100
AcDbLine
 10
430.3213555115346
 20
485.5834804421452
 11
430.367249766573
 21
485.5616868051272
  0
LINE
  5
253
100
AcDbEntity
  8
0
  6
CONTINUOUS
 62
    7
370
    0
100
AcDbLine
 10
430.367249766573
 20
485.5616868051272
 11
430.4141266362383
 21
485.5439684312344
  0
LINE
  5
254
100
AcDbEntity
  8
0
  6
CONTINUOUS
 62
    7
370
    0
100
AcDbLine
 10
430.4141266362383
 20
485.5439684312344
 11
430.4618674185712
 21
485.5299500568873
  0
LINE
  5
255
100
AcDbEntity
  8
0
  6
CONTINUOUS
 62
    7
370
    0
100
AcDbLine
 10
430.4618674185712
 20
485.5299500568873
 11
430.5103709346105
 21
485.5191983488057
  0
LINE
  5
256
100
AcDbEntity
  8
0
  6
CONTINUOUS
 62
    7
370
    0
100
AcDbLine
 10
430.5103709346105
 20
485.5191983488057
 11
430.5595360053955
 21
485.5112799737095
  0
LINE
  5
257
100
AcDbEntity
  8
0
  6
CONTINUOUS
 62
    7
370
    0
100
AcDbLine
 10
430.5595360053955
 20
485.5112799737095
 11
430.6092614519648
 21
485.5057615983188
  0
LINE
  5
258
100
AcDbEntity
  8
0
  6
CONTINUOUS
 62
    7
370
    0
100
AcDbLine
 10
430.6092614519648
 20
485.5057615983188
 11
430.6594460953575
 21
485.5022098893531
  0
LINE
  5
259
100
AcDbEntity
  8
0
  6
CONTINUOUS
 62
    7
370
    0
100
AcDbLine
 10
430.6594460953575
 20
485.5022098893531
 11
430.7099887566123
 21
485.5001915135326
  0
LINE
  5
25A
100
AcDbEntity
  8
0
  6
CONTINUOUS
 62
    7
370
    0
100
AcDbLine
 10
430.7099887566123
 20
485.5001915135326
 11
430.7607882567684
 21
485.4992731375769
  0
LINE
  5
25B
100
AcDbEntity
  8
0
  6
CONTINUOUS
 62
    7
370
    0
100
AcDbLine
 10
430.7607882567684
 20
485.4992731375769
 11
430.8117434168647
 21
485.4990214282062
  0
LINE
  5
25C
100
AcDbEntity
  8
0
  6
CONTINUOUS
 62
    7
370
    0
100
AcDbLine
 10
430.8117434168647
 20
485.4990214282062
 11
430.8627530579399
 21
485.4990172533218
  0
LINE
  5
25D
100
AcDbEntity
  8
0
  6
CONTINUOUS
 62
    7
370
    0
100
AcDbLine
 10
430.8627530579399
 20
485.4990172533218
 11
430.913716001033
 21
485.4992356293633
  0
LINE
  5
25E
100
AcDbEntity
  8
0
  6
CONTINUOUS
 62
    7
370
    0
100
AcDbLine
 10
430.913716001033
 20
485.4992356293633
 11
430.9645310671831
 21
485.5000873386604
  0
LINE
  5
25F
100
AcDbEntity
  8
0
  6
CONTINUOUS
 62
    7
370
    0
100
AcDbLine
 10
430.9645310671831
 20
485.5000873386604
 11
431.0150970774289
 21
485.5020057144932
  0
LINE
  5
260
100
AcDbEntity
  8
0
  6
CONTINUOUS
 62
    7
370
    0
100
AcDbLine
 10
431.0150970774289
 20
485.5020057144932
 11
431.0653128528096
 21
485.5054240901419
  0
LINE
  5
261
100
AcDbEntity
  8
0
  6
CONTINUOUS
 62
    7
370
    0
100
AcDbLine
 10
431.0653128528096
 20
485.5054240901419
 11
431.1150772143639
 21
485.5107757988865
  0
LINE
  5
262
100
AcDbEntity
  8
0
  6
CONTINUOUS
 62
    7
370
    0
100
AcDbLine
 10
431.1150772143639
 20
485.5107757988865
 11
431.1642889831308
 21
485.5184941740072
  0
LINE
  5
263
100
AcDbEntity
  8
0
  6
CONTINUOUS
 62
    7
370
    0
100
AcDbLine
 10
431.1642889831308
 20
485.5184941740072
 11
431.2128469801493
 21
485.5290125487841
  0
LINE
  5
264
100
AcDbEntity
  8
0
  6
CONTINUOUS
 62
    7
370
    0
100
AcDbLine
 10
431.2128469801493
 20
485.5290125487841
 11
431.2606500264582
 21
485.5427642564973
  0
LINE
  5
265
100
AcDbEntity
  8
0
  6
CONTINUOUS
 62
    7
370
    0
100
AcDbLine
 10
431.2606500264582
 20
485.5427642564973
 11
431.3075969430964
 21
485.560182630427
  0
LINE
  5
266
100
AcDbEntity
  8
0
  6
CONTINUOUS
 62
    7
370
    0
100
AcDbLine
 10
431.3075969430964
 20
485.560182630427
 11
431.3535737768373
 21
485.5816586710416
  0
LINE
  5
267
100
AcDbEntity
  8
0
  6
CONTINUOUS
 62
    7
370
    0
100
AcDbLine
 10
431.3535737768373
 20
485.5816586710416
 11
431.3983310866321
 21
485.607134383883
  0
LINE
  5
268
100
AcDbEntity
  8
0
  6
CONTINUOUS
 62
    7
370
    0
100
AcDbLine
 10
431.3983310866321
 20
485.607134383883
 11
431.4415378268293
 21
485.6362813438977
  0
LINE
  5
269
100
AcDbEntity
  8
0
  6
CONTINUOUS
 62
    7
370
    0
100
AcDbLine
 10
431.4415378268293
 20
485.6362813438977
 11
431.4828618303056
 21
485.6687674095704
  0
LINE
  5
26A
100
AcDbEntity
  8
0
  6
CONTINUOUS
 62
    7
370
    0
100
AcDbLine
 10
431.4828618303056
 20
485.6687674095704
 11
431.5219709299379
 21
485.7042604393866
  0
LINE
  5
26B
100
AcDbEntity
  8
0
  6
CONTINUOUS
 62
    7
370
    0
100
AcDbLine
 10
431.5219709299379
 20
485.7042604393866
 11
431.5585329586028
 21
485.7424282918314
  0
LINE
  5
26C
100
AcDbEntity
  8
0
  6
CONTINUOUS
 62
    7
370
    0
100
AcDbLine
 10
431.5585329586028
 20
485.7424282918314
 11
431.5922157491769
 21
485.7829388253899
  0
LINE
  5
26D
100
AcDbEntity
  8
0
  6
CONTINUOUS
 62
    7
370
    0
100
AcDbLine
 10
431.5922157491769
 20
485.7829388253899
 11
431.6226871345372
 21
485.8254598985474
  0
LINE
  5
26E
100
AcDbEntity
  8
0
  6
CONTINUOUS
 62
    7
370
    0
100
AcDbLine
 10
431.6226871345372
 20
485.8254598985474
 11
431.6496149475603
 21
485.8696593697889
  0
LINE
  5
26F
100
AcDbEntity
  8
0
  6
CONTINUOUS
 62
    7
370
    0
100
AcDbLine
 10
431.6496149475603
 20
485.8696593697889
 11
431.6726670211228
 21
485.9152050975995
  0
LINE
  5
270
100
AcDbEntity
  8
0
  6
CONTINUOUS
 62
    7
370
    0
100
AcDbLine
 10
431.6726670211228
 20
485.9152050975995
 11
431.6916115375799
 21
485.9617952168485
  0
LINE
  5
271
100
AcDbEntity
  8
0
  6
CONTINUOUS
 62
    7
370
    0
100
AcDbLine
 10
431.6916115375799
 20
485.9617952168485
 11
431.7067226659788
 21
486.0092805233617
  0
LINE
  5
272
100
AcDbEntity
  8
0
  6
CONTINUOUS
 62
    7
370
    0
100
AcDbLine
 10
431.7067226659788
 20
486.0092805233617
 11
431.7184336943312
 21
486.0575598206568
  0
LINE
  5
273
100
AcDbEntity
  8
0
  6
CONTINUOUS
 62
    7
370
    0
100
AcDbLine
 10
431.7184336943312
 20
486.0575598206568
 11
431.7271779687216
 21
486.1065319297727
  0
LINE
  5
274
100
AcDbEntity
  8
0
  6
CONTINUOUS
 62
    7
370
    0
100
AcDbLine
 10
431.7271779687216
 20
486.1065319297727
 11
431.7333888352342
 21
486.1560956717485
  0
LINE
  5
275
100
AcDbEntity
  8
0
  6
CONTINUOUS
 62
    7
370
    0
100
AcDbLine
 10
431.7333888352342
 20
486.1560956717485
 11
431.7374996399536
 21
486.2061498676231
  0
LINE
  5
276
100
AcDbEntity
  8
0
  6
CONTINUOUS
 62
    7
370
    0
100
AcDbLine
 10
431.7374996399536
 20
486.2061498676231
 11
431.7399437289638
 21
486.2565933384353
  0
LINE
  5
277
100
AcDbEntity
  8
0
  6
CONTINUOUS
 62
    7
370
    0
100
AcDbLine
 10
431.7399437289638
 20
486.2565933384353
 11
431.7411544483493
 21
486.3073249052241
  0
LINE
  5
278
100
AcDbEntity
  8
0
  6
CONTINUOUS
 62
    7
370
    0
100
AcDbLine
 10
431.7411544483493
 20
486.3073249052241
 11
431.7415651441946
 21
486.3582433890284
  0
LINE
  5
279
100
AcDbEntity
  8
0
  6
CONTINUOUS
 62
    7
370
    0
100
AcDbLine
 10
431.7415651441946
 20
486.3582433890284
 11
431.7416086365986
 21
486.4092476108639
  0
LINE
  5
27A
100
AcDbEntity
  8
0
  6
CONTINUOUS
 62
    7
370
    0
100
AcDbLine
 10
431.7416086365986
 20
486.4092476108639
 11
431.7414979495811
 21
486.4602363820046
  0
LINE
  5
27B
100
AcDbEntity
  8
0
  6
CONTINUOUS
 62
    7
370
    0
100
AcDbLine
 10
431.7414979495811
 20
486.4602363820046
 11
431.7408872478507
 21
486.5111084889551
  0
LINE
  5
27C
100
AcDbEntity
  8
0
  6
CONTINUOUS
 62
    7
370
    0
100
AcDbLine
 10
431.7408872478507
 20
486.5111084889551
 11
431.7393431853233
 21
486.5617627143421
  0
LINE
  5
27D
100
AcDbEntity
  8
0
  6
CONTINUOUS
 62
    7
370
    0
100
AcDbLine
 10
431.7393431853233
 20
486.5617627143421
 11
431.7364324159145
 21
486.6120978407915
  0
LINE
  5
27E
100
AcDbEntity
  8
0
  6
CONTINUOUS
 62
    7
370
    0
100
AcDbLine
 10
431.7364324159145
 20
486.6120978407915
 11
431.73172159354
 21
486.6620126509297
  0
LINE
  5
27F
100
AcDbEntity
  8
0
  6
CONTINUOUS
 62
    7
370
    0
100
AcDbLine
 10
431.73172159354
 20
486.6620126509297
 11
431.7247773721155
 21
486.7114059273831
  0
LINE
  5
280
100
AcDbEntity
  8
0
  6
CONTINUOUS
 62
    7
370
    0
100
AcDbLine
 10
431.7247773721155
 20
486.7114059273831
 11
431.7151664055563
 21
486.7601764527777
  0
LINE
  5
281
100
AcDbEntity
  8
0
  6
CONTINUOUS
 62
    7
370
    0
100
AcDbLine
 10
431.7151664055563
 20
486.7601764527777
 11
431.7024553477784
 21
486.8082230097398
  0
LINE
  5
282
100
AcDbEntity
  8
0
  6
CONTINUOUS
 62
    7
370
    0
100
AcDbLine
 10
431.7024553477784
 20
486.8082230097398
 11
431.6862108526974
 21
486.8554443808959
  0
LINE
  5
283
100
AcDbEntity
  8
0
  6
CONTINUOUS
 62
    7
370
    0
100
AcDbLine
 10
431.6862108526974
 20
486.8554443808959
 11
431.6660068333056
 21
486.9017371592258
  0
LINE
  5
284
100
AcDbEntity
  8
0
  6
CONTINUOUS
 62
    7
370
    0
100
AcDbLine
 10
431.6660068333056
 20
486.9017371592258
 11
431.6417268457777
 21
486.9469045361583
  0
LINE
  5
285
100
AcDbEntity
  8
0
  6
CONTINUOUS
 62
    7
370
    0
100
AcDbLine
 10
431.6417268457777
 20
486.9469045361583
 11
431.6136733240578
 21
486.9906233517739
  0
LINE
  5
286
100
AcDbEntity
  8
0
  6
CONTINUOUS
 62
    7
370
    0
100
AcDbLine
 10
431.6136733240578
 20
486.9906233517739
 11
431.5821784352696
 21
487.0325614773621
  0
LINE
  5
287
100
AcDbEntity
  8
0
  6
CONTINUOUS
 62
    7
370
    0
100
AcDbLine
 10
431.5821784352696
 20
487.0325614773621
 11
431.547574346536
 21
487.0723867842121
  0
LINE
  5
288
100
AcDbEntity
  8
0
  6
CONTINUOUS
 62
    7
370
    0
100
AcDbLine
 10
431.547574346536
 20
487.0723867842121
 11
431.5101932249805
 21
487.1097671436133
  0
LINE
  5
289
100
AcDbEntity
  8
0
  6
CONTINUOUS
 62
    7
370
    0
100
AcDbLine
 10
431.5101932249805
 20
487.1097671436133
 11
431.4703672377262
 21
487.1443704268553
  0
LINE
  5
28A
100
AcDbEntity
  8
0
  6
CONTINUOUS
 62
    7
370
    0
100
AcDbLine
 10
431.4703672377262
 20
487.1443704268553
 11
431.4284285518966
 21
487.1758645052274
  0
LINE
  5
28B
100
AcDbEntity
  8
0
  6
CONTINUOUS
 62
    7
370
    0
100
AcDbLine
 10
431.4284285518966
 20
487.1758645052274
 11
431.3847093346149
 21
487.2039172500189
  0
LINE
  5
28C
100
AcDbEntity
  8
0
  6
CONTINUOUS
 62
    7
370
    0
100
AcDbLine
 10
431.3847093346149
 20
487.2039172500189
 11
431.3395417530042
 21
487.2281965325192
  0
LINE
  5
28D
100
AcDbEntity
  8
0
  6
CONTINUOUS
 62
    7
370
    0
100
AcDbLine
 10
431.3395417530042
 20
487.2281965325192
 11
431.2932490024129
 21
487.2483999552073
  0
LINE
  5
28E
100
AcDbEntity
  8
0
  6
CONTINUOUS
 62
    7
370
    0
100
AcDbLine
 10
431.2932490024129
 20
487.2483999552073
 11
431.2460278848032
 21
487.2646439703068
  0
LINE
  5
28F
100
AcDbEntity
  8
0
  6
CONTINUOUS
 62
    7
370
    0
100
AcDbLine
 10
431.2460278848032
 20
487.2646439703068
 11
431.1979817695109
 21
487.2773546525069
  0
LINE
  5
290
100
AcDbEntity
  8
0
  6
CONTINUOUS
 62
    7
370
    0
100
AcDbLine
 10
431.1979817695109
 20
487.2773546525069
 11
431.1492118354971
 21
487.2869653350874
  0
LINE
  5
291
100
AcDbEntity
  8
0
  6
CONTINUOUS
 62
    7
370
    0
100
AcDbLine
 10
431.1492118354971
 20
487.2869653350874
 11
431.0998192617228
 21
487.2939093513288
  0
LINE
  5
292
100
AcDbEntity
  8
0
  6
CONTINUOUS
 62
    7
370
    0
100
AcDbLine
 10
431.0998192617228
 20
487.2939093513288
 11
431.0499052271492
 21
487.298620034511
  0
LINE
  5
293
100
AcDbEntity
  8
0
  6
CONTINUOUS
 62
    7
370
    0
100
AcDbLine
 10
431.0499052271492
 20
487.298620034511
 11
430.9995709107372
 21
487.3015307179144
  0
LINE
  5
294
100
AcDbEntity
  8
0
  6
CONTINUOUS
 62
    7
370
    0
100
AcDbLine
 10
430.9995709107372
 20
487.3015307179144
 11
430.948917491448
 21
487.3030747348189
  0
LINE
  5
295
100
AcDbEntity
  8
0
  6
CONTINUOUS
 62
    7
370
    0
100
AcDbLine
 10
430.948917491448
 20
487.3030747348189
 11
430.8980461482427
 21
487.3036854185046
  0
LINE
  5
296
100
AcDbEntity
  8
0
  6
CONTINUOUS
 62
    7
370
    0
100
AcDbLine
 10
430.8980461482427
 20
487.3036854185046
 11
430.8470580600823
 21
487.3037961022516
  0
LINE
  5
297
100
AcDbEntity
  8
0
  6
CONTINUOUS
 62
    7
370
    0
100
AcDbLine
 10
430.8470580600823
 20
487.3037961022516
 11
430.7960544059279
 21
487.3037526111328
  0
LINE
  5
298
100
AcDbEntity
  8
0
  6
CONTINUOUS
 62
    7
370
    0
100
AcDbLine
 10
430.7960544059279
 20
487.3037526111328
 11
430.7451363647405
 21
487.3033419274225
  0
LINE
  5
299
100
AcDbEntity
  8
0
  6
CONTINUOUS
 62
    7
370
    0
100
AcDbLine
 10
430.7451363647405
 20
487.3033419274225
 11
430.6944051154812
 21
487.3021312438105
  0
LINE
  5
29A
100
AcDbEntity
  8
0
  6
CONTINUOUS
 62
    7
370
    0
100
AcDbLine
 10
430.6944051154812
 20
487.3021312438105
 11
430.6439618371111
 21
487.2996872270166
  0
LINE
  5
29B
100
AcDbEntity
  8
0
  6
CONTINUOUS
 62
    7
370
    0
100
AcDbLine
 10
430.6439618371111
 20
487.2996872270166
 11
430.5939077085913
 21
487.2955765437606
  0
LINE
  5
29C
100
AcDbEntity
  8
0
  6
CONTINUOUS
 62
    7
370
    0
100
AcDbLine
 10
430.5939077085913
 20
487.2955765437606
 11
430.5443439088829
 21
487.2893658607624
  0
LINE
  5
29D
100
AcDbEntity
  8
0
  6
CONTINUOUS
 62
    7
370
    0
100
AcDbLine
 10
430.5443439088829
 20
487.2893658607624
 11
430.4953716169469
 21
487.2806218447421
  0
LINE
  5
29E
100
AcDbEntity
  8
0
  6
CONTINUOUS
 62
    7
370
    0
100
AcDbLine
 10
430.4953716169469
 20
487.2806218447421
 11
430.4470920117444
 21
487.2689111624193
  0
LINE
  5
29F
100
AcDbEntity
  8
0
  6
CONTINUOUS
 62
    7
370
    0
100
AcDbLine
 10
430.4470920117444
 20
487.2689111624193
 11
430.3996062722364
 21
487.2538004805138
  0
LINE
  5
2A0
100
AcDbEntity
  8
0
  6
CONTINUOUS
 62
    7
370
    0
100
AcDbLine
 10
430.3996062722364
 20
487.2538004805138
 11
430.3530155949072
 21
487.2348565238146
  0
LINE
  5
2A1
100
AcDbEntity
  8
0
  6
CONTINUOUS
 62
    7
370
    0
100
AcDbLine
 10
430.3530155949072
 20
487.2348565238146
 11
430.3074691892556
 21
487.2118051254285
  0
LINE
  5
2A2
100
AcDbEntity
  8
0
  6
CONTINUOUS
 62
    7
370
    0
100
AcDbLine
 10
430.3074691892556
 20
487.2118051254285
 11
430.2632689426643
 21
487.1848780713017
  0
LINE
  5
2A3
100
AcDbEntity
  8
0
  6
CONTINUOUS
 62
    7
370
    0
100
AcDbLine
 10
430.2632689426643
 20
487.1848780713017
 11
430.2207470222563
 21
487.1544074901452
  0
LINE
  5
2A4
100
AcDbEntity
  8
0
  6
CONTINUOUS
 62
    7
370
    0
100
AcDbLine
 10
430.2207470222563
 20
487.1544074901452
 11
430.1802355951551
 21
487.1207255106691
  0
LINE
  5
2A5
100
AcDbEntity
  8
0
  6
CONTINUOUS
 62
    7
370
    0
100
AcDbLine
 10
430.1802355951551
 20
487.1207255106691
 11
430.1420668284839
 21
487.0841642615844
  0
LINE
  5
2A6
100
AcDbEntity
  8
0
  6
CONTINUOUS
 62
    7
370
    0
100
AcDbLine
 10
430.1420668284839
 20
487.0841642615844
 11
430.1065728893659
 21
487.0450558716013
  0
LINE
  5
2A7
100
AcDbEntity
  8
0
  6
CONTINUOUS
 62
    7
370
    0
100
AcDbLine
 10
430.1065728893659
 20
487.0450558716013
 11
430.0740859449245
 21
487.0037324694309
  0
LINE
  5
2A8
100
AcDbEntity
  8
0
  6
CONTINUOUS
 62
    7
370
    0
100
AcDbLine
 10
430.0740859449245
 20
487.0037324694309
 11
430.0449381622829
 21
486.9605261837835
  0
LINE
  5
2A9
100
AcDbEntity
  8
0
  6
CONTINUOUS
 62
    7
370
    0
100
AcDbLine
 10
430.0449381622829
 20
486.9605261837835
 11
430.0194617085643
 21
486.91576914337
  0
LINE
  5
2AA
100
AcDbEntity
  8
0
  6
CONTINUOUS
 62
    7
370
    0
100
AcDbLine
 10
430.0194617085643
 20
486.91576914337
 11
429.9979850342449
 21
486.8697949509772
  0
LINE
  5
2AB
100
AcDbEntity
  8
0
  6
CONTINUOUS
 62
    7
370
    0
100
AcDbLine
 10
429.9979850342449
 20
486.8697949509772
 11
429.9805661456335
 21
486.8230444714954
  0
LINE
  5
2AC
100
AcDbEntity
  8
0
  6
CONTINUOUS
 62
    7
370
    0
100
AcDbLine
 10
429.9805661456335
 20
486.8230444714954
 11
429.9668140315819
 21
486.7761366566904
  0
LINE
  5
2AD
100
AcDbEntity
  8
0
  6
CONTINUOUS
 62
    7
370
    0
100
AcDbLine
 10
429.9668140315819
 20
486.7761366566904
 11
429.956295346006
 21
486.7297072489812
  0
LINE
  5
2AE
100
AcDbEntity
  8
0
  6
CONTINUOUS
 62
    7
370
    0
100
AcDbLine
 10
429.956295346006
 20
486.7297072489812
 11
429.9485767428212
 21
486.6843919907869
  0
LINE
  5
2AF
100
AcDbEntity
  8
0
  6
CONTINUOUS
 62
    7
370
    0
100
AcDbLine
 10
429.9485767428212
 20
486.6843919907869
 11
429.9432248759431
 21
486.640826624527
  0
LINE
  5
2B0
100
AcDbEntity
  8
0
  6
CONTINUOUS
 62
    7
370
    0
100
AcDbLine
 10
429.9432248759431
 20
486.640826624527
 11
429.9398063992876
 21
486.5996468926203
  0
LINE
  5
2B1
100
AcDbEntity
  8
0
  6
CONTINUOUS
 62
    7
370
    0
100
AcDbLine
 10
429.9398063992876
 20
486.5996468926203
 11
429.9378879667702
 21
486.5614885374862
  0
LINE
  5
2B2
100
AcDbEntity
  8
0
  6
CONTINUOUS
 62
    7
370
    0
100
AcDbLine
 10
429.9378879667702
 20
486.5614885374862
 11
429.9370362323066
 21
486.5269873015437
  0
LINE
  5
2B3
100
AcDbEntity
  8
0
  6
CONTINUOUS
 62
    7
370
    0
100
AcDbLine
 10
429.9370362323066
 20
486.5269873015437
 11
429.9368178498124
 21
486.4967789272121
  0
LINE
  5
2B4
100
AcDbEntity
  8
0
  6
CONTINUOUS
 62
    7
370
    0
100
AcDbLine
 10
429.9368178498124
 20
486.4967789272121
 11
429.9368107490118
 21
486.4714547973122
  0
LINE
  5
2B5
100
AcDbEntity
  8
0
  6
CONTINUOUS
 62
    7
370
    0
100
AcDbLine
 10
429.9368107490118
 20
486.4714547973122
 11
429.9368107490117
 21
486.4507491068619
  0
LINE
  5
2B6
100
AcDbEntity
  8
0
  6
CONTINUOUS
 62
    7
370
    0
100
AcDbLine
 10
429.9368107490117
 20
486.4507491068619
 11
429.9368107490117
 21
486.4336207278734
  0
LINE
  5
2B7
100
AcDbEntity
  8
0
  6
CONTINUOUS
 62
    7
370
    0
100
AcDbLine
 10
429.9368107490117
 20
486.4336207278734
 11
429.9368107490117
 21
486.4190005974518
  0
LINE
  5
2B8
100
AcDbEntity
  8
0
  6
CONTINUOUS
 62
    7
370
    0
100
AcDbLine
 10
429.9368107490117
 20
486.4190005974518
 11
429.9368107490117
 21
486.4058196527017
  0
LINE
  5
2B9
100
AcDbEntity
  8
0
  6
CONTINUOUS
 62
    7
370
    0
100
AcDbLine
 10
429.9368107490117
 20
486.4058196527017
 11
429.9368107490117
 21
486.3930088307281
  0
LINE
  5
2BA
100
AcDbEntity
  8
0
  6
CONTINUOUS
 62
    7
370
    0
100
AcDbLine
 10
429.9368107490117
 20
486.3930088307281
 11
429.9368107490117
 21
486.3794990686363
  0
LINE
  5
2BB
100
AcDbEntity
  8
0
  6
CONTINUOUS
 62
    7
370
    0
100
AcDbLine
 10
429.9368107490117
 20
486.3794990686363
 11
429.9368107490117
 21
486.3642213035308
  0
LINE
  5
2BC
100
AcDbEntity
  8
0
  6
CONTINUOUS
 62
    7
370
    0
100
AcDbLine
 10
429.9368107490117
 20
486.3642213035308
 11
429.9368107490117
 21
486.3461064725167
  0
LINE
  5
2BD
100
AcDbEntity
  8
0
  6
CONTINUOUS
 62
    7
370
    0
100
AcDbLine
 10
429.9368107490117
 20
486.3461064725167
 11
429.9368107490117
 21
486.3240855126989
  0
LINE
  5
2BE
100
AcDbEntity
  8
0
  6
CONTINUOUS
 62
    7
370
    0
100
AcDbLine
 10
429.9368107490117
 20
486.3240855126989
 11
429.9368436230888
 21
486.2972186875144
  0
LINE
  5
2BF
100
AcDbEntity
  8
0
  6
CONTINUOUS
 62
    7
370
    0
100
AcDbLine
 10
429.9368436230888
 20
486.2972186875144
 11
429.9372107279078
 21
486.2656224685512
  0
LINE
  5
2C0
100
AcDbEntity
  8
0
  6
CONTINUOUS
 62
    7
370
    0
100
AcDbLine
 10
429.9372107279078
 20
486.2656224685512
 11
429.938344521953
 21
486.2299290808096
  0
LINE
  5
2C1
100
AcDbEntity
  8
0
  6
CONTINUOUS
 62
    7
370
    0
100
AcDbLine
 10
429.938344521953
 20
486.2299290808096
 11
429.9406783513086
 21
486.1907742411001
  0
LINE
  5
2C2
100
AcDbEntity
  8
0
  6
CONTINUOUS
 62
    7
370
    0
100
AcDbLine
 10
429.9406783513086
 20
486.1907742411001
 11
429.9446455620591
 21
486.1487936662334
  0
LINE
  5
2C3
100
AcDbEntity
  8
0
  6
CONTINUOUS
 62
    7
370
    0
100
AcDbLine
 10
429.9446455620591
 20
486.1487936662334
 11
429.9506795002888
 21
486.1046230730202
  0
LINE
  5
2C4
100
AcDbEntity
  8
0
  6
CONTINUOUS
 62
    7
370
    0
100
AcDbLine
 10
429.9506795002888
 20
486.1046230730202
 11
429.9592135120821
 21
486.0588981782712
  0
LINE
  5
2C5
100
AcDbEntity
  8
0
  6
CONTINUOUS
 62
    7
370
    0
100
AcDbLine
 10
429.9592135120821
 20
486.0588981782712
 11
429.9706809435232
 21
486.0122546987973
  0
LINE
  5
2C6
100
AcDbEntity
  8
0
  6
CONTINUOUS
 62
    7
370
    0
100
AcDbLine
 10
429.9706809435232
 20
486.0122546987973
 11
429.9855151406966
 21
485.9653283514089
  0
LINE
  5
2C7
100
AcDbEntity
  8
0
  6
CONTINUOUS
 62
    7
370
    0
100
AcDbLine
 10
429.9855151406966
 20
485.9653283514089
 11
430.0041494496867
 21
485.918754852917
  0
LINE
  5
2C8
100
AcDbEntity
  8
0
  6
ByLayer
 62
    7
370
    9
100
AcDbLine
 10
438.138994293512
 20
493.0043024317598
 11
438.138994293512
 21
505.8156235436692
  0
LINE
  5
2C9
100
AcDbEntity
  8
0
  6
ByLayer
 62
    7
370
    9
100
AcDbLine
 10
432.0713961401779
 20
498.2137559531442
 11
432.0713961401779
 21
500.2034629445388
  0
LINE
  5
2CA
100
AcDbEntity
  8
0
  6
ByLayer
 62
    7
370
    9
100
AcDbLine
 10
433.7998861165378
 20
498.2137559531442
 11
433.7998861165378
 21
500.2034629445388
  0
LINE
  5
2CB
100
AcDbEntity
  8
0
  6
ByLayer
 62
    7
370
    9
100
AcDbLine
 10
428.7744818945811
 20
493.0043024317598
 11
428.7744818945811
 21
503.8075080409088
  0
LINE
  5
2CC
100
AcDbEntity
  8
0
  6
ByLayer
 62
    7
370
    9
100
AcDbLine
 10
437.096800362135
 20
493.0043024317598
 11
437.096800362135
 21
503.8075080409088
  0
LINE
  5
2CD
100
AcDbEntity
  8
0
  6
ByLayer
 62
    7
370
    9
100
AcDbLine
 10
437.096800362135
 20
503.8075080409088
 11
437.706883737497
 21
503.8075080409088
  0
LINE
  5
2CE
100
AcDbEntity
  8
0
  6
ByLayer
 62
    7
370
    9
100
AcDbLine
 10
428.164398519219
 20
503.8075080409088
 11
428.7744818945811
 21
503.8075080409088
  0
LINE
  5
2CF
100
AcDbEntity
  8
0
  6
ByLayer
 62
    7
370
    9
100
AcDbLine
 10
431.5443778893811
 20
498.2137559531442
 11
432.0713961401779
 21
498.2137559531442
  0
LINE
  5
2D0
100
AcDbEntity
  8
0
  6
ByLayer
 62
    7
370
    9
100
AcDbLine
 10
431.5443778893811
 20
500.2034629445388
 11
432.0713961401779
 21
500.2034629445388
  0
LINE
  5
2D1
100
AcDbEntity
  8
0
  6
ByLayer
 62
    7
370
    9
100
AcDbLine
 10
433.7998861165378
 20
498.2137559531442
 11
434.326904367335
 21
498.2137559531442
  0
LINE
  5
2D2
100
AcDbEntity
  8
0
  6
ByLayer
 62
    7
370
    9
100
AcDbLine
 10
433.7998861165378
 20
500.2034629445388
 11
434.326904367335
 21
500.2034629445388
  0
LINE
  5
2D3
100
AcDbEntity
  8
0
  6
ByLayer
 62
    7
370
    9
100
AcDbLine
 10
430.3250706800432
 20
492.4196710319037
 11
431.3418126359144
 21
492.4196710319037
  0
LINE
  5
2D4
100
AcDbEntity
  8
0
  6
ByLayer
 62
    7
370
    9
100
AcDbLine
 10
430.3250706800432
 20
485.8868938553153
 11
430.5156978586943
 21
486.0775329720416
  0
LINE
  5
2D5
100
AcDbEntity
  8
0
  6
ByLayer
 62
    7
370
    9
100
AcDbLine
 10
431.1511854572636
 20
486.7130205706106
 11
431.3418126359144
 21
486.9036596873362
  0
LINE
  5
2D6
100
AcDbEntity
  8
0
  6
ByLayer
 62
    7
370
    9
100
AcDbLine
 10
430.3250706800432
 20
491.4028813237336
 11
430.5156978586943
 21
491.5935204404593
  0
LINE
  5
2D7
100
AcDbEntity
  8
0
  6
ByLayer
 62
    7
370
    9
100
AcDbLine
 10
431.1511854572636
 20
486.0775329720416
 11
431.3418126359144
 21
485.8868938553153
  0
LINE
  5
2D8
100
AcDbEntity
  8
0
  6
ByLayer
 62
    7
370
    9
100
AcDbLine
 10
430.3250706800432
 20
486.9036596873362
 11
430.5156978586943
 21
486.7130205706106
  0
LINE
  5
2D9
100
AcDbEntity
  8
0
  6
ByLayer
 62
    7
370
    9
100
AcDbLine
 10
431.1511854572636
 20
491.5935204404593
 11
431.3418126359144
 21
491.4028813237336
  0
LINE
  5
2DA
100
AcDbEntity
  8
0
  6
ByLayer
 62
    7
370
    9
100
AcDbLine
 10
431.1511854572636
 20
492.2290199771035
 11
431.3418126359144
 21
492.4196710319037
  0
LINE
  5
2DB
100
AcDbEntity
  8
0
  6
ByLayer
 62
    7
370
    9
100
AcDbLine
 10
430.3250706800432
 20
492.4196710319037
 11
430.5156978586943
 21
492.2290199771035
  0
LINE
  5
2DC
100
AcDbEntity
  8
0
  6
ByLayer
 62
    7
370
    9
100
AcDbLine
 10
431.1511854572636
 20
486.0775329720416
 11
431.1511854572636
 21
486.7130205706106
  0
LINE
  5
2DD
100
AcDbEntity
  8
0
  6
ByLayer
 62
    7
370
    9
100
AcDbLine
 10
430.5156978586943
 20
486.0775329720416
 11
430.5156978586943
 21
486.7130205706106
  0
LINE
  5
2DE
100
AcDbEntity
  8
0
  6
ByLayer
 62
    7
370
    9
100
AcDbLine
 10
431.1511854572636
 20
491.5935204404593
 11
431.1511854572636
 21
492.2290199771035
  0
LINE
  5
2DF
100
AcDbEntity
  8
0
  6
ByLayer
 62
    7
370
    9
100
AcDbLine
 10
430.5156978586943
 20
491.5935204404593
 11
430.5156978586943
 21
492.2290199771035
  0
LINE
  5
2E0
100
AcDbEntity
  8
0
  6
ByLayer
 62
    7
370
    9
100
AcDbLine
 10
430.5156978586943
 20
491.5935204404593
 11
431.1511854572636
 21
491.5935204404593
  0
LINE
  5
2E1
100
AcDbEntity
  8
0
  6
ByLayer
 62
    7
370
    9
100
AcDbLine
 10
430.5156978586943
 20
492.2290199771035
 11
431.1511854572636
 21
492.2290199771035
  0
LINE
  5
2E2
100
AcDbEntity
  8
0
  6
ByLayer
 62
    7
370
    9
100
AcDbLine
 10
430.5156978586943
 20
486.0775329720416
 11
431.1511854572636
 21
486.0775329720416
  0
LINE
  5
2E3
100
AcDbEntity
  8
0
  6
ByLayer
 62
    7
370
    9
100
AcDbLine
 10
430.5156978586943
 20
486.7130205706106
 11
431.1511854572636
 21
486.7130205706106
  0
LINE
  5
2E4
100
AcDbEntity
  8
0
  6
ByLayer
 62
    7
370
    9
100
AcDbLine
 10
430.3250706800432
 20
485.8868938553153
 11
431.3418126359144
 21
485.8868938553153
  0
LINE
  5
2E5
100
AcDbEntity
  8
0
  6
ByLayer
 62
    7
370
    9
100
AcDbLine
 10
430.3250706800432
 20
486.9036596873362
 11
431.3418126359144
 21
486.9036596873362
  0
LINE
  5
2E6
100
AcDbEntity
  8
0
  6
ByLayer
 62
    7
370
    9
100
AcDbLine
 10
430.3250706800432
 20
491.4028813237336
 11
431.3418126359144
 21
491.4028813237336
  0
LINE
  5
2E7
100
AcDbEntity
  8
0
  6
ByLayer
 62
    7
370
    9
100
AcDbLine
 10
431.3418126359144
 20
485.8868938553153
 11
431.3418126359144
 21
493.0043024317598
  0
LINE
  5
2E8
100
AcDbEntity
  8
0
  6
ByLayer
 62
    7
370
    9
100
AcDbLine
 10
430.3250706800432
 20
485.8868938553153
 11
430.3250706800432
 21
493.0043024317598
  0
LINE
  5
2E9
100
AcDbEntity
  8
0
  6
ByLayer
 62
    7
370
    9
100
AcDbLine
 10
434.5294696208016
 20
492.4196710319037
 11
435.5462115766728
 21
492.4196710319037
  0
LINE
  5
2EA
100
AcDbEntity
  8
0
  6
ByLayer
 62
    7
370
    9
100
AcDbLine
 10
434.5294696208016
 20
485.8868938553153
 11
434.7200967994524
 21
486.0775329720416
  0
LINE
  5
2EB
100
AcDbEntity
  8
0
  6
ByLayer
 62
    7
370
    9
100
AcDbLine
 10
435.3555843980217
 20
486.7130205706106
 11
435.5462115766728
 21
486.9036596873362
  0
LINE
  5
2EC
100
AcDbEntity
  8
0
  6
ByLayer
 62
    7
370
    9
100
AcDbLine
 10
434.5294696208016
 20
491.4028813237336
 11
434.7200967994524
 21
491.5935204404593
  0
LINE
  5
2ED
100
AcDbEntity
  8
0
  6
ByLayer
 62
    7
370
    9
100
AcDbLine
 10
435.3555843980217
 20
486.0775329720416
 11
435.5462115766728
 21
485.8868938553153
  0
LINE
  5
2EE
100
AcDbEntity
  8
0
  6
ByLayer
 62
    7
370
    9
100
AcDbLine
 10
434.5294696208016
 20
486.9036596873362
 11
434.7200967994524
 21
486.7130205706106
  0
LINE
  5
2EF
100
AcDbEntity
  8
0
  6
ByLayer
 62
    7
370
    9
100
AcDbLine
 10
435.3555843980217
 20
491.5935204404593
 11
435.5462115766728
 21
491.4028813237336
  0
LINE
  5
2F0
100
AcDbEntity
  8
0
  6
ByLayer
 62
    7
370
    9
100
AcDbLine
 10
435.3555843980217
 20
492.2290199771035
 11
435.5462115766728
 21
492.4196710319037
  0
LINE
  5
2F1
100
AcDbEntity
  8
0
  6
ByLayer
 62
    7
370
    9
100
AcDbLine
 10
434.5294696208016
 20
492.4196710319037
 11
434.7200967994524
 21
492.2290199771035
  0
LINE
  5
2F2
100
AcDbEntity
  8
0
  6
ByLayer
 62
    7
370
    9
100
AcDbLine
 10
435.3555843980217
 20
486.0775329720416
 11
435.3555843980217
 21
486.7130205706106
  0
LINE
  5
2F3
100
AcDbEntity
  8
0
  6
ByLayer
 62
    7
370
    9
100
AcDbLine
 10
434.7200967994524
 20
486.0775329720416
 11
434.7200967994524
 21
486.7130205706106
  0
LINE
  5
2F4
100
AcDbEntity
  8
0
  6
ByLayer
 62
    7
370
    9
100
AcDbLine
 10
435.3555843980217
 20
491.5935204404593
 11
435.3555843980217
 21
492.2290199771035
  0
LINE
  5
2F5
100
AcDbEntity
  8
0
  6
ByLayer
 62
    7
370
    9
100
AcDbLine
 10
434.7200967994524
 20
491.5935204404593
 11
434.7200967994524
 21
492.2290199771035
  0
LINE
  5
2F6
100
AcDbEntity
  8
0
  6
ByLayer
 62
    7
370
    9
100
AcDbLine
 10
434.7200967994524
 20
491.5935204404593
 11
435.3555843980217
 21
491.5935204404593
  0
LINE
  5
2F7
100
AcDbEntity
  8
0
  6
ByLayer
 62
    7
370
    9
100
AcDbLine
 10
434.7200967994524
 20
492.2290199771035
 11
435.3555843980217
 21
492.2290199771035
  0
LINE
  5
2F8
100
AcDbEntity
  8
0
  6
ByLayer
 62
    7
370
    9
100
AcDbLine
 10
434.7200967994524
 20
486.0775329720416
 11
435.3555843980217
 21
486.0775329720416
  0
LINE
  5
2F9
100
AcDbEntity
  8
0
  6
ByLayer
 62
    7
370
    9
100
AcDbLine
 10
434.7200967994524
 20
486.7130205706106
 11
435.3555843980217
 21
486.7130205706106
  0
LINE
  5
2FA
100
AcDbEntity
  8
0
  6
ByLayer
 62
    7
370
    9
100
AcDbLine
 10
434.5294696208016
 20
485.8868938553153
 11
435.5462115766728
 21
485.8868938553153
  0
LINE
  5
2FB
100
AcDbEntity
  8
0
  6
ByLayer
 62
    7
370
    9
100
AcDbLine
 10
434.5294696208016
 20
486.9036596873362
 11
435.5462115766728
 21
486.9036596873362
  0
LINE
  5
2FC
100
AcDbEntity
  8
0
  6
ByLayer
 62
    7
370
    9
100
AcDbLine
 10
434.5294696208016
 20
491.4028813237336
 11
435.5462115766728
 21
491.4028813237336
  0
LINE
  5
2FD
100
AcDbEntity
  8
0
  6
ByLayer
 62
    7
370
    9
100
AcDbLine
 10
435.5462115766728
 20
485.8868938553153
 11
435.5462115766728
 21
493.0043024317598
  0
LINE
  5
2FE
100
AcDbEntity
  8
0
  6
ByLayer
 62
    7
370
    9
100
AcDbLine
 10
434.5294696208016
 20
485.8868938553153
 11
434.5294696208016
 21
493.0043024317598
  0
LINE
  5
2FF
100
AcDbEntity
  8
0
  6
ByLayer
 62
    7
370
    9
100
AcDbLine
 10
428.1389942960121
 20
493.0043024317598
 11
428.1389942960121
 21
505.8156235436692
  0
LINE
  5
300
100
AcDbEntity
  8
0
  6
ByLayer
 62
    7
370
    9
100
AcDbLine
 10
437.7323118368538
 20
493.0043024317598
 11
437.7323118368538
 21
505.8156235436692
  0
LINE
  5
301
100
AcDbEntity
  8
0
  6
ByLayer
 62
    7
370
    9
100
AcDbLine
 10
428.1389942960121
 20
505.8156235436692
 11
438.138994293512
 21
505.8156235436692
  0
LINE
  5
302
100
AcDbEntity
  8
0
  6
ByLayer
 62
    7
370
    9
100
AcDbLine
 10
428.1389942960121
 20
493.0043024317598
 11
438.138994293512
 21
493.0043024317598
  0
ENDSEC
  0
SECTION
  2
OBJECTS
  0
DICTIONARY
  5
C
330
0
100
AcDbDictionary
281
    1
  3
ACAD_GROUP
350
D
  0
DICTIONARY
  5
D
330
C
100
AcDbDictionary
281
    1
  0
PLOTSETTINGS
  5
303
100
AcDbPlotSettings
  6
1x1
 40
0
 41
0
 42
0
 43
0
  0
ENDSEC
  0
EOF
