  0
SECTION
  2
HEADER
  9
$ACADVER
  1
AC1009
  9
$INSBASE
 10
0.0
 20
0.0
 30
0.0
  9
$EXTMIN
 10
0.0
 20
0.0
 30
0.0
  9
$EXTMAX
 10
0.0
 20
0.0
 30
0.0
  0
ENDSEC
  0
SECTION
  2
TABLES
  0
TABLE
  2
VPORT
 70
0
  0
ENDTAB
  0
TABLE
  2
LTYPE
 70
1
  0
LTYPE
  2
CONTINUOUS
 70
0
  3
Solid line
 72
65
 73
0
 40
0.0
  0
ENDTAB
  0
TABLE
  2
LAYER
 70
1
  0
LAYER
  2
0
 70
64
 62
7
  6
continuous
  0
ENDTAB
  0
TABLE
  2
STYLE
 70
1
  0
STYLE
  2
STANDARD
 70
0
 40
0
 41
1.0
 50
0.0
 71
0
 42
1
 3
ARIAL.TTF
 4

  0
ENDTAB
  0
TABLE
  2
VIEW
 70
0
  0
ENDTAB
  0
ENDSEC
  0
SECTION
  2
BLOCKS
  0
BLOCK
  8
0
  2
SHAPE2DVIEW001
 70
0
 10
0.0
 20
0.0
 30
0.0
  3
SHAPE2DVIEW001
  0
LINE
  8
0
 62
0
 10
-14.841421356237
 20
13.3
 30
0.0
 11
-15.158578643763
 21
13.3
 31
0.0
  0
LINE
  8
0
 62
0
 10
-14.7
 20
13.441421356237
 30
0.0
 11
-14.841421356237
 21
13.3
 31
0.0
  0
LINE
  8
0
 62
0
 10
-14.841421356236998
 20
13.3
 30
0.0
 11
-14.924264068711679
 21
13.500000000000066
 31
0.0
  0
LINE
  8
0
 62
0
 10
-15.158578643762704
 20
13.299999999999939
 30
0.0
 11
-15.075735931288024
 21
13.500000000000005
 31
0.0
  0
LINE
  8
0
 62
0
 10
-14.924264068712
 20
13.5
 30
0.0
 11
-15.075735931288
 21
13.5
 31
0.0
  0
LINE
  8
0
 62
0
 10
-15.158578643763
 20
13.3
 30
0.0
 11
-15.3
 21
13.441421356237
 31
0.0
  0
LINE
  8
0
 62
0
 10
-14.7
 20
13.758578643763
 30
0.0
 11
-14.7
 21
13.441421356237
 31
0.0
  0
LINE
  8
0
 62
0
 10
-14.699999999999939
 20
13.441421356237296
 30
0.0
 11
-14.900000000000006
 21
13.524264068711975
 31
0.0
  0
LINE
  8
0
 62
0
 10
-14.9
 20
13.524264068711998
 30
0.0
 11
-14.924264068711999
 21
13.5
 31
0.0
  0
LINE
  8
0
 62
0
 10
-15.075735931288
 20
13.5
 30
0.0
 11
-15.1
 21
13.524264068712
 31
0.0
  0
LINE
  8
0
 62
0
 10
-15.1
 20
13.524264068712
 30
0.0
 11
-15.1
 21
13.675735931288
 31
0.0
  0
LINE
  8
0
 62
0
 10
-15.1
 20
13.675735931288001
 30
0.0
 11
-15.075735931288001
 21
13.7
 31
0.0
  0
LINE
  8
0
 62
0
 10
-15.075735931288
 20
13.7
 30
0.0
 11
-14.924264068712
 21
13.7
 31
0.0
  0
LINE
  8
0
 62
0
 10
-14.924264068711999
 20
13.7
 30
0.0
 11
-14.899999999999999
 21
13.675735931288
 31
0.0
  0
LINE
  8
0
 62
0
 10
-14.9
 20
13.675735931288
 30
0.0
 11
-14.9
 21
13.524264068712
 31
0.0
  0
LINE
  8
0
 62
0
 10
-15.099999999999934
 20
13.524264068711679
 30
0.0
 11
-15.3
 21
13.441421356236997
 31
0.0
  0
LINE
  8
0
 62
0
 10
-15.3
 20
13.441421356237
 30
0.0
 11
-15.3
 21
13.758578643763
 31
0.0
  0
LINE
  8
0
 62
0
 10
-14.841421356237
 20
13.9
 30
0.0
 11
-14.7
 21
13.758578643763
 31
0.0
  0
LINE
  8
0
 62
0
 10
-14.900000000000066
 20
13.675735931288322
 30
0.0
 11
-14.7
 21
13.758578643763004
 31
0.0
  0
LINE
  8
0
 62
0
 10
-15.099999999999994
 20
13.675735931288024
 30
0.0
 11
-15.300000000000061
 21
13.758578643762704
 31
0.0
  0
LINE
  8
0
 62
0
 10
-14.924264068711976
 20
13.699999999999994
 30
0.0
 11
-14.841421356237296
 21
13.90000000000006
 31
0.0
  0
LINE
  8
0
 62
0
 10
-15.075735931288321
 20
13.699999999999934
 30
0.0
 11
-15.158578643763002
 21
13.9
 31
0.0
  0
LINE
  8
0
 62
0
 10
-15.3
 20
13.758578643763
 30
0.0
 11
-15.158578643763
 21
13.9
 31
0.0
  0
LINE
  8
0
 62
0
 10
-15.158578643763
 20
13.9
 30
0.0
 11
-14.841421356237
 21
13.9
 31
0.0
  0
LINE
  8
0
 62
0
 10
-14.841421356237
 20
1.3
 30
0.0
 11
-15.158578643763
 21
1.3
 31
0.0
  0
LINE
  8
0
 62
0
 10
-14.7
 20
1.441421356237
 30
0.0
 11
-14.841421356237
 21
1.2999999999999998
 31
0.0
  0
LINE
  8
0
 62
0
 10
-14.841421356236998
 20
1.3000000000000003
 30
0.0
 11
-14.924264068711679
 21
1.5000000000000666
 31
0.0
  0
LINE
  8
0
 62
0
 10
-15.158578643762704
 20
1.2999999999999385
 30
0.0
 11
-15.075735931288024
 21
1.500000000000005
 31
0.0
  0
LINE
  8
0
 62
0
 10
-14.924264068712
 20
1.5
 30
0.0
 11
-15.075735931288
 21
1.5
 31
0.0
  0
LINE
  8
0
 62
0
 10
-15.158578643763
 20
1.3
 30
0.0
 11
-15.3
 21
1.4414213562370002
 31
0.0
  0
LINE
  8
0
 62
0
 10
-14.7
 20
1.758578643763
 30
0.0
 11
-14.7
 21
1.441421356237
 31
0.0
  0
LINE
  8
0
 62
0
 10
-14.699999999999939
 20
1.4414213562372957
 30
0.0
 11
-14.900000000000006
 21
1.5242640687119766
 31
0.0
  0
LINE
  8
0
 62
0
 10
-14.9
 20
1.5242640687119995
 30
0.0
 11
-14.924264068712
 21
1.4999999999999996
 31
0.0
  0
LINE
  8
0
 62
0
 10
-15.075735931288
 20
1.4999999999999996
 30
0.0
 11
-15.1
 21
1.5242640687119997
 31
0.0
  0
LINE
  8
0
 62
0
 10
-15.1
 20
1.524264068712
 30
0.0
 11
-15.1
 21
1.675735931288
 31
0.0
  0
LINE
  8
0
 62
0
 10
-15.1
 20
1.6757359312880005
 30
0.0
 11
-15.075735931288
 21
1.7000000000000006
 31
0.0
  0
LINE
  8
0
 62
0
 10
-15.075735931288
 20
1.7
 30
0.0
 11
-14.924264068712
 21
1.7
 31
0.0
  0
LINE
  8
0
 62
0
 10
-14.924264068712
 20
1.7000000000000004
 30
0.0
 11
-14.9
 21
1.6757359312880002
 31
0.0
  0
LINE
  8
0
 62
0
 10
-14.9
 20
1.675735931288
 30
0.0
 11
-14.9
 21
1.524264068712
 31
0.0
  0
LINE
  8
0
 62
0
 10
-15.099999999999934
 20
1.5242640687116782
 30
0.0
 11
-15.3
 21
1.4414213562369973
 31
0.0
  0
LINE
  8
0
 62
0
 10
-15.3
 20
1.441421356237
 30
0.0
 11
-15.3
 21
1.758578643763
 31
0.0
  0
LINE
  8
0
 62
0
 10
-14.841421356237
 20
1.9
 30
0.0
 11
-14.7
 21
1.7585786437629998
 31
0.0
  0
LINE
  8
0
 62
0
 10
-14.900000000000066
 20
1.6757359312883215
 30
0.0
 11
-14.7
 21
1.7585786437630027
 31
0.0
  0
LINE
  8
0
 62
0
 10
-15.099999999999994
 20
1.6757359312880233
 30
0.0
 11
-15.300000000000061
 21
1.7585786437627042
 31
0.0
  0
LINE
  8
0
 62
0
 10
-14.924264068711976
 20
1.699999999999995
 30
0.0
 11
-14.841421356237296
 21
1.9000000000000614
 31
0.0
  0
LINE
  8
0
 62
0
 10
-15.075735931288321
 20
1.6999999999999333
 30
0.0
 11
-15.158578643763002
 21
1.8999999999999997
 31
0.0
  0
LINE
  8
0
 62
0
 10
-15.3
 20
1.758578643763
 30
0.0
 11
-15.158578643763
 21
1.9000000000000001
 31
0.0
  0
LINE
  8
0
 62
0
 10
-15.158578643763
 20
1.9
 30
0.0
 11
-14.841421356237
 21
1.9
 31
0.0
  0
LINE
  8
0
 62
0
 10
-2.841421356237
 20
13.3
 30
0.0
 11
-3.158578643763
 21
13.3
 31
0.0
  0
LINE
  8
0
 62
0
 10
-2.7
 20
13.441421356237
 30
0.0
 11
-2.8414213562370003
 21
13.3
 31
0.0
  0
LINE
  8
0
 62
0
 10
-2.8414213562369977
 20
13.3
 30
0.0
 11
-2.924264068711678
 21
13.500000000000066
 31
0.0
  0
LINE
  8
0
 62
0
 10
-3.158578643762704
 20
13.299999999999939
 30
0.0
 11
-3.075735931288023
 21
13.500000000000005
 31
0.0
  0
LINE
  8
0
 62
0
 10
-2.924264068712
 20
13.5
 30
0.0
 11
-3.075735931288
 21
13.5
 31
0.0
  0
LINE
  8
0
 62
0
 10
-3.158578643763
 20
13.3
 30
0.0
 11
-3.3000000000000003
 21
13.441421356237
 31
0.0
  0
LINE
  8
0
 62
0
 10
-2.7
 20
13.758578643763
 30
0.0
 11
-2.7
 21
13.441421356237
 31
0.0
  0
LINE
  8
0
 62
0
 10
-2.699999999999939
 20
13.441421356237296
 30
0.0
 11
-2.900000000000005
 21
13.524264068711975
 31
0.0
  0
LINE
  8
0
 62
0
 10
-2.8999999999999995
 20
13.524264068712
 30
0.0
 11
-2.9242640687119996
 21
13.5
 31
0.0
  0
LINE
  8
0
 62
0
 10
-3.0757359312879995
 20
13.5
 30
0.0
 11
-3.0999999999999996
 21
13.524264068712
 31
0.0
  0
LINE
  8
0
 62
0
 10
-3.1
 20
13.524264068712
 30
0.0
 11
-3.1
 21
13.675735931288
 31
0.0
  0
LINE
  8
0
 62
0
 10
-3.1000000000000005
 20
13.675735931288
 30
0.0
 11
-3.0757359312880004
 21
13.7
 31
0.0
  0
LINE
  8
0
 62
0
 10
-3.075735931288
 20
13.7
 30
0.0
 11
-2.924264068712
 21
13.7
 31
0.0
  0
LINE
  8
0
 62
0
 10
-2.9242640687119996
 20
13.7
 30
0.0
 11
-2.8999999999999995
 21
13.675735931288
 31
0.0
  0
LINE
  8
0
 62
0
 10
-2.9
 20
13.675735931288
 30
0.0
 11
-2.9
 21
13.524264068712
 31
0.0
  0
LINE
  8
0
 62
0
 10
-3.0999999999999335
 20
13.524264068711679
 30
0.0
 11
-3.2999999999999994
 21
13.441421356236997
 31
0.0
  0
LINE
  8
0
 62
0
 10
-3.3
 20
13.441421356237
 30
0.0
 11
-3.3
 21
13.758578643763
 31
0.0
  0
LINE
  8
0
 62
0
 10
-2.841421356237
 20
13.9
 30
0.0
 11
-2.6999999999999997
 21
13.758578643763
 31
0.0
  0
LINE
  8
0
 62
0
 10
-2.900000000000067
 20
13.675735931288322
 30
0.0
 11
-2.7000000000000006
 21
13.758578643763004
 31
0.0
  0
LINE
  8
0
 62
0
 10
-3.099999999999995
 20
13.675735931288024
 30
0.0
 11
-3.3000000000000616
 21
13.758578643762704
 31
0.0
  0
LINE
  8
0
 62
0
 10
-2.924264068711977
 20
13.699999999999994
 30
0.0
 11
-2.8414213562372956
 21
13.90000000000006
 31
0.0
  0
LINE
  8
0
 62
0
 10
-3.075735931288322
 20
13.699999999999934
 30
0.0
 11
-3.158578643763003
 21
13.9
 31
0.0
  0
LINE
  8
0
 62
0
 10
-3.3
 20
13.758578643763
 30
0.0
 11
-3.1585786437629997
 21
13.9
 31
0.0
  0
LINE
  8
0
 62
0
 10
-3.158578643763
 20
13.9
 30
0.0
 11
-2.841421356237
 21
13.9
 31
0.0
  0
LINE
  8
0
 62
0
 10
-2.841421356237
 20
1.3
 30
0.0
 11
-3.158578643763
 21
1.3
 31
0.0
  0
LINE
  8
0
 62
0
 10
-2.7
 20
1.441421356237
 30
0.0
 11
-2.841421356237
 21
1.3
 31
0.0
  0
LINE
  8
0
 62
0
 10
-2.841421356236997
 20
1.3000000000000005
 30
0.0
 11
-2.924264068711678
 21
1.5000000000000666
 31
0.0
  0
LINE
  8
0
 62
0
 10
-3.158578643762704
 20
1.2999999999999385
 30
0.0
 11
-3.0757359312880235
 21
1.5000000000000049
 31
0.0
  0
LINE
  8
0
 62
0
 10
-2.924264068712
 20
1.5
 30
0.0
 11
-3.075735931288
 21
1.5
 31
0.0
  0
LINE
  8
0
 62
0
 10
-3.158578643763
 20
1.3
 30
0.0
 11
-3.3
 21
1.441421356237
 31
0.0
  0
LINE
  8
0
 62
0
 10
-2.7
 20
1.758578643763
 30
0.0
 11
-2.7
 21
1.441421356237
 31
0.0
  0
LINE
  8
0
 62
0
 10
-2.6999999999999384
 20
1.441421356237296
 30
0.0
 11
-2.900000000000005
 21
1.5242640687119766
 31
0.0
  0
LINE
  8
0
 62
0
 10
-2.9
 20
1.524264068712
 30
0.0
 11
-2.924264068712
 21
1.4999999999999998
 31
0.0
  0
LINE
  8
0
 62
0
 10
-3.075735931288
 20
1.5
 30
0.0
 11
-3.1
 21
1.5242640687120002
 31
0.0
  0
LINE
  8
0
 62
0
 10
-3.1
 20
1.524264068712
 30
0.0
 11
-3.1
 21
1.675735931288
 31
0.0
  0
LINE
  8
0
 62
0
 10
-3.1
 20
1.675735931288
 30
0.0
 11
-3.075735931288
 21
1.7000000000000002
 31
0.0
  0
LINE
  8
0
 62
0
 10
-3.075735931288
 20
1.7
 30
0.0
 11
-2.924264068712
 21
1.7
 31
0.0
  0
LINE
  8
0
 62
0
 10
-2.924264068712
 20
1.7
 30
0.0
 11
-2.9
 21
1.6757359312879998
 31
0.0
  0
LINE
  8
0
 62
0
 10
-2.9
 20
1.675735931288
 30
0.0
 11
-2.9
 21
1.524264068712
 31
0.0
  0
LINE
  8
0
 62
0
 10
-3.0999999999999335
 20
1.5242640687116782
 30
0.0
 11
-3.2999999999999994
 21
1.4414213562369975
 31
0.0
  0
LINE
  8
0
 62
0
 10
-3.3
 20
1.441421356237
 30
0.0
 11
-3.3
 21
1.758578643763
 31
0.0
  0
LINE
  8
0
 62
0
 10
-2.841421356237
 20
1.9
 30
0.0
 11
-2.7
 21
1.758578643763
 31
0.0
  0
LINE
  8
0
 62
0
 10
-2.9000000000000665
 20
1.6757359312883218
 30
0.0
 11
-2.7000000000000006
 21
1.7585786437630024
 31
0.0
  0
LINE
  8
0
 62
0
 10
-3.099999999999995
 20
1.6757359312880233
 30
0.0
 11
-3.3000000000000616
 21
1.758578643762704
 31
0.0
  0
LINE
  8
0
 62
0
 10
-2.9242640687119765
 20
1.6999999999999953
 30
0.0
 11
-2.841421356237296
 21
1.9000000000000614
 31
0.0
  0
LINE
  8
0
 62
0
 10
-3.075735931288322
 20
1.6999999999999331
 30
0.0
 11
-3.158578643763003
 21
1.8999999999999995
 31
0.0
  0
LINE
  8
0
 62
0
 10
-3.3
 20
1.758578643763
 30
0.0
 11
-3.158578643763
 21
1.9
 31
0.0
  0
LINE
  8
0
 62
0
 10
-3.158578643763
 20
1.9
 30
0.0
 11
-2.841421356237
 21
1.9
 31
0.0
  0
LINE
  8
0
 62
0
 10
-16.741421356237
 20
7.0
 30
0.0
 11
-17.498578643763
 21
7.0
 31
0.0
  0
LINE
  8
0
 62
0
 10
-16.6
 20
7.141421356237
 30
0.0
 11
-16.741421356237
 21
7.0
 31
0.0
  0
LINE
  8
0
 62
0
 10
-16.741421356236998
 20
7.000000000000001
 30
0.0
 11
-16.824264068711678
 21
7.200000000000067
 31
0.0
  0
LINE
  8
0
 62
0
 10
-17.498578643762855
 20
6.99999999999997
 30
0.0
 11
-17.415735931288175
 21
7.200000000000036
 31
0.0
  0
LINE
  8
0
 62
0
 10
-16.824264068712
 20
7.2
 30
0.0
 11
-17.415735931288
 21
7.2
 31
0.0
  0
LINE
  8
0
 62
0
 10
-17.498578643763
 20
7.0
 30
0.0
 11
-17.64
 21
7.141421356237
 31
0.0
  0
LINE
  8
0
 62
0
 10
-16.6
 20
7.868578643763
 30
0.0
 11
-16.6
 21
7.141421356237
 31
0.0
  0
LINE
  8
0
 62
0
 10
-16.599999999999934
 20
7.14142135623733
 30
0.0
 11
-16.8
 21
7.22426406871201
 31
0.0
  0
LINE
  8
0
 62
0
 10
-16.8
 20
7.224264068712
 30
0.0
 11
-16.824264068712
 21
7.2
 31
0.0
  0
LINE
  8
0
 62
0
 10
-17.415735931288
 20
7.200000000000002
 30
0.0
 11
-17.44
 21
7.224264068712001
 31
0.0
  0
LINE
  8
0
 62
0
 10
-17.44
 20
7.224264068712
 30
0.0
 11
-17.44
 21
7.785735931288
 31
0.0
  0
LINE
  8
0
 62
0
 10
-17.44
 20
7.785735931288
 30
0.0
 11
-17.415735931288
 21
7.81
 31
0.0
  0
LINE
  8
0
 62
0
 10
-17.415735931288
 20
7.81
 30
0.0
 11
-16.824264068712
 21
7.81
 31
0.0
  0
LINE
  8
0
 62
0
 10
-16.824264068712
 20
7.81
 30
0.0
 11
-16.8
 21
7.785735931288
 31
0.0
  0
LINE
  8
0
 62
0
 10
-16.8
 20
7.785735931288
 30
0.0
 11
-16.8
 21
7.224264068712
 31
0.0
  0
LINE
  8
0
 62
0
 10
-17.439999999999934
 20
7.224264068711678
 30
0.0
 11
-17.64
 21
7.1414213562369975
 31
0.0
  0
LINE
  8
0
 62
0
 10
-17.64
 20
7.141421356237
 30
0.0
 11
-17.64
 21
7.868578643763
 31
0.0
  0
LINE
  8
0
 62
0
 10
-16.741421356237
 20
8.01
 30
0.0
 11
-16.6
 21
7.868578643763
 31
0.0
  0
LINE
  8
0
 62
0
 10
-16.800000000000068
 20
7.785735931288322
 30
0.0
 11
-16.6
 21
7.868578643763002
 31
0.0
  0
LINE
  8
0
 62
0
 10
-17.440000000000005
 20
7.78573593128799
 30
0.0
 11
-17.640000000000068
 21
7.86857864376267
 31
0.0
  0
LINE
  8
0
 62
0
 10
-16.824264068711827
 20
7.809999999999964
 30
0.0
 11
-16.741421356237147
 21
8.01000000000003
 31
0.0
  0
LINE
  8
0
 62
0
 10
-17.41573593128832
 20
7.809999999999933
 30
0.0
 11
-17.498578643763
 21
8.01
 31
0.0
  0
LINE
  8
0
 62
0
 10
-17.64
 20
7.868578643763
 30
0.0
 11
-17.498578643763
 21
8.01
 31
0.0
  0
LINE
  8
0
 62
0
 10
-17.498578643763
 20
8.01
 30
0.0
 11
-16.741421356237
 21
8.01
 31
0.0
  0
LINE
  8
0
 62
0
 10
-0.1
 20
0.0
 30
0.0
 11
-18.9
 21
0.0
 31
0.0
  0
ARC
  8
0
 62
0
 10
-18.9
 20
0.1
 30
0.0
 40
0.1
 50
-180.0
 51
-90.0
  0
LINE
  8
0
 62
0
 10
-19.0
 20
0.1
 30
0.0
 11
-19.0
 21
14.9
 31
0.0
  0
ARC
  8
0
 62
0
 10
-18.9
 20
14.9
 30
0.0
 40
0.1
 50
90.0
 51
-180.0
  0
LINE
  8
0
 62
0
 10
-18.9
 20
15.0
 30
0.0
 11
-0.10000000000000142
 21
15.0
 31
0.0
  0
ARC
  8
0
 62
0
 10
-0.1
 20
14.9
 30
0.0
 40
0.1
 50
-0.0
 51
90.0
  0
LINE
  8
0
 62
0
 10
0.0
 20
14.9
 30
0.0
 11
0.0
 21
0.09999999999999964
 31
0.0
  0
ARC
  8
0
 62
0
 10
-0.1
 20
0.1
 30
0.0
 40
0.1
 50
-90.0
 51
-0.0
  0
ENDBLK
  0
ENDSEC
  0
SECTION
  2
ENTITIES
  0
INSERT
  2
SHAPE2DVIEW001
  8
0
 62
0
 10
0.0
 20
0.0
 30
0.0
  0
ENDSEC
  0
EOF
