  0
SECTION
  2
HEADER
  9
$ACADVER
  1
AC1009
  9
$INSBASE
 10
0.0
 20
0.0
 30
0.0
  9
$EXTMIN
 10
0.0
 20
0.0
 30
0.0
  9
$EXTMAX
 10
0.0
 20
0.0
 30
0.0
  0
ENDSEC
  0
SECTION
  2
TABLES
  0
TABLE
  2
VPORT
 70
0
  0
ENDTAB
  0
TABLE
  2
LTYPE
 70
1
  0
LTYPE
  2
CONTINUOUS
 70
0
  3
Solid line
 72
65
 73
0
 40
0.0
  0
ENDTAB
  0
TABLE
  2
LAYER
 70
1
  0
LAYER
  2
0
 70
64
 62
7
  6
continuous
  0
ENDTAB
  0
TABLE
  2
STYLE
 70
1
  0
STYLE
  2
STANDARD
 70
0
 40
0
 41
1.0
 50
0.0
 71
0
 42
1
 3
ARIAL.TTF
 4

  0
ENDTAB
  0
TABLE
  2
VIEW
 70
0
  0
ENDTAB
  0
ENDSEC
  0
SECTION
  2
BLOCKS
  0
BLOCK
  8
0
  2
SHAPE2DVIEW
 70
0
 10
0.0
 20
0.0
 30
0.0
  3
SHAPE2DVIEW
  0
LINE
  8
0
 62
0
 10
3.5
 20
-4.985
 30
0.0
 11
3.5
 21
-5.465
 31
0.0
  0
LINE
  8
0
 62
0
 10
3.0999999999999996
 20
-4.985
 30
0.0
 11
3.5
 21
-4.985
 31
0.0
  0
LINE
  8
0
 62
0
 10
3.0999999999999996
 20
-5.465
 30
0.0
 11
3.5
 21
-5.465
 31
0.0
  0
LINE
  8
0
 62
0
 10
-1.1
 20
-2.749999999999999
 30
0.0
 11
3.5
 21
-2.7500000000000004
 31
0.0
  0
LINE
  8
0
 62
0
 10
-3.5
 20
-4.975
 30
0.0
 11
3.5
 21
-4.975
 31
0.0
  0
LINE
  8
0
 62
0
 10
-3.5000000000000004
 20
-4.975
 30
0.0
 11
-4.299999999999998
 21
-4.975
 31
0.0
  0
LINE
  8
0
 62
0
 10
3.5000000000000004
 20
-4.175000000000001
 30
0.0
 11
3.0000000000000004
 21
-3.8500000000000005
 31
0.0
  0
LINE
  8
0
 62
0
 10
3.0
 20
-3.8499999999999996
 30
0.0
 11
3.0
 21
-4.05
 31
0.0
  0
LINE
  8
0
 62
0
 10
3.5
 20
4.975
 30
0.0
 11
3.5
 21
4.175
 31
0.0
  0
LINE
  8
0
 62
0
 10
3.5
 20
-4.174999999999999
 30
0.0
 11
3.5
 21
-4.975
 31
0.0
  0
LINE
  8
0
 62
0
 10
3.5
 20
4.175
 30
0.0
 11
3.5
 21
2.7500000000000004
 31
0.0
  0
LINE
  8
0
 62
0
 10
3.5
 20
-2.7500000000000004
 30
0.0
 11
3.5
 21
-4.174999999999999
 31
0.0
  0
LINE
  8
0
 62
0
 10
0.560023505520817
 20
4.05
 30
0.0
 11
3.0
 21
4.05
 31
0.0
  0
LINE
  8
0
 62
0
 10
3.1
 20
-4.975
 30
0.0
 11
3.1
 21
-5.975
 31
0.0
  0
LINE
  8
0
 62
0
 10
-2.4
 20
-4.975
 30
0.0
 11
-2.4
 21
-5.975
 31
0.0
  0
LINE
  8
0
 62
0
 10
-2.4
 20
-5.975
 30
0.0
 11
3.1
 21
-5.975
 31
0.0
  0
LINE
  8
0
 62
0
 10
-4.299999999999997
 20
4.975
 30
0.0
 11
-3.5
 21
4.975
 31
0.0
  0
LINE
  8
0
 62
0
 10
-3.5
 20
4.975
 30
0.0
 11
3.5
 21
4.975
 31
0.0
  0
LINE
  8
0
 62
0
 10
-2.4
 20
4.975
 30
0.0
 11
-2.4
 21
5.975
 31
0.0
  0
LINE
  8
0
 62
0
 10
3.1
 20
4.975
 30
0.0
 11
3.1
 21
5.975
 31
0.0
  0
LINE
  8
0
 62
0
 10
-2.4
 20
5.975
 30
0.0
 11
3.1
 21
5.975
 31
0.0
  0
LINE
  8
0
 62
0
 10
2.65
 20
-2.805
 30
0.0
 11
-1.1
 21
-2.805
 31
0.0
  0
LINE
  8
0
 62
0
 10
2.65
 20
-2.75
 30
0.0
 11
2.65
 21
-2.805
 31
0.0
  0
LINE
  8
0
 62
0
 10
-3.5
 20
-2.805
 30
0.0
 11
-3.58847557930042
 21
-2.805
 31
0.0
  0
POLYLINE
  8
0
 62
0
 70
0
 66
1
 10
0.0
 20
0.0
 30
0.0
  0
VERTEX
  8
0
 10
-3.58847557930042
 20
-2.805
 30
0.0
  0
VERTEX
  8
0
 10
-4.076851172503813
 20
-2.805
 30
0.0
  0
SEQEND
  8
0
  0
LINE
  8
0
 62
0
 10
-4.07685117250381
 20
-2.805
 30
0.0
 11
-4.790637303393234
 21
-2.8049999999999997
 31
0.0
  0
LINE
  8
0
 62
0
 10
-4.79063730339324
 20
-2.805
 30
0.0
 11
-6.95
 21
-2.805
 31
0.0
  0
LINE
  8
0
 62
0
 10
2.65
 20
-2.805
 30
0.0
 11
2.7049999999999996
 21
-2.7500000000000004
 31
0.0
  0
LINE
  8
0
 62
0
 10
-3.58847557930042
 20
-2.195
 30
0.0
 11
-3.5
 21
-2.195
 31
0.0
  0
LINE
  8
0
 62
0
 10
-6.95
 20
-2.805
 30
0.0
 11
-6.95
 21
-2.195
 31
0.0
  0
LINE
  8
0
 62
0
 10
-6.95
 20
-2.195
 30
0.0
 11
-7.1
 21
-2.345
 31
0.0
  0
LINE
  8
0
 62
0
 10
-7.1
 20
-2.345
 30
0.0
 11
-7.1
 21
-2.655
 31
0.0
  0
LINE
  8
0
 62
0
 10
-7.1
 20
-2.655
 30
0.0
 11
-6.949999999999999
 21
-2.8049999999999993
 31
0.0
  0
LINE
  8
0
 62
0
 10
-6.95
 20
-2.195
 30
0.0
 11
-4.79063730339324
 21
-2.195
 31
0.0
  0
LINE
  8
0
 62
0
 10
-4.790637303393234
 20
-2.1949999999999994
 30
0.0
 11
-4.07685117250381
 21
-2.195
 31
0.0
  0
POLYLINE
  8
0
 62
0
 70
0
 66
1
 10
0.0
 20
0.0
 30
0.0
  0
VERTEX
  8
0
 10
-4.076851172503813
 20
-2.195
 30
0.0
  0
VERTEX
  8
0
 10
-3.58847557930042
 20
-2.195
 30
0.0
  0
SEQEND
  8
0
  0
LINE
  8
0
 62
0
 10
-4.79063730339324
 20
-2.195
 30
0.0
 11
-4.79063730339324
 21
-2.805
 31
0.0
  0
LINE
  8
0
 62
0
 10
-3.5
 20
-0.304999999999999
 30
0.0
 11
-3.58847557930042
 21
-0.304999999999999
 31
0.0
  0
POLYLINE
  8
0
 62
0
 70
0
 66
1
 10
0.0
 20
0.0
 30
0.0
  0
VERTEX
  8
0
 10
-3.58847557930042
 20
-0.30499999999999905
 30
0.0
  0
VERTEX
  8
0
 10
-4.076851172503813
 20
-0.304999999999999
 30
0.0
  0
SEQEND
  8
0
  0
LINE
  8
0
 62
0
 10
-4.07685117250381
 20
-0.304999999999999
 30
0.0
 11
-4.790637303393234
 21
-0.3049999999999986
 31
0.0
  0
LINE
  8
0
 62
0
 10
-4.79063730339324
 20
-0.304999999999999
 30
0.0
 11
-6.95
 21
-0.304999999999999
 31
0.0
  0
LINE
  8
0
 62
0
 10
-3.58847557930042
 20
0.305000000000001
 30
0.0
 11
-3.5
 21
0.305000000000001
 31
0.0
  0
LINE
  8
0
 62
0
 10
-6.95
 20
-0.304999999999999
 30
0.0
 11
-6.95
 21
0.305000000000001
 31
0.0
  0
LINE
  8
0
 62
0
 10
-6.95
 20
0.305000000000001
 30
0.0
 11
-7.1
 21
0.1550000000000006
 31
0.0
  0
LINE
  8
0
 62
0
 10
-7.1
 20
0.155000000000001
 30
0.0
 11
-7.1
 21
-0.154999999999999
 31
0.0
  0
LINE
  8
0
 62
0
 10
-7.1
 20
-0.154999999999999
 30
0.0
 11
-6.949999999999999
 21
-0.3049999999999985
 31
0.0
  0
LINE
  8
0
 62
0
 10
-6.95
 20
0.305000000000001
 30
0.0
 11
-4.79063730339324
 21
0.305000000000001
 31
0.0
  0
LINE
  8
0
 62
0
 10
-4.790637303393234
 20
0.3050000000000014
 30
0.0
 11
-4.07685117250381
 21
0.305000000000001
 31
0.0
  0
POLYLINE
  8
0
 62
0
 70
0
 66
1
 10
0.0
 20
0.0
 30
0.0
  0
VERTEX
  8
0
 10
-4.076851172503813
 20
0.305000000000001
 30
0.0
  0
VERTEX
  8
0
 10
-3.58847557930042
 20
0.30500000000000094
 30
0.0
  0
SEQEND
  8
0
  0
LINE
  8
0
 62
0
 10
-4.79063730339324
 20
0.305000000000001
 30
0.0
 11
-4.79063730339324
 21
-0.304999999999999
 31
0.0
  0
LINE
  8
0
 62
0
 10
2.65
 20
2.805
 30
0.0
 11
2.65
 21
2.75
 31
0.0
  0
LINE
  8
0
 62
0
 10
2.7049999999999996
 20
2.75
 30
0.0
 11
2.65
 21
2.805
 31
0.0
  0
LINE
  8
0
 62
0
 10
-1.1
 20
2.805
 30
0.0
 11
2.65
 21
2.805
 31
0.0
  0
LINE
  8
0
 62
0
 10
-6.95
 20
2.195
 30
0.0
 11
-6.95
 21
2.805
 31
0.0
  0
LINE
  8
0
 62
0
 10
-6.95
 20
2.805
 30
0.0
 11
-7.1
 21
2.655
 31
0.0
  0
LINE
  8
0
 62
0
 10
-7.1
 20
2.655
 30
0.0
 11
-7.1
 21
2.345
 31
0.0
  0
LINE
  8
0
 62
0
 10
-7.1
 20
2.345
 30
0.0
 11
-6.949999999999999
 21
2.1950000000000007
 31
0.0
  0
LINE
  8
0
 62
0
 10
-6.95
 20
2.805
 30
0.0
 11
-4.79063730339324
 21
2.805
 31
0.0
  0
LINE
  8
0
 62
0
 10
-4.790637303393234
 20
2.8050000000000006
 30
0.0
 11
-4.07685117250381
 21
2.805
 31
0.0
  0
POLYLINE
  8
0
 62
0
 70
0
 66
1
 10
0.0
 20
0.0
 30
0.0
  0
VERTEX
  8
0
 10
-4.076851172503813
 20
2.805
 30
0.0
  0
VERTEX
  8
0
 10
-3.58847557930042
 20
2.805
 30
0.0
  0
SEQEND
  8
0
  0
LINE
  8
0
 62
0
 10
-3.58847557930042
 20
2.805
 30
0.0
 11
-3.5
 21
2.805
 31
0.0
  0
LINE
  8
0
 62
0
 10
-4.79063730339324
 20
2.195
 30
0.0
 11
-6.95
 21
2.195
 31
0.0
  0
LINE
  8
0
 62
0
 10
-4.79063730339324
 20
2.805
 30
0.0
 11
-4.79063730339324
 21
2.195
 31
0.0
  0
LINE
  8
0
 62
0
 10
-3.5
 20
2.195
 30
0.0
 11
-3.58847557930042
 21
2.195
 31
0.0
  0
POLYLINE
  8
0
 62
0
 70
0
 66
1
 10
0.0
 20
0.0
 30
0.0
  0
VERTEX
  8
0
 10
-3.58847557930042
 20
2.195
 30
0.0
  0
VERTEX
  8
0
 10
-4.076851172503813
 20
2.195
 30
0.0
  0
SEQEND
  8
0
  0
LINE
  8
0
 62
0
 10
-4.07685117250381
 20
2.195
 30
0.0
 11
-4.790637303393234
 21
2.1950000000000003
 31
0.0
  0
LINE
  8
0
 62
0
 10
-4.3
 20
0.400000000000001
 30
0.0
 11
-3.5
 21
0.400000000000001
 31
0.0
  0
LINE
  8
0
 62
0
 10
-3.5
 20
-0.4
 30
0.0
 11
-4.3
 21
-0.4
 31
0.0
  0
LINE
  8
0
 62
0
 10
-4.3
 20
-2.1
 30
0.0
 11
-3.5
 21
-2.1
 31
0.0
  0
LINE
  8
0
 62
0
 10
-3.5
 20
-2.9
 30
0.0
 11
-4.3
 21
-2.9
 31
0.0
  0
LINE
  8
0
 62
0
 10
-4.3
 20
2.9
 30
0.0
 11
-3.5
 21
2.9
 31
0.0
  0
LINE
  8
0
 62
0
 10
-3.5
 20
2.1
 30
0.0
 11
-4.3
 21
2.1
 31
0.0
  0
LINE
  8
0
 62
0
 10
-4.3
 20
2.9000000000000004
 30
0.0
 11
-4.3
 21
4.275
 31
0.0
  0
LINE
  8
0
 62
0
 10
-4.3
 20
-4.275
 30
0.0
 11
-4.3
 21
-2.9
 31
0.0
  0
LINE
  8
0
 62
0
 10
-4.3
 20
0.40000000000000124
 30
0.0
 11
-4.3
 21
2.0999999999999996
 31
0.0
  0
LINE
  8
0
 62
0
 10
-4.3
 20
-2.1
 30
0.0
 11
-4.3
 21
-0.3999999999999999
 31
0.0
  0
LINE
  8
0
 62
0
 10
-4.3
 20
4.275
 30
0.0
 11
-4.3
 21
4.975
 31
0.0
  0
LINE
  8
0
 62
0
 10
-4.3
 20
-4.975
 30
0.0
 11
-4.3
 21
-4.275
 31
0.0
  0
LINE
  8
0
 62
0
 10
-3.500000000000001
 20
4.275
 30
0.0
 11
-4.300000000000003
 21
4.275
 31
0.0
  0
LINE
  8
0
 62
0
 10
-4.299999999999998
 20
-4.275
 30
0.0
 11
-3.5000000000000004
 21
-4.275
 31
0.0
  0
LINE
  8
0
 62
0
 10
-3.5
 20
-4.975
 30
0.0
 11
-3.5
 21
4.975
 31
0.0
  0
LINE
  8
0
 62
0
 10
3.0
 20
-4.05
 30
0.0
 11
0.560023505520817
 21
-4.05
 31
0.0
  0
LINE
  8
0
 62
0
 10
0.5600235055208178
 20
-4.049999999999999
 30
0.0
 11
-1.0999999999999996
 21
-3.1499999999999995
 31
0.0
  0
LINE
  8
0
 62
0
 10
-1.1
 20
-3.1500000000000004
 30
0.0
 11
-1.1
 21
-2.75
 31
0.0
  0
LINE
  8
0
 62
0
 10
3.5
 20
2.75
 30
0.0
 11
3.5
 21
-2.75
 31
0.0
  0
LINE
  8
0
 62
0
 10
-1.1000000000000019
 20
3.150000000000003
 30
0.0
 11
0.5600235055208156
 21
4.0500000000000025
 31
0.0
  0
LINE
  8
0
 62
0
 10
-1.1
 20
2.75
 30
0.0
 11
-1.1
 21
3.15
 31
0.0
  0
LINE
  8
0
 62
0
 10
3.5
 20
2.7500000000000004
 30
0.0
 11
-1.1
 21
2.749999999999999
 31
0.0
  0
LINE
  8
0
 62
0
 10
3.0
 20
4.05
 30
0.0
 11
3.0
 21
3.85
 31
0.0
  0
LINE
  8
0
 62
0
 10
3.0000000000000018
 20
3.849999999999998
 30
0.0
 11
3.5000000000000018
 21
4.174999999999997
 31
0.0
  0
LINE
  8
0
 62
0
 10
3.5
 20
4.985
 30
0.0
 11
3.5
 21
5.465
 31
0.0
  0
LINE
  8
0
 62
0
 10
3.0999999999999996
 20
4.985
 30
0.0
 11
3.5
 21
4.985
 31
0.0
  0
LINE
  8
0
 62
0
 10
3.0999999999999996
 20
5.465
 30
0.0
 11
3.5
 21
5.465
 31
0.0
  0
LINE
  8
0
 62
0
 10
-3.58847557930042
 20
-2.195
 30
0.0
 11
-3.58847557930042
 21
-2.805
 31
0.0
  0
LINE
  8
0
 62
0
 10
-4.07685117250381
 20
-2.195
 30
0.0
 11
-4.07685117250381
 21
-2.805
 31
0.0
  0
LINE
  8
0
 62
0
 10
-3.58847557930042
 20
0.305000000000001
 30
0.0
 11
-3.58847557930042
 21
-0.304999999999999
 31
0.0
  0
LINE
  8
0
 62
0
 10
-4.07685117250381
 20
0.305000000000001
 30
0.0
 11
-4.07685117250381
 21
-0.304999999999999
 31
0.0
  0
LINE
  8
0
 62
0
 10
-3.58847557930042
 20
2.805
 30
0.0
 11
-3.58847557930042
 21
2.195
 31
0.0
  0
LINE
  8
0
 62
0
 10
-4.07685117250381
 20
2.805
 30
0.0
 11
-4.07685117250381
 21
2.195
 31
0.0
  0
ENDBLK
  0
ENDSEC
  0
SECTION
  2
ENTITIES
  0
INSERT
  2
SHAPE2DVIEW
  8
0
 62
0
 10
0.0
 20
0.0
 30
0.0
  0
ENDSEC
  0
EOF
